%TF.GenerationSoftware,KiCad,Pcbnew,8.0.1*%
%TF.CreationDate,2024-03-24T20:30:25+02:00*%
%TF.ProjectId,Sensing_Subsystem,53656e73-696e-4675-9f53-756273797374,rev?*%
%TF.SameCoordinates,Original*%
%TF.FileFunction,Copper,L2,Bot*%
%TF.FilePolarity,Positive*%
%FSLAX46Y46*%
G04 Gerber Fmt 4.6, Leading zero omitted, Abs format (unit mm)*
G04 Created by KiCad (PCBNEW 8.0.1) date 2024-03-24 20:30:25*
%MOMM*%
%LPD*%
G01*
G04 APERTURE LIST*
%TA.AperFunction,ComponentPad*%
%ADD10C,1.200000*%
%TD*%
%TA.AperFunction,ComponentPad*%
%ADD11R,1.800000X1.800000*%
%TD*%
%TA.AperFunction,ComponentPad*%
%ADD12C,1.800000*%
%TD*%
%TA.AperFunction,ComponentPad*%
%ADD13C,3.000000*%
%TD*%
%TA.AperFunction,ComponentPad*%
%ADD14R,1.700000X1.700000*%
%TD*%
%TA.AperFunction,ComponentPad*%
%ADD15O,1.700000X1.700000*%
%TD*%
%TA.AperFunction,ViaPad*%
%ADD16C,0.600000*%
%TD*%
%TA.AperFunction,Conductor*%
%ADD17C,0.400000*%
%TD*%
G04 APERTURE END LIST*
D10*
%TO.P,D5,1,A*%
%TO.N,Net-(D5-A)*%
X157670000Y-78700000D03*
%TO.P,D5,2,C*%
%TO.N,+3.3V*%
X155130000Y-78700000D03*
%TD*%
D11*
%TO.P,D1,1,A*%
%TO.N,BATT*%
X126750000Y-78725000D03*
D12*
%TO.P,D1,2,C*%
%TO.N,Net-(D1-C)*%
X126750000Y-81265000D03*
%TD*%
D13*
%TO.P,TP2,1,1*%
%TO.N,Net-(D5-A)*%
X166500000Y-85000000D03*
%TD*%
D11*
%TO.P,D2,1,A*%
%TO.N,BATT*%
X151275000Y-88750000D03*
D12*
%TO.P,D2,2,C*%
%TO.N,Net-(D2-C)*%
X148735000Y-88750000D03*
%TD*%
D10*
%TO.P,D6,1,A*%
%TO.N,Net-(D6-A)*%
X116000000Y-85000000D03*
%TO.P,D6,2,C*%
%TO.N,+3.3V*%
X116000000Y-87540000D03*
%TD*%
%TO.P,D4,1,A*%
%TO.N,Net-(D4-A)*%
X187000000Y-87770000D03*
%TO.P,D4,2,C*%
%TO.N,+3.3V*%
X187000000Y-85230000D03*
%TD*%
D13*
%TO.P,TP3,1,1*%
%TO.N,Net-(D6-A)*%
X117500000Y-92000000D03*
%TD*%
D11*
%TO.P,D3,1,A*%
%TO.N,BATT*%
X176500000Y-81275000D03*
D12*
%TO.P,D3,2,C*%
%TO.N,Net-(D3-C)*%
X176500000Y-78735000D03*
%TD*%
D13*
%TO.P,TP1,1,1*%
%TO.N,Net-(D4-A)*%
X186000000Y-94000000D03*
%TD*%
D14*
%TO.P,J1,1,Pin_1*%
%TO.N,unconnected-(J1-Pin_1-Pad1)*%
X165780000Y-97540000D03*
D15*
%TO.P,J1,2,Pin_2*%
%TO.N,+3.3V*%
X165780000Y-95000000D03*
%TO.P,J1,3,Pin_3*%
%TO.N,GND*%
X163240000Y-97540000D03*
%TO.P,J1,4,Pin_4*%
%TO.N,BATT*%
X163240000Y-95000000D03*
%TO.P,J1,5,Pin_5*%
%TO.N,PA3*%
X160700000Y-97540000D03*
%TO.P,J1,6,Pin_6*%
%TO.N,unconnected-(J1-Pin_6-Pad6)*%
X160700000Y-95000000D03*
%TO.P,J1,7,Pin_7*%
%TO.N,PA4*%
X158160000Y-97540000D03*
%TO.P,J1,8,Pin_8*%
%TO.N,unconnected-(J1-Pin_8-Pad8)*%
X158160000Y-95000000D03*
%TO.P,J1,9,Pin_9*%
%TO.N,GND*%
X155620000Y-97540000D03*
%TO.P,J1,10,Pin_10*%
%TO.N,unconnected-(J1-Pin_10-Pad10)*%
X155620000Y-95000000D03*
%TO.P,J1,11,Pin_11*%
%TO.N,PA5*%
X153080000Y-97540000D03*
%TO.P,J1,12,Pin_12*%
%TO.N,unconnected-(J1-Pin_12-Pad12)*%
X153080000Y-95000000D03*
%TO.P,J1,13,Pin_13*%
%TO.N,PA6*%
X150540000Y-97540000D03*
%TO.P,J1,14,Pin_14*%
%TO.N,unconnected-(J1-Pin_14-Pad14)*%
X150540000Y-95000000D03*
%TO.P,J1,15,Pin_15*%
%TO.N,GND*%
X148000000Y-97540000D03*
%TO.P,J1,16,Pin_16*%
%TO.N,unconnected-(J1-Pin_16-Pad16)*%
X148000000Y-95000000D03*
%TO.P,J1,17,Pin_17*%
%TO.N,PA7*%
X145460000Y-97540000D03*
%TO.P,J1,18,Pin_18*%
%TO.N,unconnected-(J1-Pin_18-Pad18)*%
X145460000Y-95000000D03*
%TO.P,J1,19,Pin_19*%
%TO.N,PC4*%
X142920000Y-97540000D03*
%TO.P,J1,20,Pin_20*%
%TO.N,unconnected-(J1-Pin_20-Pad20)*%
X142920000Y-95000000D03*
%TO.P,J1,21,Pin_21*%
%TO.N,unconnected-(J1-Pin_21-Pad21)*%
X140380000Y-97540000D03*
%TO.P,J1,22,Pin_22*%
%TO.N,unconnected-(J1-Pin_22-Pad22)*%
X140380000Y-95000000D03*
%TO.P,J1,23,Pin_23*%
%TO.N,unconnected-(J1-Pin_23-Pad23)*%
X137840000Y-97540000D03*
%TO.P,J1,24,Pin_24*%
%TO.N,unconnected-(J1-Pin_24-Pad24)*%
X137840000Y-95000000D03*
%TO.P,J1,25,Pin_25*%
%TO.N,unconnected-(J1-Pin_25-Pad25)*%
X135300000Y-97540000D03*
%TO.P,J1,26,Pin_26*%
%TO.N,BATT*%
X135300000Y-95000000D03*
%TO.P,J1,27,Pin_27*%
%TO.N,GND*%
X132760000Y-97540000D03*
%TO.P,J1,28,Pin_28*%
%TO.N,+3.3V*%
X132760000Y-95000000D03*
%TD*%
D16*
%TO.N,+3.3V*%
X159000000Y-83000000D03*
X125500000Y-84000000D03*
X154000000Y-83500000D03*
%TO.N,Net-(D6-A)*%
X121000000Y-85500000D03*
X125000000Y-89674264D03*
%TO.N,GND*%
X173950000Y-93500000D03*
X119000000Y-89000000D03*
X155500000Y-88000000D03*
X139000000Y-92000000D03*
X125000000Y-91000000D03*
X184000000Y-85000000D03*
X188000000Y-83000000D03*
%TO.N,PA6*%
X128000000Y-96500000D03*
%TO.N,PA4*%
X157450000Y-84200000D03*
X157450000Y-86800000D03*
%TO.N,PA5*%
X121500000Y-87500000D03*
X126000000Y-87500000D03*
%TO.N,PA3*%
X179700000Y-84550000D03*
X182000000Y-84550000D03*
%TO.N,PA7*%
X143500000Y-83500000D03*
%TO.N,Net-(Q1-B)*%
X122000000Y-97000000D03*
X124500000Y-97000000D03*
%TO.N,Net-(Q2-B)*%
X140000000Y-86000000D03*
X140000000Y-88500000D03*
%TO.N,Net-(Q3-B)*%
X172000000Y-97500000D03*
X171000000Y-94000000D03*
%TD*%
D17*
%TO.N,+3.3V*%
X125500000Y-84000000D02*
X132760000Y-91260000D01*
X152000000Y-81500000D02*
X154000000Y-83500000D01*
X159000000Y-83000000D02*
X165780000Y-89780000D01*
X132760000Y-91260000D02*
X132760000Y-95000000D01*
X165780000Y-89780000D02*
X165780000Y-95000000D01*
X132760000Y-87740000D02*
X139000000Y-81500000D01*
X139000000Y-81500000D02*
X152000000Y-81500000D01*
X132760000Y-91260000D02*
X132760000Y-87740000D01*
%TO.N,Net-(D6-A)*%
X125000000Y-88500000D02*
X125000000Y-89674264D01*
X121000000Y-88500000D02*
X125000000Y-88500000D01*
X120800000Y-85700000D02*
X120800000Y-88300000D01*
X120800000Y-88300000D02*
X121000000Y-88500000D01*
X121000000Y-85500000D02*
X120800000Y-85700000D01*
%TO.N,GND*%
X161990000Y-96290000D02*
X163240000Y-97540000D01*
X160182233Y-96290000D02*
X161990000Y-96290000D01*
X154370000Y-89130000D02*
X155500000Y-88000000D01*
X155620000Y-97540000D02*
X154370000Y-96290000D01*
X135817767Y-96250000D02*
X134050000Y-96250000D01*
X154370000Y-96290000D02*
X154370000Y-89130000D01*
X136550000Y-95517767D02*
X135817767Y-96250000D01*
X156870000Y-98790000D02*
X158717767Y-98790000D01*
X154370000Y-96290000D02*
X149250000Y-96290000D01*
X134050000Y-96250000D02*
X132760000Y-97540000D01*
X159450000Y-97022233D02*
X160182233Y-96290000D01*
X125000000Y-91000000D02*
X126220000Y-91000000D01*
X126220000Y-91000000D02*
X132760000Y-97540000D01*
X158717767Y-98790000D02*
X159450000Y-98057767D01*
X139000000Y-92000000D02*
X136550000Y-94450000D01*
X155620000Y-97540000D02*
X156870000Y-98790000D01*
X121000000Y-91000000D02*
X119000000Y-89000000D01*
X125000000Y-91000000D02*
X121000000Y-91000000D01*
X186000000Y-83000000D02*
X188000000Y-83000000D01*
X159450000Y-98057767D02*
X159450000Y-97022233D01*
X149250000Y-96290000D02*
X148000000Y-97540000D01*
X136550000Y-94450000D02*
X136550000Y-95517767D01*
X184000000Y-85000000D02*
X186000000Y-83000000D01*
%TO.N,PA6*%
X130290000Y-98790000D02*
X128000000Y-96500000D01*
X149290000Y-98790000D02*
X130290000Y-98790000D01*
X150540000Y-97540000D02*
X149290000Y-98790000D01*
%TO.N,PA4*%
X156887767Y-96267767D02*
X156887767Y-87362233D01*
X156887767Y-87362233D02*
X157450000Y-86800000D01*
X157450000Y-86800000D02*
X157450000Y-84200000D01*
X158160000Y-97540000D02*
X156887767Y-96267767D01*
%TO.N,PA5*%
X122000000Y-87500000D02*
X126000000Y-87500000D01*
X121500000Y-87500000D02*
X122000000Y-87500000D01*
%TO.N,PA3*%
X179700000Y-96600000D02*
X179700000Y-84550000D01*
X160700000Y-97540000D02*
X162460000Y-99300000D01*
X162460000Y-99300000D02*
X177000000Y-99300000D01*
X177000000Y-99300000D02*
X179700000Y-96600000D01*
X182000000Y-84550000D02*
X179700000Y-84550000D01*
%TO.N,PA7*%
X144170000Y-96250000D02*
X144170000Y-84170000D01*
X144170000Y-84170000D02*
X143500000Y-83500000D01*
X145460000Y-97540000D02*
X144170000Y-96250000D01*
%TO.N,Net-(Q1-B)*%
X122000000Y-97000000D02*
X124500000Y-97000000D01*
%TO.N,Net-(Q2-B)*%
X140000000Y-86000000D02*
X140000000Y-88500000D01*
%TO.N,Net-(Q3-B)*%
X171000000Y-96500000D02*
X172000000Y-97500000D01*
X171000000Y-94000000D02*
X171000000Y-96500000D01*
%TD*%
%TA.AperFunction,Conductor*%
%TO.N,GND*%
G36*
X189442539Y-76020185D02*
G01*
X189488294Y-76072989D01*
X189499500Y-76124500D01*
X189499500Y-99875500D01*
X189479815Y-99942539D01*
X189427011Y-99988294D01*
X189375500Y-99999500D01*
X177590520Y-99999500D01*
X177523481Y-99979815D01*
X177477726Y-99927011D01*
X177467782Y-99857853D01*
X177496807Y-99794297D01*
X177502839Y-99787819D01*
X180244111Y-97046546D01*
X180244112Y-97046545D01*
X180244114Y-97046543D01*
X180320775Y-96931811D01*
X180373580Y-96804328D01*
X180400500Y-96668994D01*
X180400500Y-96531006D01*
X180400500Y-94000001D01*
X183994390Y-94000001D01*
X184014804Y-94285433D01*
X184075628Y-94565037D01*
X184175635Y-94833166D01*
X184312770Y-95084309D01*
X184312775Y-95084317D01*
X184484254Y-95313387D01*
X184484270Y-95313405D01*
X184686594Y-95515729D01*
X184686612Y-95515745D01*
X184915682Y-95687224D01*
X184915690Y-95687229D01*
X185166833Y-95824364D01*
X185166832Y-95824364D01*
X185166836Y-95824365D01*
X185166839Y-95824367D01*
X185434954Y-95924369D01*
X185434960Y-95924370D01*
X185434962Y-95924371D01*
X185714566Y-95985195D01*
X185714568Y-95985195D01*
X185714572Y-95985196D01*
X185968220Y-96003337D01*
X185999999Y-96005610D01*
X186000000Y-96005610D01*
X186000001Y-96005610D01*
X186028595Y-96003564D01*
X186285428Y-95985196D01*
X186565046Y-95924369D01*
X186833161Y-95824367D01*
X187084315Y-95687226D01*
X187313395Y-95515739D01*
X187515739Y-95313395D01*
X187687226Y-95084315D01*
X187824367Y-94833161D01*
X187924369Y-94565046D01*
X187985196Y-94285428D01*
X188005610Y-94000000D01*
X187985196Y-93714572D01*
X187984643Y-93712032D01*
X187924371Y-93434962D01*
X187924370Y-93434960D01*
X187924369Y-93434954D01*
X187824367Y-93166839D01*
X187779306Y-93084317D01*
X187687229Y-92915690D01*
X187687224Y-92915682D01*
X187515745Y-92686612D01*
X187515729Y-92686594D01*
X187313405Y-92484270D01*
X187313387Y-92484254D01*
X187084317Y-92312775D01*
X187084309Y-92312770D01*
X186833166Y-92175635D01*
X186833167Y-92175635D01*
X186725915Y-92135632D01*
X186565046Y-92075631D01*
X186565043Y-92075630D01*
X186565037Y-92075628D01*
X186285433Y-92014804D01*
X186000001Y-91994390D01*
X185999999Y-91994390D01*
X185714566Y-92014804D01*
X185434962Y-92075628D01*
X185166833Y-92175635D01*
X184915690Y-92312770D01*
X184915682Y-92312775D01*
X184686612Y-92484254D01*
X184686594Y-92484270D01*
X184484270Y-92686594D01*
X184484254Y-92686612D01*
X184312775Y-92915682D01*
X184312770Y-92915690D01*
X184175635Y-93166833D01*
X184075628Y-93434962D01*
X184014804Y-93714566D01*
X183994390Y-93999998D01*
X183994390Y-94000001D01*
X180400500Y-94000001D01*
X180400500Y-90565891D01*
X186999500Y-90565891D01*
X187033608Y-90693187D01*
X187066554Y-90750250D01*
X187099500Y-90807314D01*
X187192686Y-90900500D01*
X187306814Y-90966392D01*
X187434108Y-91000500D01*
X187434110Y-91000500D01*
X187565890Y-91000500D01*
X187565892Y-91000500D01*
X187693186Y-90966392D01*
X187807314Y-90900500D01*
X187900500Y-90807314D01*
X187966392Y-90693186D01*
X188000500Y-90565892D01*
X188000500Y-90434108D01*
X187966392Y-90306814D01*
X187900500Y-90192686D01*
X187807314Y-90099500D01*
X187750250Y-90066554D01*
X187693187Y-90033608D01*
X187595920Y-90007546D01*
X187565892Y-89999500D01*
X187434108Y-89999500D01*
X187306812Y-90033608D01*
X187192686Y-90099500D01*
X187192683Y-90099502D01*
X187099502Y-90192683D01*
X187099500Y-90192686D01*
X187033608Y-90306812D01*
X186999500Y-90434108D01*
X186999500Y-90565891D01*
X180400500Y-90565891D01*
X180400500Y-87770000D01*
X185894785Y-87770000D01*
X185913602Y-87973082D01*
X185969417Y-88169247D01*
X185969422Y-88169260D01*
X186060327Y-88351821D01*
X186183237Y-88514581D01*
X186333958Y-88651980D01*
X186333960Y-88651982D01*
X186377998Y-88679249D01*
X186507363Y-88759348D01*
X186697544Y-88833024D01*
X186898024Y-88870500D01*
X186898026Y-88870500D01*
X187101974Y-88870500D01*
X187101976Y-88870500D01*
X187302456Y-88833024D01*
X187492637Y-88759348D01*
X187666041Y-88651981D01*
X187812249Y-88518695D01*
X187816762Y-88514581D01*
X187824505Y-88504328D01*
X187939673Y-88351821D01*
X188030582Y-88169250D01*
X188086397Y-87973083D01*
X188105215Y-87770000D01*
X188101059Y-87725154D01*
X188086397Y-87566917D01*
X188065210Y-87492454D01*
X188030582Y-87370750D01*
X188023192Y-87355909D01*
X187986272Y-87281764D01*
X187939673Y-87188179D01*
X187816764Y-87025421D01*
X187816762Y-87025418D01*
X187666041Y-86888019D01*
X187666039Y-86888017D01*
X187492642Y-86780655D01*
X187492635Y-86780651D01*
X187397546Y-86743814D01*
X187302456Y-86706976D01*
X187101976Y-86669500D01*
X186898024Y-86669500D01*
X186697544Y-86706976D01*
X186697541Y-86706976D01*
X186697541Y-86706977D01*
X186507364Y-86780651D01*
X186507357Y-86780655D01*
X186333960Y-86888017D01*
X186333958Y-86888019D01*
X186183237Y-87025418D01*
X186060327Y-87188178D01*
X185969422Y-87370739D01*
X185969417Y-87370752D01*
X185913602Y-87566917D01*
X185894785Y-87769999D01*
X185894785Y-87770000D01*
X180400500Y-87770000D01*
X180400500Y-85374500D01*
X180420185Y-85307461D01*
X180472989Y-85261706D01*
X180524500Y-85250500D01*
X181574506Y-85250500D01*
X181640477Y-85269506D01*
X181650474Y-85275787D01*
X181650475Y-85275787D01*
X181650478Y-85275789D01*
X181783062Y-85322182D01*
X181820745Y-85335368D01*
X181820750Y-85335369D01*
X181999996Y-85355565D01*
X182000000Y-85355565D01*
X182000004Y-85355565D01*
X182179249Y-85335369D01*
X182179252Y-85335368D01*
X182179255Y-85335368D01*
X182349522Y-85275789D01*
X182422395Y-85230000D01*
X185894785Y-85230000D01*
X185913602Y-85433082D01*
X185969417Y-85629247D01*
X185969422Y-85629260D01*
X186060327Y-85811821D01*
X186183237Y-85974581D01*
X186333958Y-86111980D01*
X186333960Y-86111982D01*
X186364551Y-86130923D01*
X186507363Y-86219348D01*
X186697544Y-86293024D01*
X186898024Y-86330500D01*
X186898026Y-86330500D01*
X187101974Y-86330500D01*
X187101976Y-86330500D01*
X187302456Y-86293024D01*
X187492637Y-86219348D01*
X187666041Y-86111981D01*
X187816764Y-85974579D01*
X187939673Y-85811821D01*
X188030582Y-85629250D01*
X188086397Y-85433083D01*
X188105215Y-85230000D01*
X188101919Y-85194435D01*
X188086397Y-85026917D01*
X188050150Y-84899525D01*
X188030582Y-84830750D01*
X188013735Y-84796917D01*
X187972761Y-84714630D01*
X187939673Y-84648179D01*
X187816764Y-84485421D01*
X187816762Y-84485418D01*
X187666041Y-84348019D01*
X187666039Y-84348017D01*
X187492642Y-84240655D01*
X187492635Y-84240651D01*
X187334136Y-84179249D01*
X187302456Y-84166976D01*
X187101976Y-84129500D01*
X186898024Y-84129500D01*
X186697544Y-84166976D01*
X186697541Y-84166976D01*
X186697541Y-84166977D01*
X186507364Y-84240651D01*
X186507357Y-84240655D01*
X186333960Y-84348017D01*
X186333958Y-84348019D01*
X186183237Y-84485418D01*
X186060327Y-84648178D01*
X185969422Y-84830739D01*
X185969417Y-84830752D01*
X185913602Y-85026917D01*
X185894785Y-85229999D01*
X185894785Y-85230000D01*
X182422395Y-85230000D01*
X182502262Y-85179816D01*
X182629816Y-85052262D01*
X182725789Y-84899522D01*
X182785368Y-84729255D01*
X182787016Y-84714630D01*
X182805565Y-84550003D01*
X182805565Y-84549996D01*
X182785369Y-84370750D01*
X182785368Y-84370745D01*
X182777415Y-84348017D01*
X182725789Y-84200478D01*
X182704648Y-84166833D01*
X182681388Y-84129815D01*
X182629816Y-84047738D01*
X182502262Y-83920184D01*
X182391326Y-83850478D01*
X182349523Y-83824211D01*
X182179254Y-83764631D01*
X182179249Y-83764630D01*
X182000004Y-83744435D01*
X181999996Y-83744435D01*
X181820750Y-83764630D01*
X181820745Y-83764631D01*
X181650474Y-83824212D01*
X181640477Y-83830494D01*
X181574506Y-83849500D01*
X180125494Y-83849500D01*
X180059523Y-83830494D01*
X180049525Y-83824212D01*
X179879254Y-83764631D01*
X179879249Y-83764630D01*
X179700004Y-83744435D01*
X179699996Y-83744435D01*
X179520750Y-83764630D01*
X179520745Y-83764631D01*
X179350476Y-83824211D01*
X179197737Y-83920184D01*
X179070184Y-84047737D01*
X178974211Y-84200476D01*
X178914631Y-84370745D01*
X178914630Y-84370750D01*
X178894435Y-84549996D01*
X178894435Y-84550003D01*
X178914630Y-84729249D01*
X178914631Y-84729254D01*
X178974212Y-84899525D01*
X178980492Y-84909519D01*
X178999500Y-84975493D01*
X178999500Y-96258481D01*
X178979815Y-96325520D01*
X178963181Y-96346162D01*
X176746162Y-98563181D01*
X176684839Y-98596666D01*
X176658481Y-98599500D01*
X167251169Y-98599500D01*
X167184130Y-98579815D01*
X167138375Y-98527011D01*
X167127879Y-98462247D01*
X167130500Y-98437873D01*
X167130499Y-96642128D01*
X167124091Y-96582517D01*
X167123002Y-96579598D01*
X167073797Y-96447671D01*
X167073793Y-96447664D01*
X166987547Y-96332455D01*
X166987544Y-96332452D01*
X166872335Y-96246206D01*
X166872328Y-96246202D01*
X166740917Y-96197189D01*
X166684983Y-96155318D01*
X166660566Y-96089853D01*
X166675418Y-96021580D01*
X166696563Y-95993332D01*
X166818495Y-95871401D01*
X166954035Y-95677830D01*
X167053903Y-95463663D01*
X167115063Y-95235408D01*
X167135659Y-95000000D01*
X167115063Y-94764592D01*
X167068626Y-94591285D01*
X167053905Y-94536344D01*
X167053904Y-94536343D01*
X167053903Y-94536337D01*
X166954035Y-94322171D01*
X166948425Y-94314158D01*
X166818494Y-94128597D01*
X166689899Y-94000003D01*
X170194435Y-94000003D01*
X170214630Y-94179249D01*
X170214631Y-94179254D01*
X170274212Y-94349525D01*
X170280492Y-94359519D01*
X170299500Y-94425493D01*
X170299500Y-96431006D01*
X170299500Y-96568994D01*
X170299500Y-96568996D01*
X170299499Y-96568996D01*
X170326418Y-96704322D01*
X170326421Y-96704332D01*
X170379222Y-96831807D01*
X170455887Y-96946545D01*
X170455888Y-96946546D01*
X171208630Y-97699287D01*
X171237990Y-97746013D01*
X171274209Y-97849519D01*
X171274211Y-97849522D01*
X171370184Y-98002262D01*
X171497738Y-98129816D01*
X171580440Y-98181781D01*
X171649866Y-98225405D01*
X171650478Y-98225789D01*
X171820745Y-98285368D01*
X171820750Y-98285369D01*
X171999996Y-98305565D01*
X172000000Y-98305565D01*
X172000004Y-98305565D01*
X172179249Y-98285369D01*
X172179252Y-98285368D01*
X172179255Y-98285368D01*
X172349522Y-98225789D01*
X172502262Y-98129816D01*
X172629816Y-98002262D01*
X172725789Y-97849522D01*
X172785368Y-97679255D01*
X172785369Y-97679249D01*
X172805565Y-97500003D01*
X172805565Y-97499996D01*
X172785369Y-97320750D01*
X172785368Y-97320745D01*
X172774610Y-97290000D01*
X172725789Y-97150478D01*
X172629816Y-96997738D01*
X172502262Y-96870184D01*
X172349522Y-96774211D01*
X172349519Y-96774209D01*
X172246013Y-96737990D01*
X172199287Y-96708630D01*
X171736819Y-96246162D01*
X171703334Y-96184839D01*
X171700500Y-96158481D01*
X171700500Y-94425493D01*
X171719508Y-94359519D01*
X171725787Y-94349525D01*
X171725786Y-94349525D01*
X171725789Y-94349522D01*
X171785368Y-94179255D01*
X171805565Y-94000000D01*
X171801227Y-93961501D01*
X171785369Y-93820750D01*
X171785368Y-93820745D01*
X171766255Y-93766123D01*
X171725789Y-93650478D01*
X171629816Y-93497738D01*
X171502262Y-93370184D01*
X171411899Y-93313405D01*
X171349523Y-93274211D01*
X171179254Y-93214631D01*
X171179249Y-93214630D01*
X171000004Y-93194435D01*
X170999996Y-93194435D01*
X170820750Y-93214630D01*
X170820745Y-93214631D01*
X170650476Y-93274211D01*
X170497737Y-93370184D01*
X170370184Y-93497737D01*
X170274211Y-93650476D01*
X170214631Y-93820745D01*
X170214630Y-93820750D01*
X170194435Y-93999996D01*
X170194435Y-94000003D01*
X166689899Y-94000003D01*
X166651404Y-93961508D01*
X166651402Y-93961506D01*
X166651401Y-93961505D01*
X166651396Y-93961501D01*
X166651393Y-93961499D01*
X166533376Y-93878861D01*
X166489751Y-93824284D01*
X166480500Y-93777287D01*
X166480500Y-89711009D01*
X166477887Y-89697875D01*
X166477887Y-89697873D01*
X166453580Y-89575672D01*
X166449754Y-89566435D01*
X166400777Y-89448192D01*
X166324112Y-89333454D01*
X166324111Y-89333453D01*
X161990658Y-85000001D01*
X164494390Y-85000001D01*
X164514804Y-85285433D01*
X164575628Y-85565037D01*
X164575630Y-85565043D01*
X164575631Y-85565046D01*
X164618229Y-85679255D01*
X164675635Y-85833166D01*
X164812770Y-86084309D01*
X164812775Y-86084317D01*
X164984254Y-86313387D01*
X164984270Y-86313405D01*
X165186594Y-86515729D01*
X165186612Y-86515745D01*
X165415682Y-86687224D01*
X165415690Y-86687229D01*
X165666833Y-86824364D01*
X165666832Y-86824364D01*
X165666836Y-86824365D01*
X165666839Y-86824367D01*
X165934954Y-86924369D01*
X165934960Y-86924370D01*
X165934962Y-86924371D01*
X166214566Y-86985195D01*
X166214568Y-86985195D01*
X166214572Y-86985196D01*
X166468220Y-87003337D01*
X166499999Y-87005610D01*
X166500000Y-87005610D01*
X166500001Y-87005610D01*
X166528595Y-87003564D01*
X166785428Y-86985196D01*
X166812739Y-86979255D01*
X167065037Y-86924371D01*
X167065037Y-86924370D01*
X167065046Y-86924369D01*
X167333161Y-86824367D01*
X167584315Y-86687226D01*
X167813395Y-86515739D01*
X168015739Y-86313395D01*
X168187226Y-86084315D01*
X168324367Y-85833161D01*
X168424369Y-85565046D01*
X168453076Y-85433082D01*
X168485195Y-85285433D01*
X168485195Y-85285432D01*
X168485196Y-85285428D01*
X168505610Y-85000000D01*
X168485196Y-84714572D01*
X168480815Y-84694435D01*
X168424371Y-84434962D01*
X168424370Y-84434960D01*
X168424369Y-84434954D01*
X168324367Y-84166839D01*
X168304150Y-84129815D01*
X168187229Y-83915690D01*
X168187224Y-83915682D01*
X168015745Y-83686612D01*
X168015729Y-83686594D01*
X167813405Y-83484270D01*
X167813387Y-83484254D01*
X167584317Y-83312775D01*
X167584309Y-83312770D01*
X167333166Y-83175635D01*
X167333167Y-83175635D01*
X167225915Y-83135632D01*
X167065046Y-83075631D01*
X167065043Y-83075630D01*
X167065037Y-83075628D01*
X166785433Y-83014804D01*
X166500001Y-82994390D01*
X166499999Y-82994390D01*
X166214566Y-83014804D01*
X165934962Y-83075628D01*
X165666833Y-83175635D01*
X165415690Y-83312770D01*
X165415682Y-83312775D01*
X165186612Y-83484254D01*
X165186594Y-83484270D01*
X164984270Y-83686594D01*
X164984254Y-83686612D01*
X164812775Y-83915682D01*
X164812770Y-83915690D01*
X164675635Y-84166833D01*
X164575628Y-84434962D01*
X164514804Y-84714566D01*
X164494390Y-84999998D01*
X164494390Y-85000001D01*
X161990658Y-85000001D01*
X159791367Y-82800710D01*
X159762006Y-82753983D01*
X159748236Y-82714631D01*
X159725789Y-82650478D01*
X159711223Y-82627297D01*
X159629815Y-82497737D01*
X159502262Y-82370184D01*
X159349523Y-82274211D01*
X159179254Y-82214631D01*
X159179249Y-82214630D01*
X159000004Y-82194435D01*
X158999996Y-82194435D01*
X158820750Y-82214630D01*
X158820745Y-82214631D01*
X158650476Y-82274211D01*
X158497737Y-82370184D01*
X158370184Y-82497737D01*
X158274211Y-82650476D01*
X158214631Y-82820745D01*
X158214630Y-82820750D01*
X158194435Y-82999996D01*
X158194435Y-83000003D01*
X158214630Y-83179249D01*
X158214631Y-83179254D01*
X158274211Y-83349523D01*
X158315122Y-83414632D01*
X158370184Y-83502262D01*
X158497738Y-83629816D01*
X158576410Y-83679249D01*
X158646766Y-83723457D01*
X158650478Y-83725789D01*
X158753984Y-83762007D01*
X158800710Y-83791367D01*
X165043181Y-90033838D01*
X165076666Y-90095161D01*
X165079500Y-90121519D01*
X165079500Y-93777288D01*
X165059815Y-93844327D01*
X165026624Y-93878863D01*
X164908594Y-93961508D01*
X164741505Y-94128597D01*
X164611575Y-94314158D01*
X164556998Y-94357783D01*
X164487500Y-94364977D01*
X164425145Y-94333454D01*
X164408425Y-94314158D01*
X164278494Y-94128597D01*
X164111402Y-93961506D01*
X164111395Y-93961501D01*
X163917834Y-93825967D01*
X163917830Y-93825965D01*
X163813442Y-93777288D01*
X163703663Y-93726097D01*
X163703659Y-93726096D01*
X163703655Y-93726094D01*
X163475413Y-93664938D01*
X163475403Y-93664936D01*
X163240001Y-93644341D01*
X163239999Y-93644341D01*
X163004596Y-93664936D01*
X163004586Y-93664938D01*
X162776344Y-93726094D01*
X162776335Y-93726098D01*
X162562171Y-93825964D01*
X162562169Y-93825965D01*
X162368597Y-93961505D01*
X162201505Y-94128597D01*
X162071575Y-94314158D01*
X162016998Y-94357783D01*
X161947500Y-94364977D01*
X161885145Y-94333454D01*
X161868425Y-94314158D01*
X161738494Y-94128597D01*
X161571402Y-93961506D01*
X161571395Y-93961501D01*
X161377834Y-93825967D01*
X161377830Y-93825965D01*
X161273442Y-93777288D01*
X161163663Y-93726097D01*
X161163659Y-93726096D01*
X161163655Y-93726094D01*
X160935413Y-93664938D01*
X160935403Y-93664936D01*
X160700001Y-93644341D01*
X160699999Y-93644341D01*
X160464596Y-93664936D01*
X160464586Y-93664938D01*
X160236344Y-93726094D01*
X160236335Y-93726098D01*
X160022171Y-93825964D01*
X160022169Y-93825965D01*
X159828597Y-93961505D01*
X159661505Y-94128597D01*
X159531575Y-94314158D01*
X159476998Y-94357783D01*
X159407500Y-94364977D01*
X159345145Y-94333454D01*
X159328425Y-94314158D01*
X159198494Y-94128597D01*
X159031402Y-93961506D01*
X159031395Y-93961501D01*
X158837834Y-93825967D01*
X158837830Y-93825965D01*
X158733442Y-93777288D01*
X158623663Y-93726097D01*
X158623659Y-93726096D01*
X158623655Y-93726094D01*
X158395413Y-93664938D01*
X158395403Y-93664936D01*
X158160001Y-93644341D01*
X158159999Y-93644341D01*
X157924596Y-93664936D01*
X157924586Y-93664938D01*
X157744360Y-93713229D01*
X157674510Y-93711566D01*
X157616648Y-93672403D01*
X157589144Y-93608174D01*
X157588267Y-93593454D01*
X157588267Y-87703752D01*
X157607952Y-87636713D01*
X157624586Y-87616071D01*
X157649290Y-87591367D01*
X157696016Y-87562006D01*
X157799522Y-87525789D01*
X157952262Y-87429816D01*
X158079816Y-87302262D01*
X158175789Y-87149522D01*
X158235368Y-86979255D01*
X158242530Y-86915690D01*
X158255565Y-86800003D01*
X158255565Y-86799996D01*
X158235369Y-86620750D01*
X158235366Y-86620737D01*
X158175790Y-86450479D01*
X158169506Y-86440478D01*
X158150500Y-86374507D01*
X158150500Y-84625493D01*
X158169508Y-84559519D01*
X158175787Y-84549525D01*
X158175786Y-84549525D01*
X158175789Y-84549522D01*
X158235368Y-84379255D01*
X158235369Y-84379249D01*
X158255565Y-84200003D01*
X158255565Y-84199996D01*
X158235369Y-84020750D01*
X158235368Y-84020745D01*
X158231836Y-84010651D01*
X158175789Y-83850478D01*
X158175188Y-83849522D01*
X158109158Y-83744435D01*
X158079816Y-83697738D01*
X157952262Y-83570184D01*
X157799523Y-83474211D01*
X157629254Y-83414631D01*
X157629249Y-83414630D01*
X157450004Y-83394435D01*
X157449996Y-83394435D01*
X157270750Y-83414630D01*
X157270745Y-83414631D01*
X157100476Y-83474211D01*
X156947737Y-83570184D01*
X156820184Y-83697737D01*
X156724211Y-83850476D01*
X156664631Y-84020745D01*
X156664630Y-84020750D01*
X156644435Y-84199996D01*
X156644435Y-84200003D01*
X156664630Y-84379249D01*
X156664631Y-84379254D01*
X156724212Y-84549525D01*
X156730492Y-84559519D01*
X156749500Y-84625493D01*
X156749500Y-86374507D01*
X156730494Y-86440478D01*
X156724209Y-86450479D01*
X156687992Y-86553983D01*
X156658632Y-86600709D01*
X156343654Y-86915687D01*
X156266989Y-87030425D01*
X156214188Y-87157900D01*
X156214185Y-87157912D01*
X156187538Y-87291876D01*
X156187532Y-87291911D01*
X156187267Y-87293241D01*
X156187267Y-93592257D01*
X156167582Y-93659296D01*
X156114778Y-93705051D01*
X156045620Y-93714995D01*
X156031174Y-93712032D01*
X155855413Y-93664938D01*
X155855403Y-93664936D01*
X155620001Y-93644341D01*
X155619999Y-93644341D01*
X155384596Y-93664936D01*
X155384586Y-93664938D01*
X155156344Y-93726094D01*
X155156335Y-93726098D01*
X154942171Y-93825964D01*
X154942169Y-93825965D01*
X154748597Y-93961505D01*
X154581505Y-94128597D01*
X154451575Y-94314158D01*
X154396998Y-94357783D01*
X154327500Y-94364977D01*
X154265145Y-94333454D01*
X154248425Y-94314158D01*
X154118494Y-94128597D01*
X153951402Y-93961506D01*
X153951395Y-93961501D01*
X153757834Y-93825967D01*
X153757830Y-93825965D01*
X153653442Y-93777288D01*
X153543663Y-93726097D01*
X153543659Y-93726096D01*
X153543655Y-93726094D01*
X153315413Y-93664938D01*
X153315403Y-93664936D01*
X153080001Y-93644341D01*
X153079999Y-93644341D01*
X152844596Y-93664936D01*
X152844586Y-93664938D01*
X152616344Y-93726094D01*
X152616335Y-93726098D01*
X152402171Y-93825964D01*
X152402169Y-93825965D01*
X152208597Y-93961505D01*
X152041505Y-94128597D01*
X151911575Y-94314158D01*
X151856998Y-94357783D01*
X151787500Y-94364977D01*
X151725145Y-94333454D01*
X151708425Y-94314158D01*
X151578494Y-94128597D01*
X151411402Y-93961506D01*
X151411395Y-93961501D01*
X151217834Y-93825967D01*
X151217830Y-93825965D01*
X151113442Y-93777288D01*
X151003663Y-93726097D01*
X151003659Y-93726096D01*
X151003655Y-93726094D01*
X150775413Y-93664938D01*
X150775403Y-93664936D01*
X150540001Y-93644341D01*
X150539999Y-93644341D01*
X150304596Y-93664936D01*
X150304586Y-93664938D01*
X150076344Y-93726094D01*
X150076335Y-93726098D01*
X149862171Y-93825964D01*
X149862169Y-93825965D01*
X149668597Y-93961505D01*
X149501505Y-94128597D01*
X149371575Y-94314158D01*
X149316998Y-94357783D01*
X149247500Y-94364977D01*
X149185145Y-94333454D01*
X149168425Y-94314158D01*
X149038494Y-94128597D01*
X148871402Y-93961506D01*
X148871395Y-93961501D01*
X148677834Y-93825967D01*
X148677830Y-93825965D01*
X148573442Y-93777288D01*
X148463663Y-93726097D01*
X148463659Y-93726096D01*
X148463655Y-93726094D01*
X148235413Y-93664938D01*
X148235403Y-93664936D01*
X148000001Y-93644341D01*
X147999999Y-93644341D01*
X147764596Y-93664936D01*
X147764586Y-93664938D01*
X147536344Y-93726094D01*
X147536335Y-93726098D01*
X147322171Y-93825964D01*
X147322169Y-93825965D01*
X147128597Y-93961505D01*
X146961505Y-94128597D01*
X146831575Y-94314158D01*
X146776998Y-94357783D01*
X146707500Y-94364977D01*
X146645145Y-94333454D01*
X146628425Y-94314158D01*
X146498494Y-94128597D01*
X146331402Y-93961506D01*
X146331395Y-93961501D01*
X146137834Y-93825967D01*
X146137830Y-93825965D01*
X146033442Y-93777288D01*
X145923663Y-93726097D01*
X145923659Y-93726096D01*
X145923655Y-93726094D01*
X145695413Y-93664938D01*
X145695403Y-93664936D01*
X145460001Y-93644341D01*
X145459999Y-93644341D01*
X145224596Y-93664936D01*
X145224586Y-93664938D01*
X145026593Y-93717989D01*
X144956743Y-93716326D01*
X144898881Y-93677163D01*
X144871377Y-93612934D01*
X144870500Y-93598214D01*
X144870500Y-88750006D01*
X147329700Y-88750006D01*
X147348864Y-88981297D01*
X147348866Y-88981308D01*
X147405842Y-89206300D01*
X147499075Y-89418848D01*
X147626016Y-89613147D01*
X147626019Y-89613151D01*
X147626021Y-89613153D01*
X147783216Y-89783913D01*
X147783219Y-89783915D01*
X147783222Y-89783918D01*
X147966365Y-89926464D01*
X147966371Y-89926468D01*
X147966374Y-89926470D01*
X148170497Y-90036936D01*
X148283203Y-90075628D01*
X148390015Y-90112297D01*
X148390017Y-90112297D01*
X148390019Y-90112298D01*
X148618951Y-90150500D01*
X148618952Y-90150500D01*
X148851048Y-90150500D01*
X148851049Y-90150500D01*
X149079981Y-90112298D01*
X149299503Y-90036936D01*
X149503626Y-89926470D01*
X149686784Y-89783913D01*
X149695130Y-89774846D01*
X149755010Y-89738854D01*
X149824849Y-89740949D01*
X149882468Y-89780469D01*
X149902544Y-89815491D01*
X149931203Y-89892330D01*
X149931206Y-89892335D01*
X150017452Y-90007544D01*
X150017455Y-90007547D01*
X150132664Y-90093793D01*
X150132671Y-90093797D01*
X150267517Y-90144091D01*
X150267516Y-90144091D01*
X150274444Y-90144835D01*
X150327127Y-90150500D01*
X152222872Y-90150499D01*
X152282483Y-90144091D01*
X152417331Y-90093796D01*
X152532546Y-90007546D01*
X152618796Y-89892331D01*
X152669091Y-89757483D01*
X152675500Y-89697873D01*
X152675499Y-87802128D01*
X152669091Y-87742517D01*
X152659233Y-87716087D01*
X152618797Y-87607671D01*
X152618793Y-87607664D01*
X152532547Y-87492455D01*
X152532544Y-87492452D01*
X152417335Y-87406206D01*
X152417328Y-87406202D01*
X152282482Y-87355908D01*
X152282483Y-87355908D01*
X152222883Y-87349501D01*
X152222881Y-87349500D01*
X152222873Y-87349500D01*
X152222864Y-87349500D01*
X150327129Y-87349500D01*
X150327123Y-87349501D01*
X150267516Y-87355908D01*
X150132671Y-87406202D01*
X150132664Y-87406206D01*
X150017455Y-87492452D01*
X150017452Y-87492455D01*
X149931206Y-87607664D01*
X149931203Y-87607670D01*
X149902544Y-87684508D01*
X149860672Y-87740441D01*
X149795208Y-87764858D01*
X149726935Y-87750006D01*
X149695135Y-87725158D01*
X149686784Y-87716087D01*
X149686778Y-87716082D01*
X149686777Y-87716081D01*
X149503634Y-87573535D01*
X149503628Y-87573531D01*
X149299504Y-87463064D01*
X149299495Y-87463061D01*
X149079984Y-87387702D01*
X148889450Y-87355908D01*
X148851049Y-87349500D01*
X148618951Y-87349500D01*
X148580550Y-87355908D01*
X148390015Y-87387702D01*
X148170504Y-87463061D01*
X148170495Y-87463064D01*
X147966371Y-87573531D01*
X147966365Y-87573535D01*
X147783222Y-87716081D01*
X147783219Y-87716084D01*
X147783216Y-87716086D01*
X147783216Y-87716087D01*
X147738319Y-87764858D01*
X147626016Y-87886852D01*
X147499075Y-88081151D01*
X147405842Y-88293699D01*
X147348866Y-88518691D01*
X147348864Y-88518702D01*
X147329700Y-88749993D01*
X147329700Y-88750006D01*
X144870500Y-88750006D01*
X144870500Y-84101004D01*
X144843581Y-83965677D01*
X144843580Y-83965676D01*
X144843580Y-83965672D01*
X144795865Y-83850478D01*
X144790776Y-83838191D01*
X144781435Y-83824211D01*
X144741626Y-83764632D01*
X144739871Y-83762006D01*
X144714112Y-83723454D01*
X144714109Y-83723451D01*
X144291367Y-83300710D01*
X144262006Y-83253983D01*
X144248236Y-83214631D01*
X144225789Y-83150478D01*
X144129816Y-82997738D01*
X144002262Y-82870184D01*
X143849523Y-82774211D01*
X143679254Y-82714631D01*
X143679249Y-82714630D01*
X143500004Y-82694435D01*
X143499996Y-82694435D01*
X143320750Y-82714630D01*
X143320745Y-82714631D01*
X143150476Y-82774211D01*
X142997737Y-82870184D01*
X142870184Y-82997737D01*
X142774211Y-83150476D01*
X142714631Y-83320745D01*
X142714630Y-83320750D01*
X142694435Y-83499996D01*
X142694435Y-83500003D01*
X142714630Y-83679249D01*
X142714631Y-83679254D01*
X142774211Y-83849523D01*
X142847190Y-83965667D01*
X142870184Y-84002262D01*
X142997738Y-84129816D01*
X143076410Y-84179249D01*
X143110192Y-84200476D01*
X143150478Y-84225789D01*
X143253984Y-84262007D01*
X143300710Y-84291367D01*
X143433181Y-84423838D01*
X143466666Y-84485161D01*
X143469500Y-84511519D01*
X143469500Y-93587496D01*
X143449815Y-93654535D01*
X143397011Y-93700290D01*
X143327853Y-93710234D01*
X143313408Y-93707271D01*
X143155416Y-93664939D01*
X143155412Y-93664938D01*
X143155408Y-93664937D01*
X143155406Y-93664936D01*
X143155403Y-93664936D01*
X142920001Y-93644341D01*
X142919999Y-93644341D01*
X142684596Y-93664936D01*
X142684586Y-93664938D01*
X142456344Y-93726094D01*
X142456335Y-93726098D01*
X142242171Y-93825964D01*
X142242169Y-93825965D01*
X142048597Y-93961505D01*
X141881505Y-94128597D01*
X141751575Y-94314158D01*
X141696998Y-94357783D01*
X141627500Y-94364977D01*
X141565145Y-94333454D01*
X141548425Y-94314158D01*
X141418494Y-94128597D01*
X141251402Y-93961506D01*
X141251395Y-93961501D01*
X141057834Y-93825967D01*
X141057830Y-93825965D01*
X140953442Y-93777288D01*
X140843663Y-93726097D01*
X140843659Y-93726096D01*
X140843655Y-93726094D01*
X140615413Y-93664938D01*
X140615403Y-93664936D01*
X140380001Y-93644341D01*
X140379999Y-93644341D01*
X140144596Y-93664936D01*
X140144586Y-93664938D01*
X139916344Y-93726094D01*
X139916335Y-93726098D01*
X139702171Y-93825964D01*
X139702169Y-93825965D01*
X139508597Y-93961505D01*
X139341505Y-94128597D01*
X139211575Y-94314158D01*
X139156998Y-94357783D01*
X139087500Y-94364977D01*
X139025145Y-94333454D01*
X139008425Y-94314158D01*
X138878494Y-94128597D01*
X138711402Y-93961506D01*
X138711395Y-93961501D01*
X138517834Y-93825967D01*
X138517830Y-93825965D01*
X138413442Y-93777288D01*
X138303663Y-93726097D01*
X138303659Y-93726096D01*
X138303655Y-93726094D01*
X138075413Y-93664938D01*
X138075403Y-93664936D01*
X137840001Y-93644341D01*
X137839999Y-93644341D01*
X137604596Y-93664936D01*
X137604586Y-93664938D01*
X137376344Y-93726094D01*
X137376335Y-93726098D01*
X137162171Y-93825964D01*
X137162169Y-93825965D01*
X136968597Y-93961505D01*
X136801505Y-94128597D01*
X136671575Y-94314158D01*
X136616998Y-94357783D01*
X136547500Y-94364977D01*
X136485145Y-94333454D01*
X136468425Y-94314158D01*
X136338494Y-94128597D01*
X136171402Y-93961506D01*
X136171395Y-93961501D01*
X135977834Y-93825967D01*
X135977830Y-93825965D01*
X135873442Y-93777288D01*
X135763663Y-93726097D01*
X135763659Y-93726096D01*
X135763655Y-93726094D01*
X135535413Y-93664938D01*
X135535403Y-93664936D01*
X135300001Y-93644341D01*
X135299999Y-93644341D01*
X135064596Y-93664936D01*
X135064586Y-93664938D01*
X134836344Y-93726094D01*
X134836335Y-93726098D01*
X134622171Y-93825964D01*
X134622169Y-93825965D01*
X134428597Y-93961505D01*
X134261505Y-94128597D01*
X134131575Y-94314158D01*
X134076998Y-94357783D01*
X134007500Y-94364977D01*
X133945145Y-94333454D01*
X133928425Y-94314158D01*
X133798494Y-94128597D01*
X133631404Y-93961508D01*
X133631402Y-93961506D01*
X133631401Y-93961505D01*
X133631396Y-93961501D01*
X133631393Y-93961499D01*
X133513376Y-93878861D01*
X133469751Y-93824284D01*
X133460500Y-93777287D01*
X133460500Y-88500003D01*
X139194435Y-88500003D01*
X139214630Y-88679249D01*
X139214631Y-88679254D01*
X139274211Y-88849523D01*
X139287392Y-88870500D01*
X139370184Y-89002262D01*
X139497738Y-89129816D01*
X139650478Y-89225789D01*
X139716157Y-89248771D01*
X139820745Y-89285368D01*
X139820750Y-89285369D01*
X139999996Y-89305565D01*
X140000000Y-89305565D01*
X140000004Y-89305565D01*
X140179249Y-89285369D01*
X140179252Y-89285368D01*
X140179255Y-89285368D01*
X140349522Y-89225789D01*
X140502262Y-89129816D01*
X140629816Y-89002262D01*
X140725789Y-88849522D01*
X140785368Y-88679255D01*
X140793957Y-88603024D01*
X140805565Y-88500003D01*
X140805565Y-88499996D01*
X140785369Y-88320750D01*
X140785366Y-88320737D01*
X140725790Y-88150479D01*
X140719506Y-88140478D01*
X140700500Y-88074507D01*
X140700500Y-86425493D01*
X140719508Y-86359519D01*
X140725787Y-86349525D01*
X140725786Y-86349525D01*
X140725789Y-86349522D01*
X140785368Y-86179255D01*
X140790814Y-86130923D01*
X140805565Y-86000003D01*
X140805565Y-85999996D01*
X140785369Y-85820750D01*
X140785368Y-85820745D01*
X140758716Y-85744579D01*
X140725789Y-85650478D01*
X140629816Y-85497738D01*
X140502262Y-85370184D01*
X140478996Y-85355565D01*
X140349523Y-85274211D01*
X140179254Y-85214631D01*
X140179249Y-85214630D01*
X140000004Y-85194435D01*
X139999996Y-85194435D01*
X139820750Y-85214630D01*
X139820745Y-85214631D01*
X139650476Y-85274211D01*
X139497737Y-85370184D01*
X139370184Y-85497737D01*
X139274211Y-85650476D01*
X139214631Y-85820745D01*
X139214630Y-85820750D01*
X139194435Y-85999996D01*
X139194435Y-86000003D01*
X139214630Y-86179249D01*
X139214631Y-86179254D01*
X139274212Y-86349525D01*
X139280492Y-86359519D01*
X139299500Y-86425493D01*
X139299500Y-88074507D01*
X139280494Y-88140478D01*
X139274209Y-88150479D01*
X139214633Y-88320737D01*
X139214630Y-88320750D01*
X139194435Y-88499996D01*
X139194435Y-88500003D01*
X133460500Y-88500003D01*
X133460500Y-88081519D01*
X133480185Y-88014480D01*
X133496819Y-87993838D01*
X139253838Y-82236819D01*
X139315161Y-82203334D01*
X139341519Y-82200500D01*
X151658481Y-82200500D01*
X151725520Y-82220185D01*
X151746162Y-82236819D01*
X153208630Y-83699287D01*
X153237990Y-83746013D01*
X153274209Y-83849519D01*
X153274211Y-83849522D01*
X153370184Y-84002262D01*
X153497738Y-84129816D01*
X153576410Y-84179249D01*
X153610192Y-84200476D01*
X153650478Y-84225789D01*
X153780695Y-84271354D01*
X153820745Y-84285368D01*
X153820750Y-84285369D01*
X153999996Y-84305565D01*
X154000000Y-84305565D01*
X154000004Y-84305565D01*
X154179249Y-84285369D01*
X154179252Y-84285368D01*
X154179255Y-84285368D01*
X154349522Y-84225789D01*
X154502262Y-84129816D01*
X154629816Y-84002262D01*
X154725789Y-83849522D01*
X154785368Y-83679255D01*
X154785369Y-83679249D01*
X154805565Y-83500003D01*
X154805565Y-83499996D01*
X154785369Y-83320750D01*
X154785368Y-83320745D01*
X154741170Y-83194435D01*
X154725789Y-83150478D01*
X154629816Y-82997738D01*
X154502262Y-82870184D01*
X154391695Y-82800710D01*
X154349519Y-82774209D01*
X154246013Y-82737990D01*
X154199287Y-82708630D01*
X152446546Y-80955888D01*
X152446545Y-80955887D01*
X152331807Y-80879222D01*
X152204332Y-80826421D01*
X152204322Y-80826418D01*
X152068996Y-80799500D01*
X152068994Y-80799500D01*
X152068993Y-80799500D01*
X139068994Y-80799500D01*
X138931006Y-80799500D01*
X138931004Y-80799500D01*
X138795677Y-80826418D01*
X138795667Y-80826421D01*
X138668192Y-80879222D01*
X138553454Y-80955887D01*
X132215887Y-87293454D01*
X132139223Y-87408192D01*
X132086421Y-87535668D01*
X132086418Y-87535680D01*
X132078889Y-87573531D01*
X132078889Y-87573532D01*
X132059500Y-87671004D01*
X132059500Y-89269481D01*
X132039815Y-89336520D01*
X131987011Y-89382275D01*
X131917853Y-89392219D01*
X131854297Y-89363194D01*
X131847819Y-89357162D01*
X126291367Y-83800710D01*
X126262006Y-83753983D01*
X126259217Y-83746013D01*
X126225789Y-83650478D01*
X126129816Y-83497738D01*
X126002262Y-83370184D01*
X125969379Y-83349522D01*
X125849523Y-83274211D01*
X125679254Y-83214631D01*
X125679249Y-83214630D01*
X125500004Y-83194435D01*
X125499996Y-83194435D01*
X125320750Y-83214630D01*
X125320745Y-83214631D01*
X125150476Y-83274211D01*
X124997737Y-83370184D01*
X124870184Y-83497737D01*
X124774211Y-83650476D01*
X124714631Y-83820745D01*
X124714630Y-83820750D01*
X124694435Y-83999996D01*
X124694435Y-84000003D01*
X124714630Y-84179249D01*
X124714631Y-84179254D01*
X124774211Y-84349523D01*
X124859439Y-84485161D01*
X124870184Y-84502262D01*
X124997738Y-84629816D01*
X125026961Y-84648178D01*
X125132721Y-84714632D01*
X125150478Y-84725789D01*
X125253984Y-84762007D01*
X125300710Y-84791367D01*
X132023181Y-91513837D01*
X132056666Y-91575160D01*
X132059500Y-91601518D01*
X132059500Y-93777288D01*
X132039815Y-93844327D01*
X132006624Y-93878863D01*
X131888594Y-93961508D01*
X131721505Y-94128597D01*
X131585965Y-94322169D01*
X131585964Y-94322171D01*
X131486098Y-94536335D01*
X131486094Y-94536344D01*
X131424938Y-94764586D01*
X131424936Y-94764596D01*
X131404341Y-94999999D01*
X131404341Y-95000000D01*
X131424936Y-95235403D01*
X131424938Y-95235413D01*
X131486094Y-95463655D01*
X131486096Y-95463659D01*
X131486097Y-95463663D01*
X131566004Y-95635023D01*
X131585965Y-95677830D01*
X131585967Y-95677834D01*
X131688569Y-95824364D01*
X131721505Y-95871401D01*
X131888599Y-96038495D01*
X132055439Y-96155318D01*
X132074594Y-96168730D01*
X132118219Y-96223307D01*
X132125413Y-96292805D01*
X132093890Y-96355160D01*
X132074595Y-96371880D01*
X131888922Y-96501890D01*
X131888920Y-96501891D01*
X131721891Y-96668920D01*
X131721886Y-96668926D01*
X131586400Y-96862420D01*
X131586399Y-96862422D01*
X131486570Y-97076507D01*
X131486567Y-97076513D01*
X131429364Y-97289999D01*
X131429364Y-97290000D01*
X132326988Y-97290000D01*
X132294075Y-97347007D01*
X132260000Y-97474174D01*
X132260000Y-97605826D01*
X132294075Y-97732993D01*
X132326988Y-97790000D01*
X131429364Y-97790000D01*
X131467790Y-97933406D01*
X131466127Y-98003256D01*
X131426965Y-98061119D01*
X131362736Y-98088623D01*
X131348015Y-98089500D01*
X130631519Y-98089500D01*
X130564480Y-98069815D01*
X130543838Y-98053181D01*
X128791367Y-96300710D01*
X128762006Y-96253983D01*
X128759284Y-96246204D01*
X128725789Y-96150478D01*
X128629816Y-95997738D01*
X128502262Y-95870184D01*
X128429340Y-95824364D01*
X128349523Y-95774211D01*
X128179254Y-95714631D01*
X128179249Y-95714630D01*
X128000004Y-95694435D01*
X127999996Y-95694435D01*
X127820750Y-95714630D01*
X127820745Y-95714631D01*
X127650476Y-95774211D01*
X127497737Y-95870184D01*
X127370184Y-95997737D01*
X127274211Y-96150476D01*
X127214631Y-96320745D01*
X127214630Y-96320750D01*
X127194435Y-96499996D01*
X127194435Y-96500003D01*
X127214630Y-96679249D01*
X127214631Y-96679254D01*
X127274211Y-96849523D01*
X127335175Y-96946546D01*
X127370184Y-97002262D01*
X127497738Y-97129816D01*
X127576410Y-97179249D01*
X127639079Y-97218627D01*
X127650478Y-97225789D01*
X127753984Y-97262007D01*
X127800710Y-97291367D01*
X129843453Y-99334111D01*
X129843454Y-99334112D01*
X129958192Y-99410777D01*
X130085667Y-99463578D01*
X130085672Y-99463580D01*
X130085676Y-99463580D01*
X130085677Y-99463581D01*
X130221003Y-99490500D01*
X130221006Y-99490500D01*
X149358996Y-99490500D01*
X149450040Y-99472389D01*
X149494328Y-99463580D01*
X149558069Y-99437177D01*
X149621807Y-99410777D01*
X149621808Y-99410776D01*
X149621811Y-99410775D01*
X149736543Y-99334114D01*
X150168007Y-98902648D01*
X150229326Y-98869166D01*
X150287778Y-98870557D01*
X150304592Y-98875063D01*
X150492918Y-98891539D01*
X150539999Y-98895659D01*
X150540000Y-98895659D01*
X150540001Y-98895659D01*
X150579234Y-98892226D01*
X150775408Y-98875063D01*
X151003663Y-98813903D01*
X151217830Y-98714035D01*
X151411401Y-98578495D01*
X151578495Y-98411401D01*
X151708425Y-98225842D01*
X151763002Y-98182217D01*
X151832500Y-98175023D01*
X151894855Y-98206546D01*
X151911575Y-98225842D01*
X152041281Y-98411082D01*
X152041505Y-98411401D01*
X152208599Y-98578495D01*
X152305384Y-98646265D01*
X152402165Y-98714032D01*
X152402167Y-98714033D01*
X152402170Y-98714035D01*
X152616337Y-98813903D01*
X152844592Y-98875063D01*
X153032918Y-98891539D01*
X153079999Y-98895659D01*
X153080000Y-98895659D01*
X153080001Y-98895659D01*
X153119234Y-98892226D01*
X153315408Y-98875063D01*
X153543663Y-98813903D01*
X153757830Y-98714035D01*
X153951401Y-98578495D01*
X154118495Y-98411401D01*
X154248730Y-98225405D01*
X154303307Y-98181781D01*
X154372805Y-98174587D01*
X154435160Y-98206110D01*
X154451879Y-98225405D01*
X154581890Y-98411078D01*
X154748917Y-98578105D01*
X154942421Y-98713600D01*
X155156507Y-98813429D01*
X155156516Y-98813433D01*
X155370000Y-98870634D01*
X155370000Y-97973012D01*
X155427007Y-98005925D01*
X155554174Y-98040000D01*
X155685826Y-98040000D01*
X155812993Y-98005925D01*
X155870000Y-97973012D01*
X155870000Y-98870633D01*
X156083483Y-98813433D01*
X156083492Y-98813429D01*
X156297578Y-98713600D01*
X156491082Y-98578105D01*
X156658105Y-98411082D01*
X156788119Y-98225405D01*
X156842696Y-98181781D01*
X156912195Y-98174588D01*
X156974549Y-98206110D01*
X156991269Y-98225405D01*
X157121505Y-98411401D01*
X157288599Y-98578495D01*
X157385384Y-98646265D01*
X157482165Y-98714032D01*
X157482167Y-98714033D01*
X157482170Y-98714035D01*
X157696337Y-98813903D01*
X157924592Y-98875063D01*
X158112918Y-98891539D01*
X158159999Y-98895659D01*
X158160000Y-98895659D01*
X158160001Y-98895659D01*
X158199234Y-98892226D01*
X158395408Y-98875063D01*
X158623663Y-98813903D01*
X158837830Y-98714035D01*
X159031401Y-98578495D01*
X159198495Y-98411401D01*
X159328425Y-98225842D01*
X159383002Y-98182217D01*
X159452500Y-98175023D01*
X159514855Y-98206546D01*
X159531575Y-98225842D01*
X159661281Y-98411082D01*
X159661505Y-98411401D01*
X159828599Y-98578495D01*
X159925384Y-98646265D01*
X160022165Y-98714032D01*
X160022167Y-98714033D01*
X160022170Y-98714035D01*
X160236337Y-98813903D01*
X160464592Y-98875063D01*
X160652918Y-98891539D01*
X160699999Y-98895659D01*
X160700000Y-98895659D01*
X160700001Y-98895659D01*
X160739234Y-98892226D01*
X160935408Y-98875063D01*
X160952216Y-98870559D01*
X161022064Y-98872218D01*
X161071994Y-98902651D01*
X161957161Y-99787819D01*
X161990646Y-99849142D01*
X161985662Y-99918834D01*
X161943790Y-99974767D01*
X161878326Y-99999184D01*
X161869480Y-99999500D01*
X114124500Y-99999500D01*
X114057461Y-99979815D01*
X114011706Y-99927011D01*
X114000500Y-99875500D01*
X114000500Y-97000003D01*
X121194435Y-97000003D01*
X121214630Y-97179249D01*
X121214631Y-97179254D01*
X121274211Y-97349523D01*
X121314725Y-97414000D01*
X121370184Y-97502262D01*
X121497738Y-97629816D01*
X121576410Y-97679249D01*
X121650474Y-97725787D01*
X121650478Y-97725789D01*
X121708275Y-97746013D01*
X121820745Y-97785368D01*
X121820750Y-97785369D01*
X121999996Y-97805565D01*
X122000000Y-97805565D01*
X122000004Y-97805565D01*
X122179249Y-97785369D01*
X122179252Y-97785368D01*
X122179255Y-97785368D01*
X122349522Y-97725789D01*
X122350488Y-97725181D01*
X122359523Y-97719506D01*
X122425494Y-97700500D01*
X124074506Y-97700500D01*
X124140477Y-97719506D01*
X124150474Y-97725787D01*
X124150475Y-97725787D01*
X124150478Y-97725789D01*
X124292281Y-97775408D01*
X124320745Y-97785368D01*
X124320750Y-97785369D01*
X124499996Y-97805565D01*
X124500000Y-97805565D01*
X124500004Y-97805565D01*
X124679249Y-97785369D01*
X124679252Y-97785368D01*
X124679255Y-97785368D01*
X124849522Y-97725789D01*
X125002262Y-97629816D01*
X125129816Y-97502262D01*
X125225789Y-97349522D01*
X125285368Y-97179255D01*
X125285369Y-97179249D01*
X125305565Y-97000003D01*
X125305565Y-96999996D01*
X125285369Y-96820750D01*
X125285368Y-96820745D01*
X125244630Y-96704322D01*
X125225789Y-96650478D01*
X125220542Y-96642128D01*
X125174589Y-96568994D01*
X125129816Y-96497738D01*
X125002262Y-96370184D01*
X124979146Y-96355659D01*
X124849523Y-96274211D01*
X124679254Y-96214631D01*
X124679249Y-96214630D01*
X124500004Y-96194435D01*
X124499996Y-96194435D01*
X124320750Y-96214630D01*
X124320745Y-96214631D01*
X124150474Y-96274212D01*
X124140477Y-96280494D01*
X124074506Y-96299500D01*
X122425494Y-96299500D01*
X122359523Y-96280494D01*
X122349525Y-96274212D01*
X122179254Y-96214631D01*
X122179249Y-96214630D01*
X122000004Y-96194435D01*
X121999996Y-96194435D01*
X121820750Y-96214630D01*
X121820745Y-96214631D01*
X121650476Y-96274211D01*
X121497737Y-96370184D01*
X121370184Y-96497737D01*
X121274211Y-96650476D01*
X121214631Y-96820745D01*
X121214630Y-96820750D01*
X121194435Y-96999996D01*
X121194435Y-97000003D01*
X114000500Y-97000003D01*
X114000500Y-92000001D01*
X115494390Y-92000001D01*
X115514804Y-92285433D01*
X115575628Y-92565037D01*
X115575630Y-92565043D01*
X115575631Y-92565046D01*
X115620973Y-92686612D01*
X115675635Y-92833166D01*
X115812770Y-93084309D01*
X115812775Y-93084317D01*
X115984254Y-93313387D01*
X115984270Y-93313405D01*
X116186594Y-93515729D01*
X116186612Y-93515745D01*
X116415682Y-93687224D01*
X116415690Y-93687229D01*
X116666833Y-93824364D01*
X116666832Y-93824364D01*
X116666836Y-93824365D01*
X116666839Y-93824367D01*
X116934954Y-93924369D01*
X116934960Y-93924370D01*
X116934962Y-93924371D01*
X117214566Y-93985195D01*
X117214568Y-93985195D01*
X117214572Y-93985196D01*
X117468220Y-94003337D01*
X117499999Y-94005610D01*
X117500000Y-94005610D01*
X117500001Y-94005610D01*
X117528595Y-94003564D01*
X117785428Y-93985196D01*
X117894321Y-93961508D01*
X118065037Y-93924371D01*
X118065037Y-93924370D01*
X118065046Y-93924369D01*
X118333161Y-93824367D01*
X118584315Y-93687226D01*
X118813395Y-93515739D01*
X119015739Y-93313395D01*
X119187226Y-93084315D01*
X119324367Y-92833161D01*
X119424369Y-92565046D01*
X119485196Y-92285428D01*
X119505610Y-92000000D01*
X119485196Y-91714572D01*
X119424369Y-91434954D01*
X119324367Y-91166839D01*
X119187226Y-90915685D01*
X119175858Y-90900499D01*
X119015745Y-90686612D01*
X119015729Y-90686594D01*
X118813405Y-90484270D01*
X118813387Y-90484254D01*
X118584317Y-90312775D01*
X118584309Y-90312770D01*
X118333166Y-90175635D01*
X118333167Y-90175635D01*
X118188076Y-90121519D01*
X118065046Y-90075631D01*
X118065043Y-90075630D01*
X118065037Y-90075628D01*
X117785433Y-90014804D01*
X117500001Y-89994390D01*
X117499999Y-89994390D01*
X117214566Y-90014804D01*
X116934962Y-90075628D01*
X116666833Y-90175635D01*
X116415690Y-90312770D01*
X116415682Y-90312775D01*
X116186612Y-90484254D01*
X116186594Y-90484270D01*
X115984270Y-90686594D01*
X115984254Y-90686612D01*
X115812775Y-90915682D01*
X115812770Y-90915690D01*
X115675635Y-91166833D01*
X115575628Y-91434962D01*
X115514804Y-91714566D01*
X115494390Y-91999998D01*
X115494390Y-92000001D01*
X114000500Y-92000001D01*
X114000500Y-87540000D01*
X114894785Y-87540000D01*
X114913602Y-87743082D01*
X114969417Y-87939247D01*
X114969422Y-87939260D01*
X115060327Y-88121821D01*
X115183237Y-88284581D01*
X115333958Y-88421980D01*
X115333960Y-88421982D01*
X115433141Y-88483392D01*
X115507363Y-88529348D01*
X115697544Y-88603024D01*
X115898024Y-88640500D01*
X115898026Y-88640500D01*
X116101974Y-88640500D01*
X116101976Y-88640500D01*
X116302456Y-88603024D01*
X116492637Y-88529348D01*
X116666041Y-88421981D01*
X116724163Y-88368996D01*
X120099499Y-88368996D01*
X120126418Y-88504322D01*
X120126421Y-88504332D01*
X120179222Y-88631807D01*
X120255887Y-88746545D01*
X120553454Y-89044112D01*
X120668192Y-89120777D01*
X120795667Y-89173578D01*
X120795672Y-89173580D01*
X120795676Y-89173580D01*
X120795677Y-89173581D01*
X120931003Y-89200500D01*
X120931006Y-89200500D01*
X120931007Y-89200500D01*
X124142923Y-89200500D01*
X124209962Y-89220185D01*
X124255717Y-89272989D01*
X124265661Y-89342147D01*
X124259965Y-89365455D01*
X124214631Y-89495009D01*
X124214630Y-89495014D01*
X124194435Y-89674260D01*
X124194435Y-89674267D01*
X124214630Y-89853513D01*
X124214631Y-89853518D01*
X124274211Y-90023787D01*
X124353830Y-90150499D01*
X124370184Y-90176526D01*
X124497738Y-90304080D01*
X124650478Y-90400053D01*
X124820745Y-90459632D01*
X124820750Y-90459633D01*
X124999996Y-90479829D01*
X125000000Y-90479829D01*
X125000004Y-90479829D01*
X125179249Y-90459633D01*
X125179252Y-90459632D01*
X125179255Y-90459632D01*
X125349522Y-90400053D01*
X125502262Y-90304080D01*
X125629816Y-90176526D01*
X125725789Y-90023786D01*
X125785368Y-89853519D01*
X125793210Y-89783918D01*
X125805565Y-89674267D01*
X125805565Y-89674260D01*
X125785369Y-89495014D01*
X125785366Y-89495001D01*
X125725790Y-89324743D01*
X125719506Y-89314742D01*
X125700500Y-89248771D01*
X125700500Y-88431004D01*
X125699903Y-88424942D01*
X125702092Y-88424726D01*
X125707438Y-88364987D01*
X125750301Y-88309810D01*
X125816190Y-88286565D01*
X125836712Y-88287167D01*
X125999997Y-88305565D01*
X126000000Y-88305565D01*
X126000004Y-88305565D01*
X126179249Y-88285369D01*
X126179252Y-88285368D01*
X126179255Y-88285368D01*
X126349522Y-88225789D01*
X126502262Y-88129816D01*
X126629816Y-88002262D01*
X126725789Y-87849522D01*
X126785368Y-87679255D01*
X126785369Y-87679249D01*
X126805565Y-87500003D01*
X126805565Y-87499996D01*
X126785369Y-87320750D01*
X126785368Y-87320745D01*
X126725789Y-87150478D01*
X126725188Y-87149522D01*
X126686582Y-87088080D01*
X126629816Y-86997738D01*
X126502262Y-86870184D01*
X126390570Y-86800003D01*
X126349523Y-86774211D01*
X126179254Y-86714631D01*
X126179249Y-86714630D01*
X126000004Y-86694435D01*
X125999996Y-86694435D01*
X125820750Y-86714630D01*
X125820745Y-86714631D01*
X125650474Y-86774212D01*
X125640477Y-86780494D01*
X125574506Y-86799500D01*
X121925494Y-86799500D01*
X121859523Y-86780494D01*
X121849524Y-86774211D01*
X121679249Y-86714630D01*
X121610616Y-86706897D01*
X121546202Y-86679830D01*
X121506647Y-86622235D01*
X121500500Y-86583677D01*
X121500500Y-86182940D01*
X121520185Y-86115901D01*
X121536819Y-86095259D01*
X121569056Y-86063022D01*
X121629816Y-86002262D01*
X121725789Y-85849522D01*
X121785368Y-85679255D01*
X121785369Y-85679249D01*
X121805565Y-85500003D01*
X121805565Y-85499996D01*
X121785369Y-85320750D01*
X121785368Y-85320745D01*
X121769637Y-85275788D01*
X121725789Y-85150478D01*
X121629816Y-84997738D01*
X121502262Y-84870184D01*
X121349523Y-84774211D01*
X121179254Y-84714631D01*
X121179249Y-84714630D01*
X121000004Y-84694435D01*
X120999996Y-84694435D01*
X120820750Y-84714630D01*
X120820745Y-84714631D01*
X120650476Y-84774211D01*
X120497737Y-84870184D01*
X120370184Y-84997737D01*
X120274212Y-85150475D01*
X120274211Y-85150476D01*
X120223902Y-85294249D01*
X120209965Y-85322182D01*
X120179226Y-85368187D01*
X120179221Y-85368196D01*
X120126421Y-85495668D01*
X120126421Y-85495669D01*
X120126420Y-85495672D01*
X120112621Y-85565046D01*
X120112621Y-85565047D01*
X120099848Y-85629260D01*
X120099500Y-85631007D01*
X120099500Y-88231006D01*
X120099500Y-88368994D01*
X120099500Y-88368996D01*
X120099499Y-88368996D01*
X116724163Y-88368996D01*
X116813925Y-88287167D01*
X116816762Y-88284581D01*
X116857220Y-88231006D01*
X116939673Y-88121821D01*
X117030582Y-87939250D01*
X117086397Y-87743083D01*
X117105215Y-87540000D01*
X117086397Y-87336917D01*
X117030582Y-87140750D01*
X116939673Y-86958179D01*
X116820219Y-86799996D01*
X116816762Y-86795418D01*
X116666041Y-86658019D01*
X116666039Y-86658017D01*
X116492642Y-86550655D01*
X116492635Y-86550651D01*
X116397546Y-86513814D01*
X116302456Y-86476976D01*
X116101976Y-86439500D01*
X115898024Y-86439500D01*
X115697544Y-86476976D01*
X115697541Y-86476976D01*
X115697541Y-86476977D01*
X115507364Y-86550651D01*
X115507357Y-86550655D01*
X115333960Y-86658017D01*
X115333958Y-86658019D01*
X115183237Y-86795418D01*
X115060327Y-86958178D01*
X114969422Y-87140739D01*
X114969417Y-87140752D01*
X114913602Y-87336917D01*
X114894785Y-87539999D01*
X114894785Y-87540000D01*
X114000500Y-87540000D01*
X114000500Y-85000000D01*
X114894785Y-85000000D01*
X114913602Y-85203082D01*
X114969417Y-85399247D01*
X114969422Y-85399260D01*
X115060327Y-85581821D01*
X115183237Y-85744581D01*
X115333958Y-85881980D01*
X115333960Y-85881982D01*
X115433141Y-85943392D01*
X115507363Y-85989348D01*
X115697544Y-86063024D01*
X115898024Y-86100500D01*
X115898026Y-86100500D01*
X116101974Y-86100500D01*
X116101976Y-86100500D01*
X116302456Y-86063024D01*
X116492637Y-85989348D01*
X116666041Y-85881981D01*
X116816764Y-85744579D01*
X116939673Y-85581821D01*
X117030582Y-85399250D01*
X117086397Y-85203083D01*
X117105215Y-85000000D01*
X117086397Y-84796917D01*
X117030582Y-84600750D01*
X117025114Y-84589769D01*
X116960575Y-84460157D01*
X116939673Y-84418179D01*
X116816764Y-84255421D01*
X116816762Y-84255418D01*
X116666041Y-84118019D01*
X116666039Y-84118017D01*
X116492642Y-84010655D01*
X116492635Y-84010651D01*
X116376529Y-83965672D01*
X116302456Y-83936976D01*
X116101976Y-83899500D01*
X115898024Y-83899500D01*
X115697544Y-83936976D01*
X115697541Y-83936976D01*
X115697541Y-83936977D01*
X115507364Y-84010651D01*
X115507357Y-84010655D01*
X115333960Y-84118017D01*
X115333958Y-84118019D01*
X115183237Y-84255418D01*
X115060327Y-84418178D01*
X114969422Y-84600739D01*
X114969417Y-84600752D01*
X114913602Y-84796917D01*
X114894785Y-84999999D01*
X114894785Y-85000000D01*
X114000500Y-85000000D01*
X114000500Y-81265006D01*
X125344700Y-81265006D01*
X125363864Y-81496297D01*
X125363866Y-81496308D01*
X125420842Y-81721300D01*
X125514075Y-81933848D01*
X125641016Y-82128147D01*
X125641019Y-82128151D01*
X125641021Y-82128153D01*
X125798216Y-82298913D01*
X125798219Y-82298915D01*
X125798222Y-82298918D01*
X125981365Y-82441464D01*
X125981371Y-82441468D01*
X125981374Y-82441470D01*
X126185497Y-82551936D01*
X126299487Y-82591068D01*
X126405015Y-82627297D01*
X126405017Y-82627297D01*
X126405019Y-82627298D01*
X126633951Y-82665500D01*
X126633952Y-82665500D01*
X126866048Y-82665500D01*
X126866049Y-82665500D01*
X127094981Y-82627298D01*
X127314503Y-82551936D01*
X127518626Y-82441470D01*
X127701784Y-82298913D01*
X127858979Y-82128153D01*
X127985924Y-81933849D01*
X128079157Y-81721300D01*
X128136134Y-81496305D01*
X128155300Y-81265000D01*
X128155300Y-81264993D01*
X128136135Y-81033702D01*
X128136133Y-81033691D01*
X128079157Y-80808699D01*
X127985924Y-80596151D01*
X127858983Y-80401852D01*
X127858980Y-80401849D01*
X127858979Y-80401847D01*
X127764195Y-80298884D01*
X127733275Y-80236232D01*
X127741135Y-80166806D01*
X127785283Y-80112651D01*
X127812095Y-80098722D01*
X127892326Y-80068798D01*
X127892326Y-80068797D01*
X127892331Y-80068796D01*
X128007546Y-79982546D01*
X128093796Y-79867331D01*
X128144091Y-79732483D01*
X128150500Y-79672873D01*
X128150499Y-78700000D01*
X154024785Y-78700000D01*
X154043602Y-78903082D01*
X154099417Y-79099247D01*
X154099422Y-79099260D01*
X154190327Y-79281821D01*
X154313237Y-79444581D01*
X154463958Y-79581980D01*
X154463960Y-79581982D01*
X154563141Y-79643392D01*
X154637363Y-79689348D01*
X154827544Y-79763024D01*
X155028024Y-79800500D01*
X155028026Y-79800500D01*
X155231974Y-79800500D01*
X155231976Y-79800500D01*
X155432456Y-79763024D01*
X155622637Y-79689348D01*
X155796041Y-79581981D01*
X155946764Y-79444579D01*
X156069673Y-79281821D01*
X156160582Y-79099250D01*
X156216397Y-78903083D01*
X156235215Y-78700000D01*
X156564785Y-78700000D01*
X156583602Y-78903082D01*
X156639417Y-79099247D01*
X156639422Y-79099260D01*
X156730327Y-79281821D01*
X156853237Y-79444581D01*
X157003958Y-79581980D01*
X157003960Y-79581982D01*
X157103141Y-79643392D01*
X157177363Y-79689348D01*
X157367544Y-79763024D01*
X157568024Y-79800500D01*
X157568026Y-79800500D01*
X157771974Y-79800500D01*
X157771976Y-79800500D01*
X157972456Y-79763024D01*
X158162637Y-79689348D01*
X158336041Y-79581981D01*
X158486764Y-79444579D01*
X158609673Y-79281821D01*
X158700582Y-79099250D01*
X158756397Y-78903083D01*
X158771971Y-78735006D01*
X175094700Y-78735006D01*
X175113864Y-78966297D01*
X175113866Y-78966308D01*
X175170842Y-79191300D01*
X175264075Y-79403848D01*
X175391016Y-79598147D01*
X175391019Y-79598151D01*
X175391021Y-79598153D01*
X175485803Y-79701114D01*
X175516724Y-79763767D01*
X175508864Y-79833193D01*
X175464716Y-79887348D01*
X175437906Y-79901277D01*
X175357669Y-79931203D01*
X175357664Y-79931206D01*
X175242455Y-80017452D01*
X175242452Y-80017455D01*
X175156206Y-80132664D01*
X175156202Y-80132671D01*
X175105908Y-80267517D01*
X175105176Y-80274330D01*
X175099501Y-80327123D01*
X175099500Y-80327135D01*
X175099500Y-82222870D01*
X175099501Y-82222876D01*
X175105908Y-82282483D01*
X175156202Y-82417328D01*
X175156206Y-82417335D01*
X175242452Y-82532544D01*
X175242455Y-82532547D01*
X175357664Y-82618793D01*
X175357671Y-82618797D01*
X175492517Y-82669091D01*
X175492516Y-82669091D01*
X175499444Y-82669835D01*
X175552127Y-82675500D01*
X177447872Y-82675499D01*
X177507483Y-82669091D01*
X177642331Y-82618796D01*
X177757546Y-82532546D01*
X177843796Y-82417331D01*
X177894091Y-82282483D01*
X177900500Y-82222873D01*
X177900499Y-80327128D01*
X177894091Y-80267517D01*
X177882422Y-80236232D01*
X177843797Y-80132671D01*
X177843793Y-80132664D01*
X177757547Y-80017455D01*
X177757544Y-80017452D01*
X177642335Y-79931206D01*
X177642328Y-79931202D01*
X177562094Y-79901277D01*
X177506160Y-79859406D01*
X177481743Y-79793941D01*
X177496595Y-79725668D01*
X177514190Y-79701121D01*
X177608979Y-79598153D01*
X177735924Y-79403849D01*
X177829157Y-79191300D01*
X177886134Y-78966305D01*
X177905300Y-78735000D01*
X177905300Y-78734993D01*
X177886135Y-78503702D01*
X177886133Y-78503691D01*
X177829157Y-78278699D01*
X177735924Y-78066151D01*
X177608983Y-77871852D01*
X177608980Y-77871849D01*
X177608979Y-77871847D01*
X177451784Y-77701087D01*
X177451779Y-77701083D01*
X177451777Y-77701081D01*
X177268634Y-77558535D01*
X177268628Y-77558531D01*
X177064504Y-77448064D01*
X177064495Y-77448061D01*
X176844984Y-77372702D01*
X176673282Y-77344050D01*
X176616049Y-77334500D01*
X176383951Y-77334500D01*
X176338164Y-77342140D01*
X176155015Y-77372702D01*
X175935504Y-77448061D01*
X175935495Y-77448064D01*
X175731371Y-77558531D01*
X175731365Y-77558535D01*
X175548222Y-77701081D01*
X175548219Y-77701084D01*
X175391016Y-77871852D01*
X175264075Y-78066151D01*
X175170842Y-78278699D01*
X175113866Y-78503691D01*
X175113864Y-78503702D01*
X175094700Y-78734993D01*
X175094700Y-78735006D01*
X158771971Y-78735006D01*
X158775215Y-78700000D01*
X158756397Y-78496917D01*
X158700582Y-78300750D01*
X158689602Y-78278700D01*
X158656272Y-78211764D01*
X158609673Y-78118179D01*
X158486764Y-77955421D01*
X158486762Y-77955418D01*
X158336041Y-77818019D01*
X158336039Y-77818017D01*
X158162642Y-77710655D01*
X158162635Y-77710651D01*
X158067546Y-77673814D01*
X157972456Y-77636976D01*
X157771976Y-77599500D01*
X157568024Y-77599500D01*
X157367544Y-77636976D01*
X157367541Y-77636976D01*
X157367541Y-77636977D01*
X157177364Y-77710651D01*
X157177357Y-77710655D01*
X157003960Y-77818017D01*
X157003958Y-77818019D01*
X156853237Y-77955418D01*
X156730327Y-78118178D01*
X156639422Y-78300739D01*
X156639417Y-78300752D01*
X156583602Y-78496917D01*
X156564785Y-78699999D01*
X156564785Y-78700000D01*
X156235215Y-78700000D01*
X156216397Y-78496917D01*
X156160582Y-78300750D01*
X156149602Y-78278700D01*
X156116272Y-78211764D01*
X156069673Y-78118179D01*
X155946764Y-77955421D01*
X155946762Y-77955418D01*
X155796041Y-77818019D01*
X155796039Y-77818017D01*
X155622642Y-77710655D01*
X155622635Y-77710651D01*
X155527546Y-77673814D01*
X155432456Y-77636976D01*
X155231976Y-77599500D01*
X155028024Y-77599500D01*
X154827544Y-77636976D01*
X154827541Y-77636976D01*
X154827541Y-77636977D01*
X154637364Y-77710651D01*
X154637357Y-77710655D01*
X154463960Y-77818017D01*
X154463958Y-77818019D01*
X154313237Y-77955418D01*
X154190327Y-78118178D01*
X154099422Y-78300739D01*
X154099417Y-78300752D01*
X154043602Y-78496917D01*
X154024785Y-78699999D01*
X154024785Y-78700000D01*
X128150499Y-78700000D01*
X128150499Y-77777128D01*
X128144091Y-77717517D01*
X128141530Y-77710651D01*
X128093797Y-77582671D01*
X128093793Y-77582664D01*
X128007547Y-77467455D01*
X128007544Y-77467452D01*
X127892335Y-77381206D01*
X127892328Y-77381202D01*
X127757482Y-77330908D01*
X127757483Y-77330908D01*
X127697883Y-77324501D01*
X127697881Y-77324500D01*
X127697873Y-77324500D01*
X127697864Y-77324500D01*
X125802129Y-77324500D01*
X125802123Y-77324501D01*
X125742516Y-77330908D01*
X125607671Y-77381202D01*
X125607664Y-77381206D01*
X125492455Y-77467452D01*
X125492452Y-77467455D01*
X125406206Y-77582664D01*
X125406202Y-77582671D01*
X125355908Y-77717517D01*
X125349501Y-77777116D01*
X125349501Y-77777123D01*
X125349500Y-77777135D01*
X125349500Y-79672870D01*
X125349501Y-79672876D01*
X125355908Y-79732483D01*
X125406202Y-79867328D01*
X125406206Y-79867335D01*
X125492452Y-79982544D01*
X125492455Y-79982547D01*
X125607664Y-80068793D01*
X125607673Y-80068798D01*
X125687904Y-80098722D01*
X125743838Y-80140593D01*
X125768256Y-80206057D01*
X125753405Y-80274330D01*
X125735802Y-80298886D01*
X125641019Y-80401849D01*
X125514075Y-80596151D01*
X125420842Y-80808699D01*
X125363866Y-81033691D01*
X125363864Y-81033702D01*
X125344700Y-81264993D01*
X125344700Y-81265006D01*
X114000500Y-81265006D01*
X114000500Y-76124500D01*
X114020185Y-76057461D01*
X114072989Y-76011706D01*
X114124500Y-76000500D01*
X189375500Y-76000500D01*
X189442539Y-76020185D01*
G37*
%TD.AperFunction*%
%TA.AperFunction,Conductor*%
G36*
X134114855Y-95666546D02*
G01*
X134131575Y-95685842D01*
X134261501Y-95871396D01*
X134261506Y-95871402D01*
X134428597Y-96038493D01*
X134428603Y-96038498D01*
X134614158Y-96168425D01*
X134657783Y-96223002D01*
X134664977Y-96292500D01*
X134633454Y-96354855D01*
X134614158Y-96371575D01*
X134428597Y-96501505D01*
X134261508Y-96668594D01*
X134131269Y-96854595D01*
X134076692Y-96898219D01*
X134007193Y-96905412D01*
X133944839Y-96873890D01*
X133928119Y-96854594D01*
X133798113Y-96668926D01*
X133798108Y-96668920D01*
X133631078Y-96501890D01*
X133445405Y-96371879D01*
X133401780Y-96317302D01*
X133394588Y-96247804D01*
X133426110Y-96185449D01*
X133445406Y-96168730D01*
X133460043Y-96158481D01*
X133631401Y-96038495D01*
X133798495Y-95871401D01*
X133928425Y-95685842D01*
X133983002Y-95642217D01*
X134052500Y-95635023D01*
X134114855Y-95666546D01*
G37*
%TD.AperFunction*%
%TA.AperFunction,Conductor*%
G36*
X149354855Y-95666546D02*
G01*
X149371575Y-95685842D01*
X149501501Y-95871396D01*
X149501506Y-95871402D01*
X149668597Y-96038493D01*
X149668603Y-96038498D01*
X149854158Y-96168425D01*
X149897783Y-96223002D01*
X149904977Y-96292500D01*
X149873454Y-96354855D01*
X149854158Y-96371575D01*
X149668597Y-96501505D01*
X149501508Y-96668594D01*
X149371269Y-96854595D01*
X149316692Y-96898219D01*
X149247193Y-96905412D01*
X149184839Y-96873890D01*
X149168119Y-96854594D01*
X149038113Y-96668926D01*
X149038108Y-96668920D01*
X148871078Y-96501890D01*
X148685405Y-96371879D01*
X148641780Y-96317302D01*
X148634588Y-96247804D01*
X148666110Y-96185449D01*
X148685406Y-96168730D01*
X148700043Y-96158481D01*
X148871401Y-96038495D01*
X149038495Y-95871401D01*
X149168425Y-95685842D01*
X149223002Y-95642217D01*
X149292500Y-95635023D01*
X149354855Y-95666546D01*
G37*
%TD.AperFunction*%
%TA.AperFunction,Conductor*%
G36*
X154434855Y-95666546D02*
G01*
X154451575Y-95685842D01*
X154581500Y-95871395D01*
X154581505Y-95871401D01*
X154748599Y-96038495D01*
X154915439Y-96155318D01*
X154934594Y-96168730D01*
X154978219Y-96223307D01*
X154985413Y-96292805D01*
X154953890Y-96355160D01*
X154934595Y-96371880D01*
X154748922Y-96501890D01*
X154748920Y-96501891D01*
X154581891Y-96668920D01*
X154581890Y-96668922D01*
X154451880Y-96854595D01*
X154397303Y-96898219D01*
X154327804Y-96905412D01*
X154265450Y-96873890D01*
X154248730Y-96854594D01*
X154118494Y-96668597D01*
X153951402Y-96501506D01*
X153951396Y-96501501D01*
X153765842Y-96371575D01*
X153722217Y-96316998D01*
X153715023Y-96247500D01*
X153746546Y-96185145D01*
X153765842Y-96168425D01*
X153878054Y-96089853D01*
X153951401Y-96038495D01*
X154118495Y-95871401D01*
X154248425Y-95685842D01*
X154303002Y-95642217D01*
X154372500Y-95635023D01*
X154434855Y-95666546D01*
G37*
%TD.AperFunction*%
%TA.AperFunction,Conductor*%
G36*
X162054855Y-95666546D02*
G01*
X162071575Y-95685842D01*
X162201500Y-95871395D01*
X162201505Y-95871401D01*
X162368599Y-96038495D01*
X162535439Y-96155318D01*
X162554594Y-96168730D01*
X162598219Y-96223307D01*
X162605413Y-96292805D01*
X162573890Y-96355160D01*
X162554595Y-96371880D01*
X162368922Y-96501890D01*
X162368920Y-96501891D01*
X162201891Y-96668920D01*
X162201890Y-96668922D01*
X162071880Y-96854595D01*
X162017303Y-96898219D01*
X161947804Y-96905412D01*
X161885450Y-96873890D01*
X161868730Y-96854594D01*
X161738494Y-96668597D01*
X161571402Y-96501506D01*
X161571396Y-96501501D01*
X161385842Y-96371575D01*
X161342217Y-96316998D01*
X161335023Y-96247500D01*
X161366546Y-96185145D01*
X161385842Y-96168425D01*
X161498054Y-96089853D01*
X161571401Y-96038495D01*
X161738495Y-95871401D01*
X161868425Y-95685842D01*
X161923002Y-95642217D01*
X161992500Y-95635023D01*
X162054855Y-95666546D01*
G37*
%TD.AperFunction*%
%TA.AperFunction,Conductor*%
G36*
X136654855Y-95666546D02*
G01*
X136671575Y-95685842D01*
X136801501Y-95871396D01*
X136801506Y-95871402D01*
X136968597Y-96038493D01*
X136968603Y-96038498D01*
X137154158Y-96168425D01*
X137197783Y-96223002D01*
X137204977Y-96292500D01*
X137173454Y-96354855D01*
X137154158Y-96371575D01*
X136968597Y-96501505D01*
X136801505Y-96668597D01*
X136671575Y-96854158D01*
X136616998Y-96897783D01*
X136547500Y-96904977D01*
X136485145Y-96873454D01*
X136468425Y-96854158D01*
X136338494Y-96668597D01*
X136171402Y-96501506D01*
X136171396Y-96501501D01*
X135985842Y-96371575D01*
X135942217Y-96316998D01*
X135935023Y-96247500D01*
X135966546Y-96185145D01*
X135985842Y-96168425D01*
X136098054Y-96089853D01*
X136171401Y-96038495D01*
X136338495Y-95871401D01*
X136468425Y-95685842D01*
X136523002Y-95642217D01*
X136592500Y-95635023D01*
X136654855Y-95666546D01*
G37*
%TD.AperFunction*%
%TA.AperFunction,Conductor*%
G36*
X151894855Y-95666546D02*
G01*
X151911575Y-95685842D01*
X152041501Y-95871396D01*
X152041506Y-95871402D01*
X152208597Y-96038493D01*
X152208603Y-96038498D01*
X152394158Y-96168425D01*
X152437783Y-96223002D01*
X152444977Y-96292500D01*
X152413454Y-96354855D01*
X152394158Y-96371575D01*
X152208597Y-96501505D01*
X152041505Y-96668597D01*
X151911575Y-96854158D01*
X151856998Y-96897783D01*
X151787500Y-96904977D01*
X151725145Y-96873454D01*
X151708425Y-96854158D01*
X151578494Y-96668597D01*
X151411402Y-96501506D01*
X151411396Y-96501501D01*
X151225842Y-96371575D01*
X151182217Y-96316998D01*
X151175023Y-96247500D01*
X151206546Y-96185145D01*
X151225842Y-96168425D01*
X151338054Y-96089853D01*
X151411401Y-96038495D01*
X151578495Y-95871401D01*
X151708425Y-95685842D01*
X151763002Y-95642217D01*
X151832500Y-95635023D01*
X151894855Y-95666546D01*
G37*
%TD.AperFunction*%
%TA.AperFunction,Conductor*%
G36*
X159514855Y-95666546D02*
G01*
X159531575Y-95685842D01*
X159661501Y-95871396D01*
X159661506Y-95871402D01*
X159828597Y-96038493D01*
X159828603Y-96038498D01*
X160014158Y-96168425D01*
X160057783Y-96223002D01*
X160064977Y-96292500D01*
X160033454Y-96354855D01*
X160014158Y-96371575D01*
X159828597Y-96501505D01*
X159661505Y-96668597D01*
X159531575Y-96854158D01*
X159476998Y-96897783D01*
X159407500Y-96904977D01*
X159345145Y-96873454D01*
X159328425Y-96854158D01*
X159198494Y-96668597D01*
X159031402Y-96501506D01*
X159031396Y-96501501D01*
X158845842Y-96371575D01*
X158802217Y-96316998D01*
X158795023Y-96247500D01*
X158826546Y-96185145D01*
X158845842Y-96168425D01*
X158958054Y-96089853D01*
X159031401Y-96038495D01*
X159198495Y-95871401D01*
X159328425Y-95685842D01*
X159383002Y-95642217D01*
X159452500Y-95635023D01*
X159514855Y-95666546D01*
G37*
%TD.AperFunction*%
%TD*%
M02*
