%TF.GenerationSoftware,KiCad,Pcbnew,8.0.1*%
%TF.CreationDate,2024-03-24T20:30:25+02:00*%
%TF.ProjectId,Sensing_Subsystem,53656e73-696e-4675-9f53-756273797374,rev?*%
%TF.SameCoordinates,Original*%
%TF.FileFunction,Legend,Top*%
%TF.FilePolarity,Positive*%
%FSLAX46Y46*%
G04 Gerber Fmt 4.6, Leading zero omitted, Abs format (unit mm)*
G04 Created by KiCad (PCBNEW 8.0.1) date 2024-03-24 20:30:25*
%MOMM*%
%LPD*%
G01*
G04 APERTURE LIST*
%ADD10C,0.150000*%
%ADD11C,0.250000*%
%ADD12C,0.120000*%
%ADD13C,1.200000*%
%ADD14R,1.130000X1.380000*%
%ADD15R,1.800000X1.800000*%
%ADD16C,1.800000*%
%ADD17R,0.700000X1.250000*%
%ADD18C,3.000000*%
%ADD19R,1.380000X1.130000*%
%ADD20R,1.000000X0.600000*%
%ADD21R,1.250000X0.700000*%
%ADD22R,0.600000X1.000000*%
%ADD23R,1.700000X1.700000*%
%ADD24O,1.700000X1.700000*%
G04 APERTURE END LIST*
D10*
X155761905Y-82454819D02*
X155761905Y-81454819D01*
X155761905Y-81454819D02*
X156000000Y-81454819D01*
X156000000Y-81454819D02*
X156142857Y-81502438D01*
X156142857Y-81502438D02*
X156238095Y-81597676D01*
X156238095Y-81597676D02*
X156285714Y-81692914D01*
X156285714Y-81692914D02*
X156333333Y-81883390D01*
X156333333Y-81883390D02*
X156333333Y-82026247D01*
X156333333Y-82026247D02*
X156285714Y-82216723D01*
X156285714Y-82216723D02*
X156238095Y-82311961D01*
X156238095Y-82311961D02*
X156142857Y-82407200D01*
X156142857Y-82407200D02*
X156000000Y-82454819D01*
X156000000Y-82454819D02*
X155761905Y-82454819D01*
X157238095Y-81454819D02*
X156761905Y-81454819D01*
X156761905Y-81454819D02*
X156714286Y-81931009D01*
X156714286Y-81931009D02*
X156761905Y-81883390D01*
X156761905Y-81883390D02*
X156857143Y-81835771D01*
X156857143Y-81835771D02*
X157095238Y-81835771D01*
X157095238Y-81835771D02*
X157190476Y-81883390D01*
X157190476Y-81883390D02*
X157238095Y-81931009D01*
X157238095Y-81931009D02*
X157285714Y-82026247D01*
X157285714Y-82026247D02*
X157285714Y-82264342D01*
X157285714Y-82264342D02*
X157238095Y-82359580D01*
X157238095Y-82359580D02*
X157190476Y-82407200D01*
X157190476Y-82407200D02*
X157095238Y-82454819D01*
X157095238Y-82454819D02*
X156857143Y-82454819D01*
X156857143Y-82454819D02*
X156761905Y-82407200D01*
X156761905Y-82407200D02*
X156714286Y-82359580D01*
X180833333Y-90454819D02*
X180500000Y-89978628D01*
X180261905Y-90454819D02*
X180261905Y-89454819D01*
X180261905Y-89454819D02*
X180642857Y-89454819D01*
X180642857Y-89454819D02*
X180738095Y-89502438D01*
X180738095Y-89502438D02*
X180785714Y-89550057D01*
X180785714Y-89550057D02*
X180833333Y-89645295D01*
X180833333Y-89645295D02*
X180833333Y-89788152D01*
X180833333Y-89788152D02*
X180785714Y-89883390D01*
X180785714Y-89883390D02*
X180738095Y-89931009D01*
X180738095Y-89931009D02*
X180642857Y-89978628D01*
X180642857Y-89978628D02*
X180261905Y-89978628D01*
X181690476Y-89788152D02*
X181690476Y-90454819D01*
X181452381Y-89407200D02*
X181214286Y-90121485D01*
X181214286Y-90121485D02*
X181833333Y-90121485D01*
X129164819Y-80733094D02*
X128164819Y-80733094D01*
X128164819Y-80733094D02*
X128164819Y-80494999D01*
X128164819Y-80494999D02*
X128212438Y-80352142D01*
X128212438Y-80352142D02*
X128307676Y-80256904D01*
X128307676Y-80256904D02*
X128402914Y-80209285D01*
X128402914Y-80209285D02*
X128593390Y-80161666D01*
X128593390Y-80161666D02*
X128736247Y-80161666D01*
X128736247Y-80161666D02*
X128926723Y-80209285D01*
X128926723Y-80209285D02*
X129021961Y-80256904D01*
X129021961Y-80256904D02*
X129117200Y-80352142D01*
X129117200Y-80352142D02*
X129164819Y-80494999D01*
X129164819Y-80494999D02*
X129164819Y-80733094D01*
X129164819Y-79209285D02*
X129164819Y-79780713D01*
X129164819Y-79494999D02*
X128164819Y-79494999D01*
X128164819Y-79494999D02*
X128307676Y-79590237D01*
X128307676Y-79590237D02*
X128402914Y-79685475D01*
X128402914Y-79685475D02*
X128450533Y-79780713D01*
X176550057Y-92095238D02*
X176502438Y-92190476D01*
X176502438Y-92190476D02*
X176407200Y-92285714D01*
X176407200Y-92285714D02*
X176264342Y-92428571D01*
X176264342Y-92428571D02*
X176216723Y-92523809D01*
X176216723Y-92523809D02*
X176216723Y-92619047D01*
X176454819Y-92571428D02*
X176407200Y-92666666D01*
X176407200Y-92666666D02*
X176311961Y-92761904D01*
X176311961Y-92761904D02*
X176121485Y-92809523D01*
X176121485Y-92809523D02*
X175788152Y-92809523D01*
X175788152Y-92809523D02*
X175597676Y-92761904D01*
X175597676Y-92761904D02*
X175502438Y-92666666D01*
X175502438Y-92666666D02*
X175454819Y-92571428D01*
X175454819Y-92571428D02*
X175454819Y-92380952D01*
X175454819Y-92380952D02*
X175502438Y-92285714D01*
X175502438Y-92285714D02*
X175597676Y-92190476D01*
X175597676Y-92190476D02*
X175788152Y-92142857D01*
X175788152Y-92142857D02*
X176121485Y-92142857D01*
X176121485Y-92142857D02*
X176311961Y-92190476D01*
X176311961Y-92190476D02*
X176407200Y-92285714D01*
X176407200Y-92285714D02*
X176454819Y-92380952D01*
X176454819Y-92380952D02*
X176454819Y-92571428D01*
X175454819Y-91809523D02*
X175454819Y-91190476D01*
X175454819Y-91190476D02*
X175835771Y-91523809D01*
X175835771Y-91523809D02*
X175835771Y-91380952D01*
X175835771Y-91380952D02*
X175883390Y-91285714D01*
X175883390Y-91285714D02*
X175931009Y-91238095D01*
X175931009Y-91238095D02*
X176026247Y-91190476D01*
X176026247Y-91190476D02*
X176264342Y-91190476D01*
X176264342Y-91190476D02*
X176359580Y-91238095D01*
X176359580Y-91238095D02*
X176407200Y-91285714D01*
X176407200Y-91285714D02*
X176454819Y-91380952D01*
X176454819Y-91380952D02*
X176454819Y-91666666D01*
X176454819Y-91666666D02*
X176407200Y-91761904D01*
X176407200Y-91761904D02*
X176359580Y-91809523D01*
X172833333Y-95954819D02*
X172500000Y-95478628D01*
X172261905Y-95954819D02*
X172261905Y-94954819D01*
X172261905Y-94954819D02*
X172642857Y-94954819D01*
X172642857Y-94954819D02*
X172738095Y-95002438D01*
X172738095Y-95002438D02*
X172785714Y-95050057D01*
X172785714Y-95050057D02*
X172833333Y-95145295D01*
X172833333Y-95145295D02*
X172833333Y-95288152D01*
X172833333Y-95288152D02*
X172785714Y-95383390D01*
X172785714Y-95383390D02*
X172738095Y-95431009D01*
X172738095Y-95431009D02*
X172642857Y-95478628D01*
X172642857Y-95478628D02*
X172261905Y-95478628D01*
X173166667Y-94954819D02*
X173785714Y-94954819D01*
X173785714Y-94954819D02*
X173452381Y-95335771D01*
X173452381Y-95335771D02*
X173595238Y-95335771D01*
X173595238Y-95335771D02*
X173690476Y-95383390D01*
X173690476Y-95383390D02*
X173738095Y-95431009D01*
X173738095Y-95431009D02*
X173785714Y-95526247D01*
X173785714Y-95526247D02*
X173785714Y-95764342D01*
X173785714Y-95764342D02*
X173738095Y-95859580D01*
X173738095Y-95859580D02*
X173690476Y-95907200D01*
X173690476Y-95907200D02*
X173595238Y-95954819D01*
X173595238Y-95954819D02*
X173309524Y-95954819D01*
X173309524Y-95954819D02*
X173214286Y-95907200D01*
X173214286Y-95907200D02*
X173166667Y-95859580D01*
X126833333Y-94954819D02*
X126500000Y-94478628D01*
X126261905Y-94954819D02*
X126261905Y-93954819D01*
X126261905Y-93954819D02*
X126642857Y-93954819D01*
X126642857Y-93954819D02*
X126738095Y-94002438D01*
X126738095Y-94002438D02*
X126785714Y-94050057D01*
X126785714Y-94050057D02*
X126833333Y-94145295D01*
X126833333Y-94145295D02*
X126833333Y-94288152D01*
X126833333Y-94288152D02*
X126785714Y-94383390D01*
X126785714Y-94383390D02*
X126738095Y-94431009D01*
X126738095Y-94431009D02*
X126642857Y-94478628D01*
X126642857Y-94478628D02*
X126261905Y-94478628D01*
X127785714Y-94954819D02*
X127214286Y-94954819D01*
X127500000Y-94954819D02*
X127500000Y-93954819D01*
X127500000Y-93954819D02*
X127404762Y-94097676D01*
X127404762Y-94097676D02*
X127309524Y-94192914D01*
X127309524Y-94192914D02*
X127214286Y-94240533D01*
X165238095Y-82056819D02*
X165809523Y-82056819D01*
X165523809Y-83056819D02*
X165523809Y-82056819D01*
X166142857Y-83056819D02*
X166142857Y-82056819D01*
X166142857Y-82056819D02*
X166523809Y-82056819D01*
X166523809Y-82056819D02*
X166619047Y-82104438D01*
X166619047Y-82104438D02*
X166666666Y-82152057D01*
X166666666Y-82152057D02*
X166714285Y-82247295D01*
X166714285Y-82247295D02*
X166714285Y-82390152D01*
X166714285Y-82390152D02*
X166666666Y-82485390D01*
X166666666Y-82485390D02*
X166619047Y-82533009D01*
X166619047Y-82533009D02*
X166523809Y-82580628D01*
X166523809Y-82580628D02*
X166142857Y-82580628D01*
X167095238Y-82152057D02*
X167142857Y-82104438D01*
X167142857Y-82104438D02*
X167238095Y-82056819D01*
X167238095Y-82056819D02*
X167476190Y-82056819D01*
X167476190Y-82056819D02*
X167571428Y-82104438D01*
X167571428Y-82104438D02*
X167619047Y-82152057D01*
X167619047Y-82152057D02*
X167666666Y-82247295D01*
X167666666Y-82247295D02*
X167666666Y-82342533D01*
X167666666Y-82342533D02*
X167619047Y-82485390D01*
X167619047Y-82485390D02*
X167047619Y-83056819D01*
X167047619Y-83056819D02*
X167666666Y-83056819D01*
X159954819Y-85166666D02*
X159478628Y-85499999D01*
X159954819Y-85738094D02*
X158954819Y-85738094D01*
X158954819Y-85738094D02*
X158954819Y-85357142D01*
X158954819Y-85357142D02*
X159002438Y-85261904D01*
X159002438Y-85261904D02*
X159050057Y-85214285D01*
X159050057Y-85214285D02*
X159145295Y-85166666D01*
X159145295Y-85166666D02*
X159288152Y-85166666D01*
X159288152Y-85166666D02*
X159383390Y-85214285D01*
X159383390Y-85214285D02*
X159431009Y-85261904D01*
X159431009Y-85261904D02*
X159478628Y-85357142D01*
X159478628Y-85357142D02*
X159478628Y-85738094D01*
X158954819Y-84261904D02*
X158954819Y-84738094D01*
X158954819Y-84738094D02*
X159431009Y-84785713D01*
X159431009Y-84785713D02*
X159383390Y-84738094D01*
X159383390Y-84738094D02*
X159335771Y-84642856D01*
X159335771Y-84642856D02*
X159335771Y-84404761D01*
X159335771Y-84404761D02*
X159383390Y-84309523D01*
X159383390Y-84309523D02*
X159431009Y-84261904D01*
X159431009Y-84261904D02*
X159526247Y-84214285D01*
X159526247Y-84214285D02*
X159764342Y-84214285D01*
X159764342Y-84214285D02*
X159859580Y-84261904D01*
X159859580Y-84261904D02*
X159907200Y-84309523D01*
X159907200Y-84309523D02*
X159954819Y-84404761D01*
X159954819Y-84404761D02*
X159954819Y-84642856D01*
X159954819Y-84642856D02*
X159907200Y-84738094D01*
X159907200Y-84738094D02*
X159859580Y-84785713D01*
X123833333Y-93454819D02*
X123500000Y-92978628D01*
X123261905Y-93454819D02*
X123261905Y-92454819D01*
X123261905Y-92454819D02*
X123642857Y-92454819D01*
X123642857Y-92454819D02*
X123738095Y-92502438D01*
X123738095Y-92502438D02*
X123785714Y-92550057D01*
X123785714Y-92550057D02*
X123833333Y-92645295D01*
X123833333Y-92645295D02*
X123833333Y-92788152D01*
X123833333Y-92788152D02*
X123785714Y-92883390D01*
X123785714Y-92883390D02*
X123738095Y-92931009D01*
X123738095Y-92931009D02*
X123642857Y-92978628D01*
X123642857Y-92978628D02*
X123261905Y-92978628D01*
X124690476Y-92454819D02*
X124500000Y-92454819D01*
X124500000Y-92454819D02*
X124404762Y-92502438D01*
X124404762Y-92502438D02*
X124357143Y-92550057D01*
X124357143Y-92550057D02*
X124261905Y-92692914D01*
X124261905Y-92692914D02*
X124214286Y-92883390D01*
X124214286Y-92883390D02*
X124214286Y-93264342D01*
X124214286Y-93264342D02*
X124261905Y-93359580D01*
X124261905Y-93359580D02*
X124309524Y-93407200D01*
X124309524Y-93407200D02*
X124404762Y-93454819D01*
X124404762Y-93454819D02*
X124595238Y-93454819D01*
X124595238Y-93454819D02*
X124690476Y-93407200D01*
X124690476Y-93407200D02*
X124738095Y-93359580D01*
X124738095Y-93359580D02*
X124785714Y-93264342D01*
X124785714Y-93264342D02*
X124785714Y-93026247D01*
X124785714Y-93026247D02*
X124738095Y-92931009D01*
X124738095Y-92931009D02*
X124690476Y-92883390D01*
X124690476Y-92883390D02*
X124595238Y-92835771D01*
X124595238Y-92835771D02*
X124404762Y-92835771D01*
X124404762Y-92835771D02*
X124309524Y-92883390D01*
X124309524Y-92883390D02*
X124261905Y-92931009D01*
X124261905Y-92931009D02*
X124214286Y-93026247D01*
X123538095Y-88164819D02*
X123538095Y-88974342D01*
X123538095Y-88974342D02*
X123585714Y-89069580D01*
X123585714Y-89069580D02*
X123633333Y-89117200D01*
X123633333Y-89117200D02*
X123728571Y-89164819D01*
X123728571Y-89164819D02*
X123919047Y-89164819D01*
X123919047Y-89164819D02*
X124014285Y-89117200D01*
X124014285Y-89117200D02*
X124061904Y-89069580D01*
X124061904Y-89069580D02*
X124109523Y-88974342D01*
X124109523Y-88974342D02*
X124109523Y-88164819D01*
X124490476Y-88164819D02*
X125109523Y-88164819D01*
X125109523Y-88164819D02*
X124776190Y-88545771D01*
X124776190Y-88545771D02*
X124919047Y-88545771D01*
X124919047Y-88545771D02*
X125014285Y-88593390D01*
X125014285Y-88593390D02*
X125061904Y-88641009D01*
X125061904Y-88641009D02*
X125109523Y-88736247D01*
X125109523Y-88736247D02*
X125109523Y-88974342D01*
X125109523Y-88974342D02*
X125061904Y-89069580D01*
X125061904Y-89069580D02*
X125014285Y-89117200D01*
X125014285Y-89117200D02*
X124919047Y-89164819D01*
X124919047Y-89164819D02*
X124633333Y-89164819D01*
X124633333Y-89164819D02*
X124538095Y-89117200D01*
X124538095Y-89117200D02*
X124490476Y-89069580D01*
X149266905Y-91164819D02*
X149266905Y-90164819D01*
X149266905Y-90164819D02*
X149505000Y-90164819D01*
X149505000Y-90164819D02*
X149647857Y-90212438D01*
X149647857Y-90212438D02*
X149743095Y-90307676D01*
X149743095Y-90307676D02*
X149790714Y-90402914D01*
X149790714Y-90402914D02*
X149838333Y-90593390D01*
X149838333Y-90593390D02*
X149838333Y-90736247D01*
X149838333Y-90736247D02*
X149790714Y-90926723D01*
X149790714Y-90926723D02*
X149743095Y-91021961D01*
X149743095Y-91021961D02*
X149647857Y-91117200D01*
X149647857Y-91117200D02*
X149505000Y-91164819D01*
X149505000Y-91164819D02*
X149266905Y-91164819D01*
X150219286Y-90260057D02*
X150266905Y-90212438D01*
X150266905Y-90212438D02*
X150362143Y-90164819D01*
X150362143Y-90164819D02*
X150600238Y-90164819D01*
X150600238Y-90164819D02*
X150695476Y-90212438D01*
X150695476Y-90212438D02*
X150743095Y-90260057D01*
X150743095Y-90260057D02*
X150790714Y-90355295D01*
X150790714Y-90355295D02*
X150790714Y-90450533D01*
X150790714Y-90450533D02*
X150743095Y-90593390D01*
X150743095Y-90593390D02*
X150171667Y-91164819D01*
X150171667Y-91164819D02*
X150790714Y-91164819D01*
X139904761Y-90050057D02*
X139809523Y-90002438D01*
X139809523Y-90002438D02*
X139714285Y-89907200D01*
X139714285Y-89907200D02*
X139571428Y-89764342D01*
X139571428Y-89764342D02*
X139476190Y-89716723D01*
X139476190Y-89716723D02*
X139380952Y-89716723D01*
X139428571Y-89954819D02*
X139333333Y-89907200D01*
X139333333Y-89907200D02*
X139238095Y-89811961D01*
X139238095Y-89811961D02*
X139190476Y-89621485D01*
X139190476Y-89621485D02*
X139190476Y-89288152D01*
X139190476Y-89288152D02*
X139238095Y-89097676D01*
X139238095Y-89097676D02*
X139333333Y-89002438D01*
X139333333Y-89002438D02*
X139428571Y-88954819D01*
X139428571Y-88954819D02*
X139619047Y-88954819D01*
X139619047Y-88954819D02*
X139714285Y-89002438D01*
X139714285Y-89002438D02*
X139809523Y-89097676D01*
X139809523Y-89097676D02*
X139857142Y-89288152D01*
X139857142Y-89288152D02*
X139857142Y-89621485D01*
X139857142Y-89621485D02*
X139809523Y-89811961D01*
X139809523Y-89811961D02*
X139714285Y-89907200D01*
X139714285Y-89907200D02*
X139619047Y-89954819D01*
X139619047Y-89954819D02*
X139428571Y-89954819D01*
X140238095Y-89050057D02*
X140285714Y-89002438D01*
X140285714Y-89002438D02*
X140380952Y-88954819D01*
X140380952Y-88954819D02*
X140619047Y-88954819D01*
X140619047Y-88954819D02*
X140714285Y-89002438D01*
X140714285Y-89002438D02*
X140761904Y-89050057D01*
X140761904Y-89050057D02*
X140809523Y-89145295D01*
X140809523Y-89145295D02*
X140809523Y-89240533D01*
X140809523Y-89240533D02*
X140761904Y-89383390D01*
X140761904Y-89383390D02*
X140190476Y-89954819D01*
X140190476Y-89954819D02*
X140809523Y-89954819D01*
X119954819Y-86738094D02*
X118954819Y-86738094D01*
X118954819Y-86738094D02*
X118954819Y-86499999D01*
X118954819Y-86499999D02*
X119002438Y-86357142D01*
X119002438Y-86357142D02*
X119097676Y-86261904D01*
X119097676Y-86261904D02*
X119192914Y-86214285D01*
X119192914Y-86214285D02*
X119383390Y-86166666D01*
X119383390Y-86166666D02*
X119526247Y-86166666D01*
X119526247Y-86166666D02*
X119716723Y-86214285D01*
X119716723Y-86214285D02*
X119811961Y-86261904D01*
X119811961Y-86261904D02*
X119907200Y-86357142D01*
X119907200Y-86357142D02*
X119954819Y-86499999D01*
X119954819Y-86499999D02*
X119954819Y-86738094D01*
X118954819Y-85309523D02*
X118954819Y-85499999D01*
X118954819Y-85499999D02*
X119002438Y-85595237D01*
X119002438Y-85595237D02*
X119050057Y-85642856D01*
X119050057Y-85642856D02*
X119192914Y-85738094D01*
X119192914Y-85738094D02*
X119383390Y-85785713D01*
X119383390Y-85785713D02*
X119764342Y-85785713D01*
X119764342Y-85785713D02*
X119859580Y-85738094D01*
X119859580Y-85738094D02*
X119907200Y-85690475D01*
X119907200Y-85690475D02*
X119954819Y-85595237D01*
X119954819Y-85595237D02*
X119954819Y-85404761D01*
X119954819Y-85404761D02*
X119907200Y-85309523D01*
X119907200Y-85309523D02*
X119859580Y-85261904D01*
X119859580Y-85261904D02*
X119764342Y-85214285D01*
X119764342Y-85214285D02*
X119526247Y-85214285D01*
X119526247Y-85214285D02*
X119431009Y-85261904D01*
X119431009Y-85261904D02*
X119383390Y-85309523D01*
X119383390Y-85309523D02*
X119335771Y-85404761D01*
X119335771Y-85404761D02*
X119335771Y-85595237D01*
X119335771Y-85595237D02*
X119383390Y-85690475D01*
X119383390Y-85690475D02*
X119431009Y-85738094D01*
X119431009Y-85738094D02*
X119526247Y-85785713D01*
X121904761Y-99050057D02*
X121809523Y-99002438D01*
X121809523Y-99002438D02*
X121714285Y-98907200D01*
X121714285Y-98907200D02*
X121571428Y-98764342D01*
X121571428Y-98764342D02*
X121476190Y-98716723D01*
X121476190Y-98716723D02*
X121380952Y-98716723D01*
X121428571Y-98954819D02*
X121333333Y-98907200D01*
X121333333Y-98907200D02*
X121238095Y-98811961D01*
X121238095Y-98811961D02*
X121190476Y-98621485D01*
X121190476Y-98621485D02*
X121190476Y-98288152D01*
X121190476Y-98288152D02*
X121238095Y-98097676D01*
X121238095Y-98097676D02*
X121333333Y-98002438D01*
X121333333Y-98002438D02*
X121428571Y-97954819D01*
X121428571Y-97954819D02*
X121619047Y-97954819D01*
X121619047Y-97954819D02*
X121714285Y-98002438D01*
X121714285Y-98002438D02*
X121809523Y-98097676D01*
X121809523Y-98097676D02*
X121857142Y-98288152D01*
X121857142Y-98288152D02*
X121857142Y-98621485D01*
X121857142Y-98621485D02*
X121809523Y-98811961D01*
X121809523Y-98811961D02*
X121714285Y-98907200D01*
X121714285Y-98907200D02*
X121619047Y-98954819D01*
X121619047Y-98954819D02*
X121428571Y-98954819D01*
X122809523Y-98954819D02*
X122238095Y-98954819D01*
X122523809Y-98954819D02*
X122523809Y-97954819D01*
X122523809Y-97954819D02*
X122428571Y-98097676D01*
X122428571Y-98097676D02*
X122333333Y-98192914D01*
X122333333Y-98192914D02*
X122238095Y-98240533D01*
X155738095Y-87954819D02*
X155738095Y-88764342D01*
X155738095Y-88764342D02*
X155785714Y-88859580D01*
X155785714Y-88859580D02*
X155833333Y-88907200D01*
X155833333Y-88907200D02*
X155928571Y-88954819D01*
X155928571Y-88954819D02*
X156119047Y-88954819D01*
X156119047Y-88954819D02*
X156214285Y-88907200D01*
X156214285Y-88907200D02*
X156261904Y-88859580D01*
X156261904Y-88859580D02*
X156309523Y-88764342D01*
X156309523Y-88764342D02*
X156309523Y-87954819D01*
X156738095Y-88050057D02*
X156785714Y-88002438D01*
X156785714Y-88002438D02*
X156880952Y-87954819D01*
X156880952Y-87954819D02*
X157119047Y-87954819D01*
X157119047Y-87954819D02*
X157214285Y-88002438D01*
X157214285Y-88002438D02*
X157261904Y-88050057D01*
X157261904Y-88050057D02*
X157309523Y-88145295D01*
X157309523Y-88145295D02*
X157309523Y-88240533D01*
X157309523Y-88240533D02*
X157261904Y-88383390D01*
X157261904Y-88383390D02*
X156690476Y-88954819D01*
X156690476Y-88954819D02*
X157309523Y-88954819D01*
X182761905Y-88954819D02*
X182761905Y-87954819D01*
X182761905Y-87954819D02*
X183000000Y-87954819D01*
X183000000Y-87954819D02*
X183142857Y-88002438D01*
X183142857Y-88002438D02*
X183238095Y-88097676D01*
X183238095Y-88097676D02*
X183285714Y-88192914D01*
X183285714Y-88192914D02*
X183333333Y-88383390D01*
X183333333Y-88383390D02*
X183333333Y-88526247D01*
X183333333Y-88526247D02*
X183285714Y-88716723D01*
X183285714Y-88716723D02*
X183238095Y-88811961D01*
X183238095Y-88811961D02*
X183142857Y-88907200D01*
X183142857Y-88907200D02*
X183000000Y-88954819D01*
X183000000Y-88954819D02*
X182761905Y-88954819D01*
X184190476Y-88288152D02*
X184190476Y-88954819D01*
X183952381Y-87907200D02*
X183714286Y-88621485D01*
X183714286Y-88621485D02*
X184333333Y-88621485D01*
X116238095Y-94454819D02*
X116809523Y-94454819D01*
X116523809Y-95454819D02*
X116523809Y-94454819D01*
X117142857Y-95454819D02*
X117142857Y-94454819D01*
X117142857Y-94454819D02*
X117523809Y-94454819D01*
X117523809Y-94454819D02*
X117619047Y-94502438D01*
X117619047Y-94502438D02*
X117666666Y-94550057D01*
X117666666Y-94550057D02*
X117714285Y-94645295D01*
X117714285Y-94645295D02*
X117714285Y-94788152D01*
X117714285Y-94788152D02*
X117666666Y-94883390D01*
X117666666Y-94883390D02*
X117619047Y-94931009D01*
X117619047Y-94931009D02*
X117523809Y-94978628D01*
X117523809Y-94978628D02*
X117142857Y-94978628D01*
X118047619Y-94454819D02*
X118666666Y-94454819D01*
X118666666Y-94454819D02*
X118333333Y-94835771D01*
X118333333Y-94835771D02*
X118476190Y-94835771D01*
X118476190Y-94835771D02*
X118571428Y-94883390D01*
X118571428Y-94883390D02*
X118619047Y-94931009D01*
X118619047Y-94931009D02*
X118666666Y-95026247D01*
X118666666Y-95026247D02*
X118666666Y-95264342D01*
X118666666Y-95264342D02*
X118619047Y-95359580D01*
X118619047Y-95359580D02*
X118571428Y-95407200D01*
X118571428Y-95407200D02*
X118476190Y-95454819D01*
X118476190Y-95454819D02*
X118190476Y-95454819D01*
X118190476Y-95454819D02*
X118095238Y-95407200D01*
X118095238Y-95407200D02*
X118047619Y-95359580D01*
X180238095Y-87454819D02*
X180238095Y-88264342D01*
X180238095Y-88264342D02*
X180285714Y-88359580D01*
X180285714Y-88359580D02*
X180333333Y-88407200D01*
X180333333Y-88407200D02*
X180428571Y-88454819D01*
X180428571Y-88454819D02*
X180619047Y-88454819D01*
X180619047Y-88454819D02*
X180714285Y-88407200D01*
X180714285Y-88407200D02*
X180761904Y-88359580D01*
X180761904Y-88359580D02*
X180809523Y-88264342D01*
X180809523Y-88264342D02*
X180809523Y-87454819D01*
X181809523Y-88454819D02*
X181238095Y-88454819D01*
X181523809Y-88454819D02*
X181523809Y-87454819D01*
X181523809Y-87454819D02*
X181428571Y-87597676D01*
X181428571Y-87597676D02*
X181333333Y-87692914D01*
X181333333Y-87692914D02*
X181238095Y-87740533D01*
X174994819Y-80743094D02*
X173994819Y-80743094D01*
X173994819Y-80743094D02*
X173994819Y-80504999D01*
X173994819Y-80504999D02*
X174042438Y-80362142D01*
X174042438Y-80362142D02*
X174137676Y-80266904D01*
X174137676Y-80266904D02*
X174232914Y-80219285D01*
X174232914Y-80219285D02*
X174423390Y-80171666D01*
X174423390Y-80171666D02*
X174566247Y-80171666D01*
X174566247Y-80171666D02*
X174756723Y-80219285D01*
X174756723Y-80219285D02*
X174851961Y-80266904D01*
X174851961Y-80266904D02*
X174947200Y-80362142D01*
X174947200Y-80362142D02*
X174994819Y-80504999D01*
X174994819Y-80504999D02*
X174994819Y-80743094D01*
X173994819Y-79838332D02*
X173994819Y-79219285D01*
X173994819Y-79219285D02*
X174375771Y-79552618D01*
X174375771Y-79552618D02*
X174375771Y-79409761D01*
X174375771Y-79409761D02*
X174423390Y-79314523D01*
X174423390Y-79314523D02*
X174471009Y-79266904D01*
X174471009Y-79266904D02*
X174566247Y-79219285D01*
X174566247Y-79219285D02*
X174804342Y-79219285D01*
X174804342Y-79219285D02*
X174899580Y-79266904D01*
X174899580Y-79266904D02*
X174947200Y-79314523D01*
X174947200Y-79314523D02*
X174994819Y-79409761D01*
X174994819Y-79409761D02*
X174994819Y-79695475D01*
X174994819Y-79695475D02*
X174947200Y-79790713D01*
X174947200Y-79790713D02*
X174899580Y-79838332D01*
X185238095Y-96454819D02*
X185809523Y-96454819D01*
X185523809Y-97454819D02*
X185523809Y-96454819D01*
X186142857Y-97454819D02*
X186142857Y-96454819D01*
X186142857Y-96454819D02*
X186523809Y-96454819D01*
X186523809Y-96454819D02*
X186619047Y-96502438D01*
X186619047Y-96502438D02*
X186666666Y-96550057D01*
X186666666Y-96550057D02*
X186714285Y-96645295D01*
X186714285Y-96645295D02*
X186714285Y-96788152D01*
X186714285Y-96788152D02*
X186666666Y-96883390D01*
X186666666Y-96883390D02*
X186619047Y-96931009D01*
X186619047Y-96931009D02*
X186523809Y-96978628D01*
X186523809Y-96978628D02*
X186142857Y-96978628D01*
X187666666Y-97454819D02*
X187095238Y-97454819D01*
X187380952Y-97454819D02*
X187380952Y-96454819D01*
X187380952Y-96454819D02*
X187285714Y-96597676D01*
X187285714Y-96597676D02*
X187190476Y-96692914D01*
X187190476Y-96692914D02*
X187095238Y-96740533D01*
D11*
%TO.C,D5*%
X153860000Y-77680000D02*
X154620000Y-77000000D01*
X153860000Y-81000000D02*
X153860000Y-77700000D01*
X154620000Y-77000000D02*
X158180000Y-77000000D01*
X158940000Y-77680000D02*
X158180000Y-77000000D01*
X158940000Y-77700000D02*
X158940000Y-81000000D01*
X158940000Y-81000000D02*
X153860000Y-81000000D01*
D10*
%TO.C,R4*%
X179240000Y-91080000D02*
X180520000Y-91080000D01*
X179240000Y-92920000D02*
X179240000Y-91080000D01*
X180520000Y-92920000D02*
X179240000Y-92920000D01*
X181480000Y-92920000D02*
X182760000Y-92920000D01*
X182760000Y-91080000D02*
X181480000Y-91080000D01*
X182760000Y-92920000D02*
X182760000Y-91080000D01*
%TO.C,R2*%
X140740000Y-82580000D02*
X140740000Y-84420000D01*
X140740000Y-84420000D02*
X142020000Y-84420000D01*
X142020000Y-82580000D02*
X140740000Y-82580000D01*
X142980000Y-82580000D02*
X144260000Y-82580000D01*
X144260000Y-82580000D02*
X144260000Y-84420000D01*
X144260000Y-84420000D02*
X142980000Y-84420000D01*
D12*
%TO.C,D1*%
X121880000Y-82555000D02*
X123000000Y-82555000D01*
X121880000Y-82955000D02*
X121880000Y-82555000D01*
X123000000Y-77435000D02*
X116840000Y-77435000D01*
X123000000Y-77435000D02*
X123000000Y-82555000D01*
X123000000Y-78725000D02*
X123000000Y-78725000D01*
X123000000Y-78725000D02*
X125670000Y-78725000D01*
X123000000Y-81265000D02*
X123000000Y-81265000D01*
X123000000Y-81265000D02*
X125670000Y-81265000D01*
X123000000Y-82555000D02*
X116840000Y-82555000D01*
X123000000Y-82555000D02*
X123000000Y-82955000D01*
X123000000Y-82955000D02*
X121880000Y-82955000D01*
X125670000Y-78725000D02*
X123000000Y-78725000D01*
X125670000Y-78725000D02*
X125670000Y-78725000D01*
X125670000Y-81265000D02*
X123000000Y-81265000D01*
X125670000Y-81265000D02*
X125670000Y-81265000D01*
X116840000Y-82555000D02*
G75*
G02*
X116840000Y-77435000I0J2560000D01*
G01*
D10*
%TO.C,Q3*%
X171470000Y-91770000D02*
X172510000Y-91770000D01*
X171470000Y-93230000D02*
X171470000Y-91770000D01*
X173460000Y-93230000D02*
X172540000Y-93230000D01*
X174530000Y-91770000D02*
X173490000Y-91770000D01*
X174530000Y-93230000D02*
X174530000Y-91770000D01*
%TO.C,R3*%
X171240000Y-96580000D02*
X171240000Y-98420000D01*
X171240000Y-98420000D02*
X172520000Y-98420000D01*
X172520000Y-96580000D02*
X171240000Y-96580000D01*
X173480000Y-96580000D02*
X174760000Y-96580000D01*
X174760000Y-96580000D02*
X174760000Y-98420000D01*
X174760000Y-98420000D02*
X173480000Y-98420000D01*
%TO.C,R1*%
X125240000Y-95580000D02*
X125240000Y-97420000D01*
X125240000Y-97420000D02*
X126520000Y-97420000D01*
X126520000Y-95580000D02*
X125240000Y-95580000D01*
X127480000Y-95580000D02*
X128760000Y-95580000D01*
X128760000Y-95580000D02*
X128760000Y-97420000D01*
X128760000Y-97420000D02*
X127480000Y-97420000D01*
D12*
%TO.C,TP2*%
X168250000Y-85000000D02*
G75*
G02*
X164750000Y-85000000I-1750000J0D01*
G01*
X164750000Y-85000000D02*
G75*
G02*
X168250000Y-85000000I1750000J0D01*
G01*
D10*
%TO.C,R5*%
X161080000Y-83240000D02*
X161080000Y-84520000D01*
X161080000Y-86760000D02*
X161080000Y-85480000D01*
X162920000Y-83240000D02*
X161080000Y-83240000D01*
X162920000Y-84520000D02*
X162920000Y-83240000D01*
X162920000Y-85480000D02*
X162920000Y-86760000D01*
X162920000Y-86760000D02*
X161080000Y-86760000D01*
%TO.C,R6*%
X122240000Y-90080000D02*
X122240000Y-91920000D01*
X122240000Y-91920000D02*
X123520000Y-91920000D01*
X123520000Y-90080000D02*
X122240000Y-90080000D01*
X124480000Y-90080000D02*
X125760000Y-90080000D01*
X125760000Y-90080000D02*
X125760000Y-91920000D01*
X125760000Y-91920000D02*
X124480000Y-91920000D01*
D11*
%TO.C,U3*%
X124900000Y-84450000D02*
X123100000Y-84450000D01*
X124900000Y-85600000D02*
X124900000Y-86400000D01*
X124900000Y-87550000D02*
X123100000Y-87550000D01*
X122610000Y-84350000D02*
G75*
G02*
X122350000Y-84350000I-130000J0D01*
G01*
X122350000Y-84350000D02*
G75*
G02*
X122610000Y-84350000I130000J0D01*
G01*
D12*
%TO.C,D2*%
X147045000Y-83880000D02*
X147445000Y-83880000D01*
X147045000Y-85000000D02*
X147045000Y-83880000D01*
X147445000Y-83880000D02*
X147445000Y-85000000D01*
X147445000Y-85000000D02*
X147045000Y-85000000D01*
X147445000Y-85000000D02*
X147445000Y-78840000D01*
X148735000Y-85000000D02*
X148735000Y-85000000D01*
X148735000Y-85000000D02*
X148735000Y-87670000D01*
X148735000Y-87670000D02*
X148735000Y-85000000D01*
X148735000Y-87670000D02*
X148735000Y-87670000D01*
X151275000Y-85000000D02*
X151275000Y-85000000D01*
X151275000Y-85000000D02*
X151275000Y-87670000D01*
X151275000Y-87670000D02*
X151275000Y-85000000D01*
X151275000Y-87670000D02*
X151275000Y-87670000D01*
X152565000Y-85000000D02*
X147445000Y-85000000D01*
X152565000Y-85000000D02*
X152565000Y-78840000D01*
X147445000Y-78840000D02*
G75*
G02*
X152565000Y-78840000I2560000J0D01*
G01*
D10*
%TO.C,Q2*%
X142270000Y-87920000D02*
X143730000Y-87920000D01*
X142270000Y-89910000D02*
X142270000Y-88990000D01*
X142270000Y-90980000D02*
X143730000Y-90980000D01*
X143730000Y-87920000D02*
X143730000Y-88960000D01*
X143730000Y-90980000D02*
X143730000Y-89940000D01*
D11*
%TO.C,D6*%
X114300000Y-88050000D02*
X114300000Y-84490000D01*
X114980000Y-83730000D02*
X114300000Y-84490000D01*
X114980000Y-88810000D02*
X114300000Y-88050000D01*
X115000000Y-83730000D02*
X118300000Y-83730000D01*
X118300000Y-83730000D02*
X118300000Y-88810000D01*
X118300000Y-88810000D02*
X115000000Y-88810000D01*
D10*
%TO.C,Q1*%
X120470000Y-95270000D02*
X121510000Y-95270000D01*
X120470000Y-96730000D02*
X120470000Y-95270000D01*
X122460000Y-96730000D02*
X121540000Y-96730000D01*
X123530000Y-95270000D02*
X122490000Y-95270000D01*
X123530000Y-96730000D02*
X123530000Y-95270000D01*
D11*
%TO.C,U2*%
X154950000Y-84600000D02*
X154950000Y-86400000D01*
X156100000Y-84600000D02*
X156900000Y-84600000D01*
X158050000Y-84600000D02*
X158050000Y-86400000D01*
X154980000Y-87020000D02*
G75*
G02*
X154720000Y-87020000I-130000J0D01*
G01*
X154720000Y-87020000D02*
G75*
G02*
X154980000Y-87020000I130000J0D01*
G01*
%TO.C,D4*%
X184700000Y-83960000D02*
X188000000Y-83960000D01*
X184700000Y-89040000D02*
X184700000Y-83960000D01*
X188000000Y-89040000D02*
X184700000Y-89040000D01*
X188020000Y-83960000D02*
X188700000Y-84720000D01*
X188020000Y-89040000D02*
X188700000Y-88280000D01*
X188700000Y-84720000D02*
X188700000Y-88280000D01*
D12*
%TO.C,TP3*%
X119250000Y-92000000D02*
G75*
G02*
X115750000Y-92000000I-1750000J0D01*
G01*
X115750000Y-92000000D02*
G75*
G02*
X119250000Y-92000000I1750000J0D01*
G01*
D11*
%TO.C,U1*%
X180100000Y-83950000D02*
X181900000Y-83950000D01*
X180100000Y-85900000D02*
X180100000Y-85100000D01*
X180100000Y-87050000D02*
X181900000Y-87050000D01*
X182650000Y-87150000D02*
G75*
G02*
X182390000Y-87150000I-130000J0D01*
G01*
X182390000Y-87150000D02*
G75*
G02*
X182650000Y-87150000I130000J0D01*
G01*
D12*
%TO.C,D3*%
X177580000Y-78735000D02*
X177580000Y-78735000D01*
X177580000Y-78735000D02*
X180250000Y-78735000D01*
X177580000Y-81275000D02*
X177580000Y-81275000D01*
X177580000Y-81275000D02*
X180250000Y-81275000D01*
X180250000Y-77045000D02*
X181370000Y-77045000D01*
X180250000Y-77445000D02*
X180250000Y-77045000D01*
X180250000Y-77445000D02*
X186410000Y-77445000D01*
X180250000Y-78735000D02*
X177580000Y-78735000D01*
X180250000Y-78735000D02*
X180250000Y-78735000D01*
X180250000Y-81275000D02*
X177580000Y-81275000D01*
X180250000Y-81275000D02*
X180250000Y-81275000D01*
X180250000Y-82565000D02*
X180250000Y-77445000D01*
X180250000Y-82565000D02*
X186410000Y-82565000D01*
X181370000Y-77045000D02*
X181370000Y-77445000D01*
X181370000Y-77445000D02*
X180250000Y-77445000D01*
X186410000Y-77445000D02*
G75*
G02*
X186410000Y-82565000I0J-2560000D01*
G01*
%TO.C,TP1*%
X187750000Y-94000000D02*
G75*
G02*
X184250000Y-94000000I-1750000J0D01*
G01*
X184250000Y-94000000D02*
G75*
G02*
X187750000Y-94000000I1750000J0D01*
G01*
%TD*%
%LPC*%
D13*
%TO.C,D5*%
X157670000Y-78700000D03*
X155130000Y-78700000D03*
%TD*%
D14*
%TO.C,R4*%
X180000000Y-92000000D03*
X182000000Y-92000000D03*
%TD*%
%TO.C,R2*%
X143500000Y-83500000D03*
X141500000Y-83500000D03*
%TD*%
D15*
%TO.C,D1*%
X126750000Y-78725000D03*
D16*
X126750000Y-81265000D03*
%TD*%
D17*
%TO.C,Q3*%
X172050000Y-93500000D03*
X173950000Y-93500000D03*
X173000000Y-91500000D03*
%TD*%
D14*
%TO.C,R3*%
X174000000Y-97500000D03*
X172000000Y-97500000D03*
%TD*%
%TO.C,R1*%
X128000000Y-96500000D03*
X126000000Y-96500000D03*
%TD*%
D18*
%TO.C,TP2*%
X166500000Y-85000000D03*
%TD*%
D19*
%TO.C,R5*%
X162000000Y-86000000D03*
X162000000Y-84000000D03*
%TD*%
D14*
%TO.C,R6*%
X125000000Y-91000000D03*
X123000000Y-91000000D03*
%TD*%
D20*
%TO.C,U3*%
X122700000Y-85050000D03*
X122700000Y-86000000D03*
X122700000Y-86950000D03*
X125300000Y-86950000D03*
X125300000Y-85050000D03*
%TD*%
D15*
%TO.C,D2*%
X151275000Y-88750000D03*
D16*
X148735000Y-88750000D03*
%TD*%
D21*
%TO.C,Q2*%
X142000000Y-88500000D03*
X142000000Y-90400000D03*
X144000000Y-89450000D03*
%TD*%
D13*
%TO.C,D6*%
X116000000Y-85000000D03*
X116000000Y-87540000D03*
%TD*%
D17*
%TO.C,Q1*%
X121050000Y-97000000D03*
X122950000Y-97000000D03*
X122000000Y-95000000D03*
%TD*%
D22*
%TO.C,U2*%
X155550000Y-86800000D03*
X156500000Y-86800000D03*
X157450000Y-86800000D03*
X157450000Y-84200000D03*
X155550000Y-84200000D03*
%TD*%
D13*
%TO.C,D4*%
X187000000Y-87770000D03*
X187000000Y-85230000D03*
%TD*%
D18*
%TO.C,TP3*%
X117500000Y-92000000D03*
%TD*%
D20*
%TO.C,U1*%
X182300000Y-86450000D03*
X182300000Y-85500000D03*
X182300000Y-84550000D03*
X179700000Y-84550000D03*
X179700000Y-86450000D03*
%TD*%
D15*
%TO.C,D3*%
X176500000Y-81275000D03*
D16*
X176500000Y-78735000D03*
%TD*%
D18*
%TO.C,TP1*%
X186000000Y-94000000D03*
%TD*%
D23*
%TO.C,J1*%
X165780000Y-97540000D03*
D24*
X165780000Y-95000000D03*
X163240000Y-97540000D03*
X163240000Y-95000000D03*
X160700000Y-97540000D03*
X160700000Y-95000000D03*
X158160000Y-97540000D03*
X158160000Y-95000000D03*
X155620000Y-97540000D03*
X155620000Y-95000000D03*
X153080000Y-97540000D03*
X153080000Y-95000000D03*
X150540000Y-97540000D03*
X150540000Y-95000000D03*
X148000000Y-97540000D03*
X148000000Y-95000000D03*
X145460000Y-97540000D03*
X145460000Y-95000000D03*
X142920000Y-97540000D03*
X142920000Y-95000000D03*
X140380000Y-97540000D03*
X140380000Y-95000000D03*
X137840000Y-97540000D03*
X137840000Y-95000000D03*
X135300000Y-97540000D03*
X135300000Y-95000000D03*
X132760000Y-97540000D03*
X132760000Y-95000000D03*
%TD*%
%LPD*%
M02*
