%TF.GenerationSoftware,KiCad,Pcbnew,8.0.1*%
%TF.CreationDate,2024-03-24T20:30:25+02:00*%
%TF.ProjectId,Sensing_Subsystem,53656e73-696e-4675-9f53-756273797374,rev?*%
%TF.SameCoordinates,Original*%
%TF.FileFunction,Copper,L1,Top*%
%TF.FilePolarity,Positive*%
%FSLAX46Y46*%
G04 Gerber Fmt 4.6, Leading zero omitted, Abs format (unit mm)*
G04 Created by KiCad (PCBNEW 8.0.1) date 2024-03-24 20:30:25*
%MOMM*%
%LPD*%
G01*
G04 APERTURE LIST*
%TA.AperFunction,ComponentPad*%
%ADD10C,1.200000*%
%TD*%
%TA.AperFunction,SMDPad,CuDef*%
%ADD11R,1.130000X1.380000*%
%TD*%
%TA.AperFunction,ComponentPad*%
%ADD12R,1.800000X1.800000*%
%TD*%
%TA.AperFunction,ComponentPad*%
%ADD13C,1.800000*%
%TD*%
%TA.AperFunction,SMDPad,CuDef*%
%ADD14R,0.700000X1.250000*%
%TD*%
%TA.AperFunction,ComponentPad*%
%ADD15C,3.000000*%
%TD*%
%TA.AperFunction,SMDPad,CuDef*%
%ADD16R,1.380000X1.130000*%
%TD*%
%TA.AperFunction,SMDPad,CuDef*%
%ADD17R,1.000000X0.600000*%
%TD*%
%TA.AperFunction,SMDPad,CuDef*%
%ADD18R,1.250000X0.700000*%
%TD*%
%TA.AperFunction,SMDPad,CuDef*%
%ADD19R,0.600000X1.000000*%
%TD*%
%TA.AperFunction,ComponentPad*%
%ADD20R,1.700000X1.700000*%
%TD*%
%TA.AperFunction,ComponentPad*%
%ADD21O,1.700000X1.700000*%
%TD*%
%TA.AperFunction,ViaPad*%
%ADD22C,0.600000*%
%TD*%
%TA.AperFunction,Conductor*%
%ADD23C,0.400000*%
%TD*%
G04 APERTURE END LIST*
D10*
%TO.P,D5,1,A*%
%TO.N,Net-(D5-A)*%
X157670000Y-78700000D03*
%TO.P,D5,2,C*%
%TO.N,+3.3V*%
X155130000Y-78700000D03*
%TD*%
D11*
%TO.P,R4,1,1*%
%TO.N,GND*%
X180000000Y-92000000D03*
%TO.P,R4,2,2*%
%TO.N,Net-(D4-A)*%
X182000000Y-92000000D03*
%TD*%
%TO.P,R2,1,1*%
%TO.N,PA7*%
X143500000Y-83500000D03*
%TO.P,R2,2,2*%
%TO.N,Net-(Q2-B)*%
X141500000Y-83500000D03*
%TD*%
D12*
%TO.P,D1,1,A*%
%TO.N,BATT*%
X126750000Y-78725000D03*
D13*
%TO.P,D1,2,C*%
%TO.N,Net-(D1-C)*%
X126750000Y-81265000D03*
%TD*%
D14*
%TO.P,Q3,1,B*%
%TO.N,Net-(Q3-B)*%
X172050000Y-93500000D03*
%TO.P,Q3,2,E*%
%TO.N,GND*%
X173950000Y-93500000D03*
%TO.P,Q3,3,C*%
%TO.N,Net-(D3-C)*%
X173000000Y-91500000D03*
%TD*%
D11*
%TO.P,R3,1,1*%
%TO.N,PC4*%
X174000000Y-97500000D03*
%TO.P,R3,2,2*%
%TO.N,Net-(Q3-B)*%
X172000000Y-97500000D03*
%TD*%
%TO.P,R1,1,1*%
%TO.N,PA6*%
X128000000Y-96500000D03*
%TO.P,R1,2,2*%
%TO.N,Net-(Q1-B)*%
X126000000Y-96500000D03*
%TD*%
D15*
%TO.P,TP2,1,1*%
%TO.N,Net-(D5-A)*%
X166500000Y-85000000D03*
%TD*%
D16*
%TO.P,R5,1,1*%
%TO.N,GND*%
X162000000Y-86000000D03*
%TO.P,R5,2,2*%
%TO.N,Net-(D5-A)*%
X162000000Y-84000000D03*
%TD*%
D11*
%TO.P,R6,1,1*%
%TO.N,GND*%
X125000000Y-91000000D03*
%TO.P,R6,2,2*%
%TO.N,Net-(D6-A)*%
X123000000Y-91000000D03*
%TD*%
D17*
%TO.P,U3,1,+*%
%TO.N,Net-(D6-A)*%
X122700000Y-85050000D03*
%TO.P,U3,2,GND*%
%TO.N,GND*%
X122700000Y-86000000D03*
%TO.P,U3,3,-*%
%TO.N,PA5*%
X122700000Y-86950000D03*
%TO.P,U3,4,OUT*%
X125300000Y-86950000D03*
%TO.P,U3,5,V+*%
%TO.N,+3.3V*%
X125300000Y-85050000D03*
%TD*%
D12*
%TO.P,D2,1,A*%
%TO.N,BATT*%
X151275000Y-88750000D03*
D13*
%TO.P,D2,2,C*%
%TO.N,Net-(D2-C)*%
X148735000Y-88750000D03*
%TD*%
D18*
%TO.P,Q2,1,B*%
%TO.N,Net-(Q2-B)*%
X142000000Y-88500000D03*
%TO.P,Q2,2,E*%
%TO.N,GND*%
X142000000Y-90400000D03*
%TO.P,Q2,3,C*%
%TO.N,Net-(D2-C)*%
X144000000Y-89450000D03*
%TD*%
D10*
%TO.P,D6,1,A*%
%TO.N,Net-(D6-A)*%
X116000000Y-85000000D03*
%TO.P,D6,2,C*%
%TO.N,+3.3V*%
X116000000Y-87540000D03*
%TD*%
D14*
%TO.P,Q1,1,B*%
%TO.N,Net-(Q1-B)*%
X121050000Y-97000000D03*
%TO.P,Q1,2,E*%
%TO.N,GND*%
X122950000Y-97000000D03*
%TO.P,Q1,3,C*%
%TO.N,Net-(D1-C)*%
X122000000Y-95000000D03*
%TD*%
D19*
%TO.P,U2,1,+*%
%TO.N,Net-(D5-A)*%
X155550000Y-86800000D03*
%TO.P,U2,2,GND*%
%TO.N,GND*%
X156500000Y-86800000D03*
%TO.P,U2,3,-*%
%TO.N,PA4*%
X157450000Y-86800000D03*
%TO.P,U2,4,OUT*%
X157450000Y-84200000D03*
%TO.P,U2,5,V+*%
%TO.N,+3.3V*%
X155550000Y-84200000D03*
%TD*%
D10*
%TO.P,D4,1,A*%
%TO.N,Net-(D4-A)*%
X187000000Y-87770000D03*
%TO.P,D4,2,C*%
%TO.N,+3.3V*%
X187000000Y-85230000D03*
%TD*%
D15*
%TO.P,TP3,1,1*%
%TO.N,Net-(D6-A)*%
X117500000Y-92000000D03*
%TD*%
D17*
%TO.P,U1,1,+*%
%TO.N,Net-(D4-A)*%
X182300000Y-86450000D03*
%TO.P,U1,2,GND*%
%TO.N,GND*%
X182300000Y-85500000D03*
%TO.P,U1,3,-*%
%TO.N,PA3*%
X182300000Y-84550000D03*
%TO.P,U1,4,OUT*%
X179700000Y-84550000D03*
%TO.P,U1,5,V+*%
%TO.N,+3.3V*%
X179700000Y-86450000D03*
%TD*%
D12*
%TO.P,D3,1,A*%
%TO.N,BATT*%
X176500000Y-81275000D03*
D13*
%TO.P,D3,2,C*%
%TO.N,Net-(D3-C)*%
X176500000Y-78735000D03*
%TD*%
D15*
%TO.P,TP1,1,1*%
%TO.N,Net-(D4-A)*%
X186000000Y-94000000D03*
%TD*%
D20*
%TO.P,J1,1,Pin_1*%
%TO.N,unconnected-(J1-Pin_1-Pad1)*%
X165780000Y-97540000D03*
D21*
%TO.P,J1,2,Pin_2*%
%TO.N,+3.3V*%
X165780000Y-95000000D03*
%TO.P,J1,3,Pin_3*%
%TO.N,GND*%
X163240000Y-97540000D03*
%TO.P,J1,4,Pin_4*%
%TO.N,BATT*%
X163240000Y-95000000D03*
%TO.P,J1,5,Pin_5*%
%TO.N,PA3*%
X160700000Y-97540000D03*
%TO.P,J1,6,Pin_6*%
%TO.N,unconnected-(J1-Pin_6-Pad6)*%
X160700000Y-95000000D03*
%TO.P,J1,7,Pin_7*%
%TO.N,PA4*%
X158160000Y-97540000D03*
%TO.P,J1,8,Pin_8*%
%TO.N,unconnected-(J1-Pin_8-Pad8)*%
X158160000Y-95000000D03*
%TO.P,J1,9,Pin_9*%
%TO.N,GND*%
X155620000Y-97540000D03*
%TO.P,J1,10,Pin_10*%
%TO.N,unconnected-(J1-Pin_10-Pad10)*%
X155620000Y-95000000D03*
%TO.P,J1,11,Pin_11*%
%TO.N,PA5*%
X153080000Y-97540000D03*
%TO.P,J1,12,Pin_12*%
%TO.N,unconnected-(J1-Pin_12-Pad12)*%
X153080000Y-95000000D03*
%TO.P,J1,13,Pin_13*%
%TO.N,PA6*%
X150540000Y-97540000D03*
%TO.P,J1,14,Pin_14*%
%TO.N,unconnected-(J1-Pin_14-Pad14)*%
X150540000Y-95000000D03*
%TO.P,J1,15,Pin_15*%
%TO.N,GND*%
X148000000Y-97540000D03*
%TO.P,J1,16,Pin_16*%
%TO.N,unconnected-(J1-Pin_16-Pad16)*%
X148000000Y-95000000D03*
%TO.P,J1,17,Pin_17*%
%TO.N,PA7*%
X145460000Y-97540000D03*
%TO.P,J1,18,Pin_18*%
%TO.N,unconnected-(J1-Pin_18-Pad18)*%
X145460000Y-95000000D03*
%TO.P,J1,19,Pin_19*%
%TO.N,PC4*%
X142920000Y-97540000D03*
%TO.P,J1,20,Pin_20*%
%TO.N,unconnected-(J1-Pin_20-Pad20)*%
X142920000Y-95000000D03*
%TO.P,J1,21,Pin_21*%
%TO.N,unconnected-(J1-Pin_21-Pad21)*%
X140380000Y-97540000D03*
%TO.P,J1,22,Pin_22*%
%TO.N,unconnected-(J1-Pin_22-Pad22)*%
X140380000Y-95000000D03*
%TO.P,J1,23,Pin_23*%
%TO.N,unconnected-(J1-Pin_23-Pad23)*%
X137840000Y-97540000D03*
%TO.P,J1,24,Pin_24*%
%TO.N,unconnected-(J1-Pin_24-Pad24)*%
X137840000Y-95000000D03*
%TO.P,J1,25,Pin_25*%
%TO.N,unconnected-(J1-Pin_25-Pad25)*%
X135300000Y-97540000D03*
%TO.P,J1,26,Pin_26*%
%TO.N,BATT*%
X135300000Y-95000000D03*
%TO.P,J1,27,Pin_27*%
%TO.N,GND*%
X132760000Y-97540000D03*
%TO.P,J1,28,Pin_28*%
%TO.N,+3.3V*%
X132760000Y-95000000D03*
%TD*%
D22*
%TO.N,+3.3V*%
X159000000Y-83000000D03*
X125500000Y-84000000D03*
X154000000Y-83500000D03*
%TO.N,Net-(D6-A)*%
X121000000Y-85500000D03*
X125000000Y-89674264D03*
%TO.N,GND*%
X173950000Y-93500000D03*
X119000000Y-89000000D03*
X155500000Y-88000000D03*
X139000000Y-92000000D03*
X125000000Y-91000000D03*
X184000000Y-85000000D03*
X188000000Y-83000000D03*
%TO.N,PA6*%
X128000000Y-96500000D03*
%TO.N,PA4*%
X157450000Y-84200000D03*
X157450000Y-86800000D03*
%TO.N,PA5*%
X121500000Y-87500000D03*
X126000000Y-87500000D03*
%TO.N,PA3*%
X179700000Y-84550000D03*
X182000000Y-84550000D03*
%TO.N,PA7*%
X143500000Y-83500000D03*
%TO.N,Net-(Q1-B)*%
X122000000Y-97000000D03*
X124500000Y-97000000D03*
%TO.N,Net-(Q2-B)*%
X140000000Y-86000000D03*
X140000000Y-88500000D03*
%TO.N,Net-(Q3-B)*%
X172000000Y-97500000D03*
X171000000Y-94000000D03*
%TD*%
D23*
%TO.N,BATT*%
X188500000Y-94187006D02*
X186787006Y-95900000D01*
X163240000Y-95000000D02*
X156990000Y-88750000D01*
X181035000Y-93090000D02*
X181035000Y-89783528D01*
X181035000Y-89783528D02*
X176500000Y-85248528D01*
X149098478Y-87275000D02*
X135300000Y-87275000D01*
X180019214Y-76835000D02*
X188500000Y-85315786D01*
X126750000Y-78725000D02*
X135300000Y-87275000D01*
X163240000Y-95000000D02*
X171650000Y-86590000D01*
X171650000Y-86590000D02*
X171650000Y-80897994D01*
X151275000Y-88750000D02*
X150573478Y-88750000D01*
X171650000Y-80897994D02*
X175712994Y-76835000D01*
X150573478Y-88750000D02*
X149098478Y-87275000D01*
X186787006Y-95900000D02*
X183845000Y-95900000D01*
X176500000Y-85248528D02*
X176500000Y-81275000D01*
X135300000Y-87275000D02*
X135300000Y-95000000D01*
X175712994Y-76835000D02*
X180019214Y-76835000D01*
X183845000Y-95900000D02*
X181035000Y-93090000D01*
X156990000Y-88750000D02*
X151275000Y-88750000D01*
X188500000Y-85315786D02*
X188500000Y-94187006D01*
%TO.N,Net-(D1-C)*%
X123600000Y-87000000D02*
X123600000Y-88400000D01*
X123600000Y-88400000D02*
X122000000Y-90000000D01*
X126750000Y-81265000D02*
X126750000Y-85200000D01*
X126750000Y-85200000D02*
X126200000Y-85750000D01*
X126200000Y-85750000D02*
X124850000Y-85750000D01*
X124850000Y-85750000D02*
X123600000Y-87000000D01*
X122000000Y-90000000D02*
X122000000Y-95000000D01*
%TO.N,Net-(D2-C)*%
X148735000Y-88750000D02*
X144700000Y-88750000D01*
X144700000Y-88750000D02*
X144000000Y-89450000D01*
%TO.N,Net-(D3-C)*%
X173000000Y-82235000D02*
X173000000Y-91500000D01*
X176500000Y-78735000D02*
X173000000Y-82235000D01*
%TO.N,Net-(D4-A)*%
X186270000Y-87770000D02*
X184950000Y-86450000D01*
X187000000Y-87770000D02*
X186270000Y-87770000D01*
X187000000Y-89000000D02*
X184000000Y-92000000D01*
X187000000Y-87770000D02*
X187000000Y-89000000D01*
X186000000Y-94000000D02*
X184000000Y-92000000D01*
X184000000Y-92000000D02*
X182000000Y-92000000D01*
X184950000Y-86450000D02*
X182300000Y-86450000D01*
%TO.N,+3.3V*%
X155130000Y-83780000D02*
X155550000Y-84200000D01*
X185620000Y-83850000D02*
X181400000Y-83850000D01*
X177038478Y-77435000D02*
X178550000Y-78946522D01*
X172250000Y-81146522D02*
X175961522Y-77435000D01*
X180800000Y-85350000D02*
X179700000Y-86450000D01*
X178550000Y-78946522D02*
X178550000Y-86450000D01*
X154850000Y-83500000D02*
X155550000Y-84200000D01*
X187000000Y-85230000D02*
X185620000Y-83850000D01*
X119190000Y-84350000D02*
X124600000Y-84350000D01*
X165780000Y-94000000D02*
X169000000Y-94000000D01*
X124600000Y-84350000D02*
X125300000Y-85050000D01*
X125300000Y-84200000D02*
X125500000Y-84000000D01*
X175961522Y-77435000D02*
X177038478Y-77435000D01*
X155130000Y-78700000D02*
X155130000Y-83780000D01*
X125300000Y-85050000D02*
X125300000Y-84200000D01*
X169000000Y-94000000D02*
X172250000Y-90750000D01*
X178550000Y-86450000D02*
X179700000Y-86450000D01*
X156750000Y-83000000D02*
X159000000Y-83000000D01*
X116000000Y-87540000D02*
X119190000Y-84350000D01*
X165780000Y-95000000D02*
X165780000Y-94000000D01*
X155160000Y-84590000D02*
X155550000Y-84200000D01*
X172250000Y-90750000D02*
X172250000Y-81146522D01*
X154000000Y-83500000D02*
X154850000Y-83500000D01*
X155550000Y-84200000D02*
X156750000Y-83000000D01*
X180800000Y-84450000D02*
X180800000Y-85350000D01*
X181400000Y-83850000D02*
X180800000Y-84450000D01*
%TO.N,Net-(D5-A)*%
X160700000Y-85300000D02*
X162000000Y-84000000D01*
X155550000Y-86150000D02*
X156400000Y-85300000D01*
X166500000Y-85000000D02*
X163000000Y-85000000D01*
X156400000Y-85300000D02*
X160700000Y-85300000D01*
X157670000Y-78700000D02*
X162000000Y-83030000D01*
X162000000Y-83030000D02*
X162000000Y-84000000D01*
X155550000Y-86800000D02*
X155550000Y-86150000D01*
X163000000Y-85000000D02*
X162000000Y-84000000D01*
%TO.N,Net-(D6-A)*%
X125000000Y-89674264D02*
X124325736Y-89674264D01*
X123700000Y-98025000D02*
X123700000Y-94355000D01*
X124325736Y-89674264D02*
X123000000Y-91000000D01*
X122700000Y-85050000D02*
X121450000Y-85050000D01*
X125965000Y-89910000D02*
X125729264Y-89674264D01*
X121450000Y-85050000D02*
X121000000Y-85500000D01*
X115000000Y-86000000D02*
X116000000Y-85000000D01*
X115000000Y-92500000D02*
X115000000Y-86000000D01*
X123000000Y-91000000D02*
X122600000Y-91400000D01*
X117500000Y-95000000D02*
X120525000Y-98025000D01*
X123700000Y-94355000D02*
X125965000Y-92090000D01*
X125965000Y-92090000D02*
X125965000Y-89910000D01*
X117500000Y-95000000D02*
X115000000Y-92500000D01*
X125729264Y-89674264D02*
X125000000Y-89674264D01*
X117500000Y-92000000D02*
X117500000Y-95000000D01*
X120525000Y-98025000D02*
X123700000Y-98025000D01*
%TO.N,GND*%
X175450000Y-92000000D02*
X173950000Y-93500000D01*
X142000000Y-90400000D02*
X140600000Y-90400000D01*
X122950000Y-97000000D02*
X122950000Y-93050000D01*
X164700000Y-99000000D02*
X174555000Y-99000000D01*
X155500000Y-88000000D02*
X156200000Y-88000000D01*
X175000000Y-98555000D02*
X175000000Y-94550000D01*
X119000000Y-89000000D02*
X122000000Y-86000000D01*
X156200000Y-88000000D02*
X156500000Y-87700000D01*
X122950000Y-93050000D02*
X125000000Y-91000000D01*
X180000000Y-92000000D02*
X175450000Y-92000000D01*
X163240000Y-97540000D02*
X164700000Y-99000000D01*
X183500000Y-85500000D02*
X184000000Y-85000000D01*
X174555000Y-99000000D02*
X175000000Y-98555000D01*
X122000000Y-86000000D02*
X122700000Y-86000000D01*
X140600000Y-90400000D02*
X139000000Y-92000000D01*
X175000000Y-94550000D02*
X173950000Y-93500000D01*
X182300000Y-85500000D02*
X183500000Y-85500000D01*
X156500000Y-87700000D02*
X156500000Y-86800000D01*
%TO.N,PC4*%
X159410000Y-98057767D02*
X158467767Y-99000000D01*
X144380000Y-99000000D02*
X142920000Y-97540000D01*
X172790000Y-96290000D02*
X160142233Y-96290000D01*
X158467767Y-99000000D02*
X144380000Y-99000000D01*
X159410000Y-97022233D02*
X159410000Y-98057767D01*
X160142233Y-96290000D02*
X159410000Y-97022233D01*
X174000000Y-97500000D02*
X172790000Y-96290000D01*
%TO.N,PA5*%
X131510000Y-98057767D02*
X132242233Y-98790000D01*
X135817767Y-98790000D02*
X136550000Y-98057767D01*
X137282233Y-96290000D02*
X151830000Y-96290000D01*
X125300000Y-86950000D02*
X126175000Y-87825000D01*
X126000000Y-87650000D02*
X126175000Y-87825000D01*
X126000000Y-87500000D02*
X126000000Y-87650000D01*
X136550000Y-98057767D02*
X136550000Y-97022233D01*
X132242233Y-98790000D02*
X135817767Y-98790000D01*
X122700000Y-86950000D02*
X122050000Y-86950000D01*
X136550000Y-97022233D02*
X137282233Y-96290000D01*
X131510000Y-93160000D02*
X131510000Y-98057767D01*
X122050000Y-86950000D02*
X121500000Y-87500000D01*
X126175000Y-87825000D02*
X131510000Y-93160000D01*
X151830000Y-96290000D02*
X153080000Y-97540000D01*
%TO.N,PA3*%
X182300000Y-84550000D02*
X182000000Y-84550000D01*
%TO.N,Net-(Q1-B)*%
X125500000Y-97000000D02*
X126000000Y-96500000D01*
X121050000Y-97000000D02*
X122000000Y-97000000D01*
X124500000Y-97000000D02*
X125500000Y-97000000D01*
%TO.N,Net-(Q2-B)*%
X141500000Y-83500000D02*
X141500000Y-84500000D01*
X141500000Y-84500000D02*
X140000000Y-86000000D01*
X140000000Y-88500000D02*
X142000000Y-88500000D01*
%TO.N,Net-(Q3-B)*%
X171500000Y-93500000D02*
X171000000Y-94000000D01*
X172050000Y-93500000D02*
X171500000Y-93500000D01*
%TD*%
%TA.AperFunction,Conductor*%
%TO.N,GND*%
G36*
X175359311Y-76020185D02*
G01*
X175405066Y-76072989D01*
X175415010Y-76142147D01*
X175385985Y-76205703D01*
X175361164Y-76227601D01*
X175330634Y-76248000D01*
X175266448Y-76290887D01*
X171105887Y-80451448D01*
X171055608Y-80526698D01*
X171042416Y-80546440D01*
X171029225Y-80566182D01*
X171029221Y-80566189D01*
X170976421Y-80693661D01*
X170976418Y-80693671D01*
X170949500Y-80828998D01*
X170949500Y-86248480D01*
X170929815Y-86315519D01*
X170913181Y-86336161D01*
X163611994Y-93637347D01*
X163550671Y-93670832D01*
X163492225Y-93669442D01*
X163475410Y-93664937D01*
X163240001Y-93644341D01*
X163239999Y-93644341D01*
X163004597Y-93664936D01*
X163004593Y-93664936D01*
X163004592Y-93664937D01*
X163004587Y-93664938D01*
X163004584Y-93664939D01*
X162987778Y-93669442D01*
X162917928Y-93667778D01*
X162868005Y-93637348D01*
X157436546Y-88205888D01*
X157436545Y-88205887D01*
X157321807Y-88129222D01*
X157194332Y-88076421D01*
X157194322Y-88076418D01*
X157058996Y-88049500D01*
X157058994Y-88049500D01*
X157058993Y-88049500D01*
X152799499Y-88049500D01*
X152732460Y-88029815D01*
X152686705Y-87977011D01*
X152675499Y-87925500D01*
X152675499Y-87802129D01*
X152675498Y-87802123D01*
X152675323Y-87800499D01*
X152669229Y-87743797D01*
X152669091Y-87742516D01*
X152618797Y-87607671D01*
X152618793Y-87607664D01*
X152532547Y-87492455D01*
X152532544Y-87492452D01*
X152417335Y-87406206D01*
X152417328Y-87406202D01*
X152282482Y-87355908D01*
X152282483Y-87355908D01*
X152222883Y-87349501D01*
X152222881Y-87349500D01*
X152222873Y-87349500D01*
X152222864Y-87349500D01*
X150327129Y-87349500D01*
X150327123Y-87349501D01*
X150267512Y-87355909D01*
X150259969Y-87357692D01*
X150259423Y-87355385D01*
X150201467Y-87359517D01*
X150140173Y-87326038D01*
X149545024Y-86730888D01*
X149545023Y-86730887D01*
X149430285Y-86654222D01*
X149302810Y-86601421D01*
X149302800Y-86601418D01*
X149167474Y-86574500D01*
X149167472Y-86574500D01*
X149167471Y-86574500D01*
X140808787Y-86574500D01*
X140741748Y-86554815D01*
X140695993Y-86502011D01*
X140686049Y-86432853D01*
X140703794Y-86384527D01*
X140725788Y-86349524D01*
X140725789Y-86349522D01*
X140762008Y-86246011D01*
X140791366Y-86199289D01*
X142044113Y-84946543D01*
X142046928Y-84942331D01*
X142070530Y-84907009D01*
X142120771Y-84831817D01*
X142120771Y-84831816D01*
X142120775Y-84831811D01*
X142163039Y-84729775D01*
X142206879Y-84675372D01*
X142234265Y-84661047D01*
X142307331Y-84633796D01*
X142422546Y-84547546D01*
X142422546Y-84547545D01*
X142425689Y-84545193D01*
X142491153Y-84520776D01*
X142559426Y-84535627D01*
X142574311Y-84545193D01*
X142577453Y-84547545D01*
X142577454Y-84547546D01*
X142596369Y-84561706D01*
X142692669Y-84633796D01*
X142692671Y-84633797D01*
X142827517Y-84684091D01*
X142827516Y-84684091D01*
X142834444Y-84684835D01*
X142887127Y-84690500D01*
X144112872Y-84690499D01*
X144172483Y-84684091D01*
X144307331Y-84633796D01*
X144422546Y-84547546D01*
X144508796Y-84432331D01*
X144559091Y-84297483D01*
X144565500Y-84237873D01*
X144565500Y-83500003D01*
X153194435Y-83500003D01*
X153214630Y-83679249D01*
X153214631Y-83679254D01*
X153274211Y-83849523D01*
X153370184Y-84002262D01*
X153497738Y-84129816D01*
X153537885Y-84155042D01*
X153627334Y-84211247D01*
X153650478Y-84225789D01*
X153820739Y-84285366D01*
X153820745Y-84285368D01*
X153820750Y-84285369D01*
X153999996Y-84305565D01*
X154000000Y-84305565D01*
X154000004Y-84305565D01*
X154179249Y-84285369D01*
X154179251Y-84285368D01*
X154179255Y-84285368D01*
X154179258Y-84285366D01*
X154179262Y-84285366D01*
X154326429Y-84233870D01*
X154396208Y-84230308D01*
X154456835Y-84265036D01*
X154489063Y-84327030D01*
X154486424Y-84379462D01*
X154487608Y-84379698D01*
X154459500Y-84521003D01*
X154459500Y-84521006D01*
X154459500Y-84658994D01*
X154459500Y-84658996D01*
X154459499Y-84658996D01*
X154486418Y-84794322D01*
X154486421Y-84794332D01*
X154539222Y-84921807D01*
X154615887Y-85036545D01*
X154713454Y-85134112D01*
X154828192Y-85210777D01*
X154943359Y-85258480D01*
X154955672Y-85263580D01*
X154955676Y-85263580D01*
X154955677Y-85263581D01*
X155091003Y-85290500D01*
X155119480Y-85290500D01*
X155186519Y-85310185D01*
X155232274Y-85362989D01*
X155242218Y-85432147D01*
X155213193Y-85495703D01*
X155207161Y-85502181D01*
X155005888Y-85703453D01*
X155005887Y-85703454D01*
X154929222Y-85818192D01*
X154876421Y-85945667D01*
X154874653Y-85951498D01*
X154873316Y-85951092D01*
X154854629Y-85992979D01*
X154806203Y-86057669D01*
X154806202Y-86057671D01*
X154755908Y-86192517D01*
X154749517Y-86251969D01*
X154749501Y-86252123D01*
X154749500Y-86252135D01*
X154749500Y-87347870D01*
X154749501Y-87347876D01*
X154755908Y-87407483D01*
X154806202Y-87542328D01*
X154806206Y-87542335D01*
X154892452Y-87657544D01*
X154892455Y-87657547D01*
X155007664Y-87743793D01*
X155007671Y-87743797D01*
X155025643Y-87750500D01*
X155142517Y-87794091D01*
X155202127Y-87800500D01*
X155897872Y-87800499D01*
X155957483Y-87794091D01*
X155982380Y-87784804D01*
X156052070Y-87779819D01*
X156069049Y-87784805D01*
X156092619Y-87793596D01*
X156092627Y-87793598D01*
X156152155Y-87799999D01*
X156152172Y-87800000D01*
X156250000Y-87800000D01*
X156250000Y-87642106D01*
X156269685Y-87575067D01*
X156274734Y-87567794D01*
X156276708Y-87565157D01*
X156293796Y-87542331D01*
X156294666Y-87540000D01*
X156324335Y-87460452D01*
X156344091Y-87407483D01*
X156350500Y-87347873D01*
X156350499Y-86673998D01*
X156370183Y-86606961D01*
X156422987Y-86561206D01*
X156474499Y-86550000D01*
X156525500Y-86550000D01*
X156592539Y-86569685D01*
X156638294Y-86622489D01*
X156649500Y-86674000D01*
X156649500Y-86748082D01*
X156648720Y-86761965D01*
X156644435Y-86799997D01*
X156644435Y-86800002D01*
X156648720Y-86838034D01*
X156649500Y-86851917D01*
X156649500Y-87347870D01*
X156649501Y-87347876D01*
X156655908Y-87407483D01*
X156706203Y-87542329D01*
X156725266Y-87567794D01*
X156749684Y-87633258D01*
X156750000Y-87642106D01*
X156750000Y-87800000D01*
X156847828Y-87800000D01*
X156847844Y-87799999D01*
X156907372Y-87793598D01*
X156907375Y-87793597D01*
X156930949Y-87784805D01*
X157000640Y-87779819D01*
X157017619Y-87784805D01*
X157042511Y-87794089D01*
X157042517Y-87794091D01*
X157102127Y-87800500D01*
X157797872Y-87800499D01*
X157857483Y-87794091D01*
X157992331Y-87743796D01*
X158107546Y-87657546D01*
X158193796Y-87542331D01*
X158244091Y-87407483D01*
X158250500Y-87347873D01*
X158250499Y-86851917D01*
X158251279Y-86838034D01*
X158252820Y-86824364D01*
X158255565Y-86800000D01*
X158255325Y-86797873D01*
X158251279Y-86761963D01*
X158250499Y-86748078D01*
X158250499Y-86252129D01*
X158250498Y-86252123D01*
X158244091Y-86192517D01*
X158239145Y-86179255D01*
X158234885Y-86167832D01*
X158229901Y-86098140D01*
X158263387Y-86036818D01*
X158324711Y-86003333D01*
X158351067Y-86000500D01*
X160686000Y-86000500D01*
X160753039Y-86020185D01*
X160798794Y-86072989D01*
X160810000Y-86124500D01*
X160810000Y-86612844D01*
X160816401Y-86672372D01*
X160816403Y-86672379D01*
X160866645Y-86807086D01*
X160866649Y-86807093D01*
X160952809Y-86922187D01*
X160952812Y-86922190D01*
X161067906Y-87008350D01*
X161067913Y-87008354D01*
X161202620Y-87058596D01*
X161202627Y-87058598D01*
X161262155Y-87064999D01*
X161262172Y-87065000D01*
X161750000Y-87065000D01*
X161750000Y-86250000D01*
X162250000Y-86250000D01*
X162250000Y-87065000D01*
X162737828Y-87065000D01*
X162737844Y-87064999D01*
X162797372Y-87058598D01*
X162797379Y-87058596D01*
X162932086Y-87008354D01*
X162932093Y-87008350D01*
X163047187Y-86922190D01*
X163047190Y-86922187D01*
X163133350Y-86807093D01*
X163133354Y-86807086D01*
X163183596Y-86672379D01*
X163183598Y-86672372D01*
X163189999Y-86612844D01*
X163190000Y-86612827D01*
X163190000Y-86250000D01*
X162250000Y-86250000D01*
X161750000Y-86250000D01*
X161750000Y-85874000D01*
X161769685Y-85806961D01*
X161822489Y-85761206D01*
X161874000Y-85750000D01*
X163190000Y-85750000D01*
X163203181Y-85736819D01*
X163264504Y-85703334D01*
X163290862Y-85700500D01*
X164540058Y-85700500D01*
X164607097Y-85720185D01*
X164652852Y-85772989D01*
X164656238Y-85781162D01*
X164661648Y-85795667D01*
X164675635Y-85833166D01*
X164812770Y-86084309D01*
X164812775Y-86084317D01*
X164984254Y-86313387D01*
X164984270Y-86313405D01*
X165186594Y-86515729D01*
X165186612Y-86515745D01*
X165415682Y-86687224D01*
X165415690Y-86687229D01*
X165666833Y-86824364D01*
X165666832Y-86824364D01*
X165666836Y-86824365D01*
X165666839Y-86824367D01*
X165934954Y-86924369D01*
X165934960Y-86924370D01*
X165934962Y-86924371D01*
X166214566Y-86985195D01*
X166214568Y-86985195D01*
X166214572Y-86985196D01*
X166468220Y-87003337D01*
X166499999Y-87005610D01*
X166500000Y-87005610D01*
X166500001Y-87005610D01*
X166528595Y-87003564D01*
X166785428Y-86985196D01*
X167065046Y-86924369D01*
X167333161Y-86824367D01*
X167584315Y-86687226D01*
X167813395Y-86515739D01*
X168015739Y-86313395D01*
X168187226Y-86084315D01*
X168324367Y-85833161D01*
X168424369Y-85565046D01*
X168426891Y-85553454D01*
X168485195Y-85285433D01*
X168485195Y-85285432D01*
X168485196Y-85285428D01*
X168505610Y-85000000D01*
X168485196Y-84714572D01*
X168479959Y-84690500D01*
X168424371Y-84434962D01*
X168424370Y-84434960D01*
X168424369Y-84434954D01*
X168324367Y-84166839D01*
X168321704Y-84161963D01*
X168187229Y-83915690D01*
X168187224Y-83915682D01*
X168015745Y-83686612D01*
X168015729Y-83686594D01*
X167813405Y-83484270D01*
X167813387Y-83484254D01*
X167584317Y-83312775D01*
X167584309Y-83312770D01*
X167333166Y-83175635D01*
X167333167Y-83175635D01*
X167196784Y-83124767D01*
X167065046Y-83075631D01*
X167065043Y-83075630D01*
X167065037Y-83075628D01*
X166785433Y-83014804D01*
X166500001Y-82994390D01*
X166499999Y-82994390D01*
X166214566Y-83014804D01*
X165934962Y-83075628D01*
X165666833Y-83175635D01*
X165415690Y-83312770D01*
X165415682Y-83312775D01*
X165186612Y-83484254D01*
X165186594Y-83484270D01*
X164984270Y-83686594D01*
X164984254Y-83686612D01*
X164812775Y-83915682D01*
X164812770Y-83915690D01*
X164675635Y-84166833D01*
X164656240Y-84218834D01*
X164614368Y-84274768D01*
X164548903Y-84299184D01*
X164540058Y-84299500D01*
X163341519Y-84299500D01*
X163274480Y-84279815D01*
X163253838Y-84263181D01*
X163226818Y-84236161D01*
X163193333Y-84174838D01*
X163190499Y-84148480D01*
X163190499Y-83387129D01*
X163190498Y-83387123D01*
X163190497Y-83387116D01*
X163184091Y-83327517D01*
X163181565Y-83320745D01*
X163133797Y-83192671D01*
X163133793Y-83192664D01*
X163047547Y-83077455D01*
X163047544Y-83077452D01*
X162932335Y-82991206D01*
X162932328Y-82991202D01*
X162797482Y-82940908D01*
X162797484Y-82940908D01*
X162784882Y-82939554D01*
X162720331Y-82912816D01*
X162680483Y-82855423D01*
X162676520Y-82840455D01*
X162673580Y-82825672D01*
X162662739Y-82799499D01*
X162620777Y-82698192D01*
X162544112Y-82583454D01*
X162544111Y-82583453D01*
X158806660Y-78846003D01*
X158773175Y-78784680D01*
X158770870Y-78746886D01*
X158775215Y-78700000D01*
X158756397Y-78496917D01*
X158700582Y-78300750D01*
X158609673Y-78118179D01*
X158486764Y-77955421D01*
X158486762Y-77955418D01*
X158336041Y-77818019D01*
X158336039Y-77818017D01*
X158162642Y-77710655D01*
X158162635Y-77710651D01*
X158067546Y-77673814D01*
X157972456Y-77636976D01*
X157771976Y-77599500D01*
X157568024Y-77599500D01*
X157367544Y-77636976D01*
X157367541Y-77636976D01*
X157367541Y-77636977D01*
X157177364Y-77710651D01*
X157177357Y-77710655D01*
X157003960Y-77818017D01*
X157003958Y-77818019D01*
X156853237Y-77955418D01*
X156730327Y-78118178D01*
X156639422Y-78300739D01*
X156639417Y-78300752D01*
X156583602Y-78496917D01*
X156564785Y-78699999D01*
X156564785Y-78700000D01*
X156583602Y-78903082D01*
X156639417Y-79099247D01*
X156639422Y-79099260D01*
X156730327Y-79281821D01*
X156853237Y-79444581D01*
X157003958Y-79581980D01*
X157003960Y-79581982D01*
X157103141Y-79643392D01*
X157177363Y-79689348D01*
X157367544Y-79763024D01*
X157568024Y-79800500D01*
X157568026Y-79800500D01*
X157728481Y-79800500D01*
X157795520Y-79820185D01*
X157816162Y-79836819D01*
X160921148Y-82941805D01*
X160954633Y-83003128D01*
X160949649Y-83072820D01*
X160932733Y-83103797D01*
X160866206Y-83192664D01*
X160866202Y-83192671D01*
X160815908Y-83327517D01*
X160809501Y-83387116D01*
X160809501Y-83387123D01*
X160809500Y-83387135D01*
X160809500Y-84148480D01*
X160789815Y-84215519D01*
X160773181Y-84236161D01*
X160446162Y-84563181D01*
X160384839Y-84596666D01*
X160358481Y-84599500D01*
X158374500Y-84599500D01*
X158307461Y-84579815D01*
X158261706Y-84527011D01*
X158250500Y-84475501D01*
X158250499Y-84251921D01*
X158251279Y-84238034D01*
X158251298Y-84237870D01*
X158255565Y-84200000D01*
X158251279Y-84161963D01*
X158250499Y-84148078D01*
X158250499Y-83824500D01*
X158270184Y-83757461D01*
X158322988Y-83711706D01*
X158374499Y-83700500D01*
X158574506Y-83700500D01*
X158640477Y-83719506D01*
X158650474Y-83725787D01*
X158650475Y-83725787D01*
X158650478Y-83725789D01*
X158809094Y-83781291D01*
X158820745Y-83785368D01*
X158820750Y-83785369D01*
X158999996Y-83805565D01*
X159000000Y-83805565D01*
X159000004Y-83805565D01*
X159179249Y-83785369D01*
X159179252Y-83785368D01*
X159179255Y-83785368D01*
X159349522Y-83725789D01*
X159502262Y-83629816D01*
X159629816Y-83502262D01*
X159725789Y-83349522D01*
X159785368Y-83179255D01*
X159785369Y-83179249D01*
X159805565Y-83000003D01*
X159805565Y-82999996D01*
X159785369Y-82820750D01*
X159785368Y-82820745D01*
X159747117Y-82711431D01*
X159725789Y-82650478D01*
X159718153Y-82638326D01*
X159673753Y-82567664D01*
X159629816Y-82497738D01*
X159502262Y-82370184D01*
X159495925Y-82366202D01*
X159349523Y-82274211D01*
X159179254Y-82214631D01*
X159179249Y-82214630D01*
X159000004Y-82194435D01*
X158999996Y-82194435D01*
X158820750Y-82214630D01*
X158820745Y-82214631D01*
X158650474Y-82274212D01*
X158640477Y-82280494D01*
X158574506Y-82299500D01*
X156681003Y-82299500D01*
X156572590Y-82321065D01*
X156572589Y-82321065D01*
X156545671Y-82326420D01*
X156418190Y-82379224D01*
X156303454Y-82455887D01*
X156303453Y-82455888D01*
X156042181Y-82717161D01*
X155980858Y-82750646D01*
X155911166Y-82745662D01*
X155855233Y-82703790D01*
X155830816Y-82638326D01*
X155830500Y-82629480D01*
X155830500Y-79605318D01*
X155850185Y-79538279D01*
X155870957Y-79513685D01*
X155946764Y-79444579D01*
X156069673Y-79281821D01*
X156160582Y-79099250D01*
X156216397Y-78903083D01*
X156235215Y-78700000D01*
X156216397Y-78496917D01*
X156160582Y-78300750D01*
X156069673Y-78118179D01*
X155946764Y-77955421D01*
X155946762Y-77955418D01*
X155796041Y-77818019D01*
X155796039Y-77818017D01*
X155622642Y-77710655D01*
X155622635Y-77710651D01*
X155527546Y-77673814D01*
X155432456Y-77636976D01*
X155231976Y-77599500D01*
X155028024Y-77599500D01*
X154827544Y-77636976D01*
X154827541Y-77636976D01*
X154827541Y-77636977D01*
X154637364Y-77710651D01*
X154637357Y-77710655D01*
X154463960Y-77818017D01*
X154463958Y-77818019D01*
X154313237Y-77955418D01*
X154190327Y-78118178D01*
X154099422Y-78300739D01*
X154099417Y-78300752D01*
X154043602Y-78496917D01*
X154024785Y-78699999D01*
X154024785Y-78700000D01*
X154043602Y-78903082D01*
X154099417Y-79099247D01*
X154099422Y-79099260D01*
X154135225Y-79171161D01*
X154190327Y-79281821D01*
X154313236Y-79444579D01*
X154389039Y-79513682D01*
X154425319Y-79573391D01*
X154429500Y-79605318D01*
X154429500Y-82627434D01*
X154409815Y-82694473D01*
X154357011Y-82740228D01*
X154287853Y-82750172D01*
X154264546Y-82744476D01*
X154179257Y-82714632D01*
X154179249Y-82714630D01*
X154000004Y-82694435D01*
X153999996Y-82694435D01*
X153820750Y-82714630D01*
X153820745Y-82714631D01*
X153650476Y-82774211D01*
X153497737Y-82870184D01*
X153370184Y-82997737D01*
X153274211Y-83150476D01*
X153214631Y-83320745D01*
X153214630Y-83320750D01*
X153194435Y-83499996D01*
X153194435Y-83500003D01*
X144565500Y-83500003D01*
X144565499Y-82762128D01*
X144559091Y-82702517D01*
X144549014Y-82675500D01*
X144508797Y-82567671D01*
X144508793Y-82567664D01*
X144422547Y-82452455D01*
X144422544Y-82452452D01*
X144307335Y-82366206D01*
X144307328Y-82366202D01*
X144172482Y-82315908D01*
X144172483Y-82315908D01*
X144112883Y-82309501D01*
X144112881Y-82309500D01*
X144112873Y-82309500D01*
X144112864Y-82309500D01*
X142887129Y-82309500D01*
X142887123Y-82309501D01*
X142827516Y-82315908D01*
X142692671Y-82366202D01*
X142692669Y-82366203D01*
X142574311Y-82454807D01*
X142508847Y-82479224D01*
X142440574Y-82464373D01*
X142425689Y-82454807D01*
X142307330Y-82366203D01*
X142307328Y-82366202D01*
X142172482Y-82315908D01*
X142172483Y-82315908D01*
X142112883Y-82309501D01*
X142112881Y-82309500D01*
X142112873Y-82309500D01*
X142112864Y-82309500D01*
X140887129Y-82309500D01*
X140887123Y-82309501D01*
X140827516Y-82315908D01*
X140692671Y-82366202D01*
X140692664Y-82366206D01*
X140577455Y-82452452D01*
X140577452Y-82452455D01*
X140491206Y-82567664D01*
X140491202Y-82567671D01*
X140440908Y-82702517D01*
X140436270Y-82745662D01*
X140434501Y-82762123D01*
X140434500Y-82762135D01*
X140434500Y-84237870D01*
X140434501Y-84237876D01*
X140440908Y-84297483D01*
X140486665Y-84420163D01*
X140491649Y-84489855D01*
X140458164Y-84551177D01*
X139800710Y-85208631D01*
X139753985Y-85237991D01*
X139650476Y-85274211D01*
X139650475Y-85274212D01*
X139497737Y-85370184D01*
X139370184Y-85497737D01*
X139274211Y-85650476D01*
X139214631Y-85820745D01*
X139214630Y-85820750D01*
X139194435Y-85999996D01*
X139194435Y-86000003D01*
X139214630Y-86179249D01*
X139214631Y-86179254D01*
X139274211Y-86349524D01*
X139296206Y-86384527D01*
X139315207Y-86451764D01*
X139294840Y-86518599D01*
X139241572Y-86563813D01*
X139191213Y-86574500D01*
X135641519Y-86574500D01*
X135574480Y-86554815D01*
X135553838Y-86538181D01*
X128186818Y-79171161D01*
X128153333Y-79109838D01*
X128150499Y-79083480D01*
X128150499Y-77777129D01*
X128150498Y-77777123D01*
X128150497Y-77777116D01*
X128144091Y-77717517D01*
X128141530Y-77710651D01*
X128093797Y-77582671D01*
X128093793Y-77582664D01*
X128007547Y-77467455D01*
X128007544Y-77467452D01*
X127892335Y-77381206D01*
X127892328Y-77381202D01*
X127757482Y-77330908D01*
X127757483Y-77330908D01*
X127697883Y-77324501D01*
X127697881Y-77324500D01*
X127697873Y-77324500D01*
X127697864Y-77324500D01*
X125802129Y-77324500D01*
X125802123Y-77324501D01*
X125742516Y-77330908D01*
X125607671Y-77381202D01*
X125607664Y-77381206D01*
X125492455Y-77467452D01*
X125492452Y-77467455D01*
X125406206Y-77582664D01*
X125406202Y-77582671D01*
X125355908Y-77717517D01*
X125349501Y-77777116D01*
X125349501Y-77777123D01*
X125349500Y-77777135D01*
X125349500Y-79672870D01*
X125349501Y-79672876D01*
X125355908Y-79732483D01*
X125406202Y-79867328D01*
X125406206Y-79867335D01*
X125492452Y-79982544D01*
X125492455Y-79982547D01*
X125607664Y-80068793D01*
X125607673Y-80068798D01*
X125687904Y-80098722D01*
X125743838Y-80140593D01*
X125768256Y-80206057D01*
X125753405Y-80274330D01*
X125735802Y-80298886D01*
X125641019Y-80401849D01*
X125514075Y-80596151D01*
X125420842Y-80808699D01*
X125363866Y-81033691D01*
X125363864Y-81033702D01*
X125344700Y-81264993D01*
X125344700Y-81265006D01*
X125363864Y-81496297D01*
X125363866Y-81496308D01*
X125420842Y-81721300D01*
X125514075Y-81933848D01*
X125641016Y-82128147D01*
X125641019Y-82128151D01*
X125641021Y-82128153D01*
X125798216Y-82298913D01*
X125798219Y-82298915D01*
X125798222Y-82298918D01*
X125981364Y-82441463D01*
X125981367Y-82441465D01*
X125981374Y-82441470D01*
X125984512Y-82443168D01*
X125985549Y-82444197D01*
X125985662Y-82444271D01*
X125985646Y-82444294D01*
X126034104Y-82492383D01*
X126049500Y-82552225D01*
X126049500Y-83175503D01*
X126029815Y-83242542D01*
X125977011Y-83288297D01*
X125907853Y-83298241D01*
X125859532Y-83280499D01*
X125849526Y-83274212D01*
X125679254Y-83214631D01*
X125679249Y-83214630D01*
X125500004Y-83194435D01*
X125499996Y-83194435D01*
X125320750Y-83214630D01*
X125320745Y-83214631D01*
X125150476Y-83274211D01*
X124997737Y-83370184D01*
X124870184Y-83497737D01*
X124808500Y-83595907D01*
X124756165Y-83642198D01*
X124687111Y-83652846D01*
X124679318Y-83651553D01*
X124668995Y-83649500D01*
X124668994Y-83649500D01*
X124668993Y-83649500D01*
X119121007Y-83649500D01*
X119121005Y-83649500D01*
X119058373Y-83661958D01*
X119027057Y-83668188D01*
X118985671Y-83676420D01*
X118985670Y-83676420D01*
X118858190Y-83729224D01*
X118743454Y-83805887D01*
X117302697Y-85246644D01*
X117241374Y-85280129D01*
X117171682Y-85275145D01*
X117115749Y-85233273D01*
X117091332Y-85167809D01*
X117091545Y-85147522D01*
X117091750Y-85145318D01*
X117105215Y-85000000D01*
X117086397Y-84796917D01*
X117030582Y-84600750D01*
X117028548Y-84596666D01*
X116975363Y-84489855D01*
X116939673Y-84418179D01*
X116839379Y-84285368D01*
X116816762Y-84255418D01*
X116666041Y-84118019D01*
X116666039Y-84118017D01*
X116492642Y-84010655D01*
X116492635Y-84010651D01*
X116397546Y-83973814D01*
X116302456Y-83936976D01*
X116101976Y-83899500D01*
X115898024Y-83899500D01*
X115697544Y-83936976D01*
X115697541Y-83936976D01*
X115697541Y-83936977D01*
X115507364Y-84010651D01*
X115507357Y-84010655D01*
X115333960Y-84118017D01*
X115333958Y-84118019D01*
X115183237Y-84255418D01*
X115060327Y-84418178D01*
X114969422Y-84600739D01*
X114969417Y-84600752D01*
X114913602Y-84796917D01*
X114894785Y-84999999D01*
X114894785Y-85000003D01*
X114899128Y-85046883D01*
X114885712Y-85115453D01*
X114863338Y-85146003D01*
X114455887Y-85553454D01*
X114379222Y-85668192D01*
X114326421Y-85795667D01*
X114326418Y-85795679D01*
X114302402Y-85916414D01*
X114302402Y-85916420D01*
X114299500Y-85931007D01*
X114299500Y-92431006D01*
X114299500Y-92568994D01*
X114299500Y-92568996D01*
X114299499Y-92568996D01*
X114326418Y-92704322D01*
X114326421Y-92704332D01*
X114379222Y-92831807D01*
X114455887Y-92946545D01*
X114455888Y-92946546D01*
X116955885Y-95446542D01*
X116955886Y-95446543D01*
X120078453Y-98569111D01*
X120078454Y-98569112D01*
X120193192Y-98645777D01*
X120301165Y-98690500D01*
X120320672Y-98698580D01*
X120320676Y-98698580D01*
X120320677Y-98698581D01*
X120456003Y-98725500D01*
X120456006Y-98725500D01*
X123768995Y-98725500D01*
X123860041Y-98707389D01*
X123904328Y-98698580D01*
X124031811Y-98645775D01*
X124146542Y-98569114D01*
X124244114Y-98471542D01*
X124320775Y-98356811D01*
X124373580Y-98229328D01*
X124400500Y-98093993D01*
X124400500Y-97927589D01*
X124420185Y-97860550D01*
X124472989Y-97814795D01*
X124510617Y-97804369D01*
X124679249Y-97785369D01*
X124679252Y-97785368D01*
X124679255Y-97785368D01*
X124849522Y-97725789D01*
X124850488Y-97725181D01*
X124859523Y-97719506D01*
X124925494Y-97700500D01*
X125568995Y-97700500D01*
X125607288Y-97692882D01*
X125631482Y-97690499D01*
X126612871Y-97690499D01*
X126612872Y-97690499D01*
X126672483Y-97684091D01*
X126807331Y-97633796D01*
X126922546Y-97547546D01*
X126922546Y-97547545D01*
X126925689Y-97545193D01*
X126991153Y-97520776D01*
X127059426Y-97535627D01*
X127074311Y-97545193D01*
X127077453Y-97547545D01*
X127077454Y-97547546D01*
X127155306Y-97605826D01*
X127192669Y-97633796D01*
X127192671Y-97633797D01*
X127327517Y-97684091D01*
X127327516Y-97684091D01*
X127334444Y-97684835D01*
X127387127Y-97690500D01*
X128612872Y-97690499D01*
X128672483Y-97684091D01*
X128807331Y-97633796D01*
X128922546Y-97547546D01*
X129008796Y-97432331D01*
X129059091Y-97297483D01*
X129065500Y-97237873D01*
X129065499Y-95762128D01*
X129059091Y-95702517D01*
X129052871Y-95685841D01*
X129008797Y-95567671D01*
X129008793Y-95567664D01*
X128922547Y-95452455D01*
X128922544Y-95452452D01*
X128807335Y-95366206D01*
X128807328Y-95366202D01*
X128672482Y-95315908D01*
X128672483Y-95315908D01*
X128612883Y-95309501D01*
X128612881Y-95309500D01*
X128612873Y-95309500D01*
X128612864Y-95309500D01*
X127387129Y-95309500D01*
X127387123Y-95309501D01*
X127327516Y-95315908D01*
X127192671Y-95366202D01*
X127192669Y-95366203D01*
X127074311Y-95454807D01*
X127008847Y-95479224D01*
X126940574Y-95464373D01*
X126925689Y-95454807D01*
X126914648Y-95446542D01*
X126807331Y-95366204D01*
X126807330Y-95366203D01*
X126807328Y-95366202D01*
X126672482Y-95315908D01*
X126672483Y-95315908D01*
X126612883Y-95309501D01*
X126612881Y-95309500D01*
X126612873Y-95309500D01*
X126612864Y-95309500D01*
X125387129Y-95309500D01*
X125387123Y-95309501D01*
X125327516Y-95315908D01*
X125192671Y-95366202D01*
X125192664Y-95366206D01*
X125077455Y-95452452D01*
X125077452Y-95452455D01*
X124991206Y-95567664D01*
X124991202Y-95567671D01*
X124940908Y-95702517D01*
X124936246Y-95745886D01*
X124934501Y-95762123D01*
X124934500Y-95762135D01*
X124934500Y-96129183D01*
X124914815Y-96196222D01*
X124862011Y-96241977D01*
X124792853Y-96251921D01*
X124769546Y-96246225D01*
X124679257Y-96214632D01*
X124679250Y-96214630D01*
X124510616Y-96195630D01*
X124446202Y-96168563D01*
X124406647Y-96110968D01*
X124400500Y-96072410D01*
X124400500Y-94696519D01*
X124420185Y-94629480D01*
X124436819Y-94608838D01*
X126509112Y-92536545D01*
X126509114Y-92536543D01*
X126585775Y-92421811D01*
X126596797Y-92395203D01*
X126638578Y-92294332D01*
X126638580Y-92294328D01*
X126659233Y-92190499D01*
X126665500Y-92158996D01*
X126665500Y-89841004D01*
X126638581Y-89705677D01*
X126638580Y-89705676D01*
X126638580Y-89705672D01*
X126633252Y-89692809D01*
X126585778Y-89578195D01*
X126585769Y-89578179D01*
X126576911Y-89564921D01*
X126556034Y-89498243D01*
X126574520Y-89430864D01*
X126626499Y-89384174D01*
X126695469Y-89372999D01*
X126759532Y-89400886D01*
X126767685Y-89408342D01*
X128225546Y-90866202D01*
X130773181Y-93413837D01*
X130806666Y-93475160D01*
X130809500Y-93501518D01*
X130809500Y-97988773D01*
X130809500Y-98126761D01*
X130809500Y-98126763D01*
X130809499Y-98126763D01*
X130836418Y-98262089D01*
X130836421Y-98262099D01*
X130889222Y-98389574D01*
X130965887Y-98504312D01*
X131795687Y-99334112D01*
X131910425Y-99410777D01*
X132037900Y-99463578D01*
X132037905Y-99463580D01*
X132037909Y-99463580D01*
X132037910Y-99463581D01*
X132173236Y-99490500D01*
X132173239Y-99490500D01*
X135886763Y-99490500D01*
X135977807Y-99472389D01*
X136022095Y-99463580D01*
X136085836Y-99437177D01*
X136149574Y-99410777D01*
X136149575Y-99410776D01*
X136149578Y-99410775D01*
X136264310Y-99334114D01*
X136925217Y-98673205D01*
X136986538Y-98639722D01*
X137056229Y-98644706D01*
X137084016Y-98659311D01*
X137162170Y-98714035D01*
X137376337Y-98813903D01*
X137604592Y-98875063D01*
X137781034Y-98890500D01*
X137839999Y-98895659D01*
X137840000Y-98895659D01*
X137840001Y-98895659D01*
X137898966Y-98890500D01*
X138075408Y-98875063D01*
X138303663Y-98813903D01*
X138517830Y-98714035D01*
X138711401Y-98578495D01*
X138878495Y-98411401D01*
X139008425Y-98225842D01*
X139063002Y-98182217D01*
X139132500Y-98175023D01*
X139194855Y-98206546D01*
X139211575Y-98225842D01*
X139341278Y-98411078D01*
X139341505Y-98411401D01*
X139508599Y-98578495D01*
X139587573Y-98633793D01*
X139702165Y-98714032D01*
X139702167Y-98714033D01*
X139702170Y-98714035D01*
X139916337Y-98813903D01*
X140144592Y-98875063D01*
X140321034Y-98890500D01*
X140379999Y-98895659D01*
X140380000Y-98895659D01*
X140380001Y-98895659D01*
X140438966Y-98890500D01*
X140615408Y-98875063D01*
X140843663Y-98813903D01*
X141057830Y-98714035D01*
X141251401Y-98578495D01*
X141418495Y-98411401D01*
X141548425Y-98225842D01*
X141603002Y-98182217D01*
X141672500Y-98175023D01*
X141734855Y-98206546D01*
X141751575Y-98225842D01*
X141881278Y-98411078D01*
X141881505Y-98411401D01*
X142048599Y-98578495D01*
X142127573Y-98633793D01*
X142242165Y-98714032D01*
X142242167Y-98714033D01*
X142242170Y-98714035D01*
X142456337Y-98813903D01*
X142684592Y-98875063D01*
X142861034Y-98890500D01*
X142919999Y-98895659D01*
X142920000Y-98895659D01*
X142920001Y-98895659D01*
X142978966Y-98890500D01*
X143155408Y-98875063D01*
X143172216Y-98870559D01*
X143242064Y-98872218D01*
X143291994Y-98902651D01*
X143933453Y-99544111D01*
X143933454Y-99544112D01*
X144048192Y-99620777D01*
X144175667Y-99673578D01*
X144175672Y-99673580D01*
X144175676Y-99673580D01*
X144175677Y-99673581D01*
X144311003Y-99700500D01*
X144311006Y-99700500D01*
X158536763Y-99700500D01*
X158627807Y-99682389D01*
X158672095Y-99673580D01*
X158735836Y-99647177D01*
X158799574Y-99620777D01*
X158799575Y-99620776D01*
X158799578Y-99620775D01*
X158914310Y-99544114D01*
X159785217Y-98673205D01*
X159846538Y-98639722D01*
X159916229Y-98644706D01*
X159944016Y-98659311D01*
X160022170Y-98714035D01*
X160236337Y-98813903D01*
X160464592Y-98875063D01*
X160641034Y-98890500D01*
X160699999Y-98895659D01*
X160700000Y-98895659D01*
X160700001Y-98895659D01*
X160758966Y-98890500D01*
X160935408Y-98875063D01*
X161163663Y-98813903D01*
X161377830Y-98714035D01*
X161571401Y-98578495D01*
X161738495Y-98411401D01*
X161868730Y-98225405D01*
X161923307Y-98181781D01*
X161992805Y-98174587D01*
X162055160Y-98206110D01*
X162071879Y-98225405D01*
X162201890Y-98411078D01*
X162368917Y-98578105D01*
X162562421Y-98713600D01*
X162776507Y-98813429D01*
X162776516Y-98813433D01*
X162990000Y-98870634D01*
X162990000Y-97973012D01*
X163047007Y-98005925D01*
X163174174Y-98040000D01*
X163305826Y-98040000D01*
X163432993Y-98005925D01*
X163490000Y-97973012D01*
X163490000Y-98870633D01*
X163703483Y-98813433D01*
X163703492Y-98813429D01*
X163917578Y-98713600D01*
X164111078Y-98578108D01*
X164233133Y-98456053D01*
X164294456Y-98422568D01*
X164364148Y-98427552D01*
X164420082Y-98469423D01*
X164436997Y-98500401D01*
X164486202Y-98632328D01*
X164486206Y-98632335D01*
X164572452Y-98747544D01*
X164572455Y-98747547D01*
X164687664Y-98833793D01*
X164687671Y-98833797D01*
X164822517Y-98884091D01*
X164822516Y-98884091D01*
X164829444Y-98884835D01*
X164882127Y-98890500D01*
X166677872Y-98890499D01*
X166737483Y-98884091D01*
X166872331Y-98833796D01*
X166987546Y-98747546D01*
X167073796Y-98632331D01*
X167124091Y-98497483D01*
X167130500Y-98437873D01*
X167130499Y-97114499D01*
X167150184Y-97047461D01*
X167202987Y-97001706D01*
X167254499Y-96990500D01*
X170810500Y-96990500D01*
X170877539Y-97010185D01*
X170923294Y-97062989D01*
X170934500Y-97114500D01*
X170934500Y-98237870D01*
X170934501Y-98237876D01*
X170940908Y-98297483D01*
X170991202Y-98432328D01*
X170991206Y-98432335D01*
X171077452Y-98547544D01*
X171077455Y-98547547D01*
X171192664Y-98633793D01*
X171192671Y-98633797D01*
X171327517Y-98684091D01*
X171327516Y-98684091D01*
X171334444Y-98684835D01*
X171387127Y-98690500D01*
X172612872Y-98690499D01*
X172672483Y-98684091D01*
X172807331Y-98633796D01*
X172922546Y-98547546D01*
X172922546Y-98547545D01*
X172925689Y-98545193D01*
X172991153Y-98520776D01*
X173059426Y-98535627D01*
X173074311Y-98545193D01*
X173077453Y-98547545D01*
X173077454Y-98547546D01*
X173147035Y-98599634D01*
X173192669Y-98633796D01*
X173192671Y-98633797D01*
X173327517Y-98684091D01*
X173327516Y-98684091D01*
X173334444Y-98684835D01*
X173387127Y-98690500D01*
X174612872Y-98690499D01*
X174672483Y-98684091D01*
X174807331Y-98633796D01*
X174922546Y-98547546D01*
X175008796Y-98432331D01*
X175059091Y-98297483D01*
X175065500Y-98237873D01*
X175065499Y-96762128D01*
X175059091Y-96702517D01*
X175046562Y-96668926D01*
X175008797Y-96567671D01*
X175008793Y-96567664D01*
X174922547Y-96452455D01*
X174922544Y-96452452D01*
X174807335Y-96366206D01*
X174807328Y-96366202D01*
X174672482Y-96315908D01*
X174672483Y-96315908D01*
X174612883Y-96309501D01*
X174612881Y-96309500D01*
X174612873Y-96309500D01*
X174612865Y-96309500D01*
X173851519Y-96309500D01*
X173784480Y-96289815D01*
X173763838Y-96273181D01*
X173236546Y-95745888D01*
X173236545Y-95745887D01*
X173121807Y-95669222D01*
X172994332Y-95616421D01*
X172994322Y-95616418D01*
X172858996Y-95589500D01*
X172858994Y-95589500D01*
X172858993Y-95589500D01*
X167181785Y-95589500D01*
X167114746Y-95569815D01*
X167068991Y-95517011D01*
X167059047Y-95447853D01*
X167062010Y-95433407D01*
X167095210Y-95309500D01*
X167115063Y-95235408D01*
X167135659Y-95000000D01*
X167121250Y-94835308D01*
X167135017Y-94766808D01*
X167183632Y-94716625D01*
X167244778Y-94700500D01*
X169068996Y-94700500D01*
X169160040Y-94682389D01*
X169204328Y-94673580D01*
X169272947Y-94645157D01*
X169331807Y-94620777D01*
X169331808Y-94620776D01*
X169331811Y-94620775D01*
X169446543Y-94544114D01*
X169991729Y-93998926D01*
X170053050Y-93965443D01*
X170122741Y-93970427D01*
X170178675Y-94012298D01*
X170202628Y-94072725D01*
X170214630Y-94179250D01*
X170214631Y-94179254D01*
X170274211Y-94349523D01*
X170357570Y-94482187D01*
X170370184Y-94502262D01*
X170497738Y-94629816D01*
X170522153Y-94645157D01*
X170635893Y-94716625D01*
X170650478Y-94725789D01*
X170708701Y-94746162D01*
X170820745Y-94785368D01*
X170820750Y-94785369D01*
X170999996Y-94805565D01*
X171000000Y-94805565D01*
X171000004Y-94805565D01*
X171179249Y-94785369D01*
X171179252Y-94785368D01*
X171179255Y-94785368D01*
X171349522Y-94725789D01*
X171364107Y-94716625D01*
X171432615Y-94673578D01*
X171495371Y-94634145D01*
X171562607Y-94615145D01*
X171589862Y-94618463D01*
X171592506Y-94619087D01*
X171592517Y-94619091D01*
X171652127Y-94625500D01*
X172447872Y-94625499D01*
X172507483Y-94619091D01*
X172642331Y-94568796D01*
X172757546Y-94482546D01*
X172843796Y-94367331D01*
X172843888Y-94367086D01*
X172884084Y-94259313D01*
X172925954Y-94203379D01*
X172991419Y-94178961D01*
X173059692Y-94193812D01*
X173109098Y-94243217D01*
X173116448Y-94259312D01*
X173156645Y-94367086D01*
X173156649Y-94367093D01*
X173242809Y-94482187D01*
X173242812Y-94482190D01*
X173357906Y-94568350D01*
X173357913Y-94568354D01*
X173492620Y-94618596D01*
X173492627Y-94618598D01*
X173552155Y-94624999D01*
X173552172Y-94625000D01*
X173700000Y-94625000D01*
X173700000Y-93750000D01*
X174200000Y-93750000D01*
X174200000Y-94625000D01*
X174347828Y-94625000D01*
X174347844Y-94624999D01*
X174407372Y-94618598D01*
X174407379Y-94618596D01*
X174542086Y-94568354D01*
X174542093Y-94568350D01*
X174657187Y-94482190D01*
X174657190Y-94482187D01*
X174743350Y-94367093D01*
X174743354Y-94367086D01*
X174793596Y-94232379D01*
X174793598Y-94232372D01*
X174799999Y-94172844D01*
X174800000Y-94172827D01*
X174800000Y-93750000D01*
X174200000Y-93750000D01*
X173700000Y-93750000D01*
X173700000Y-92533897D01*
X173719685Y-92466858D01*
X173724726Y-92459596D01*
X173788055Y-92375000D01*
X174200000Y-92375000D01*
X174200000Y-93250000D01*
X174800000Y-93250000D01*
X174800000Y-92827172D01*
X174799999Y-92827155D01*
X174793598Y-92767627D01*
X174793596Y-92767620D01*
X174743354Y-92632913D01*
X174743350Y-92632906D01*
X174657190Y-92517812D01*
X174657187Y-92517809D01*
X174542093Y-92431649D01*
X174542086Y-92431645D01*
X174407379Y-92381403D01*
X174407372Y-92381401D01*
X174347844Y-92375000D01*
X174200000Y-92375000D01*
X173788055Y-92375000D01*
X173793796Y-92367331D01*
X173837558Y-92250000D01*
X178935000Y-92250000D01*
X178935000Y-92737844D01*
X178941401Y-92797372D01*
X178941403Y-92797379D01*
X178991645Y-92932086D01*
X178991649Y-92932093D01*
X179077809Y-93047187D01*
X179077812Y-93047190D01*
X179192906Y-93133350D01*
X179192913Y-93133354D01*
X179327620Y-93183596D01*
X179327627Y-93183598D01*
X179387155Y-93189999D01*
X179387172Y-93190000D01*
X179750000Y-93190000D01*
X179750000Y-92250000D01*
X178935000Y-92250000D01*
X173837558Y-92250000D01*
X173844091Y-92232483D01*
X173850500Y-92172873D01*
X173850500Y-91750000D01*
X178935000Y-91750000D01*
X179750000Y-91750000D01*
X179750000Y-90810000D01*
X179387155Y-90810000D01*
X179327627Y-90816401D01*
X179327620Y-90816403D01*
X179192913Y-90866645D01*
X179192906Y-90866649D01*
X179077812Y-90952809D01*
X179077809Y-90952812D01*
X178991649Y-91067906D01*
X178991645Y-91067913D01*
X178941403Y-91202620D01*
X178941401Y-91202627D01*
X178935000Y-91262155D01*
X178935000Y-91750000D01*
X173850500Y-91750000D01*
X173850499Y-90827128D01*
X173844091Y-90767517D01*
X173816367Y-90693186D01*
X173793797Y-90632671D01*
X173793795Y-90632668D01*
X173725233Y-90541080D01*
X173700816Y-90475615D01*
X173700500Y-90466769D01*
X173700500Y-82576518D01*
X173720185Y-82509479D01*
X173736819Y-82488837D01*
X174291808Y-81933848D01*
X174887821Y-81337834D01*
X174949142Y-81304351D01*
X175018834Y-81309335D01*
X175074767Y-81351207D01*
X175099184Y-81416671D01*
X175099500Y-81425517D01*
X175099500Y-82222870D01*
X175099501Y-82222876D01*
X175105908Y-82282483D01*
X175156202Y-82417328D01*
X175156206Y-82417335D01*
X175242452Y-82532544D01*
X175242455Y-82532547D01*
X175357664Y-82618793D01*
X175357671Y-82618797D01*
X175386314Y-82629480D01*
X175492517Y-82669091D01*
X175552127Y-82675500D01*
X175675500Y-82675499D01*
X175742539Y-82695183D01*
X175788294Y-82747987D01*
X175799500Y-82799499D01*
X175799500Y-85179534D01*
X175799500Y-85317522D01*
X175799500Y-85317524D01*
X175799499Y-85317524D01*
X175826418Y-85452850D01*
X175826421Y-85452860D01*
X175879222Y-85580335D01*
X175955887Y-85695073D01*
X175955888Y-85695074D01*
X180298181Y-90037366D01*
X180331666Y-90098689D01*
X180334500Y-90125047D01*
X180334500Y-90686000D01*
X180314815Y-90753039D01*
X180262011Y-90798794D01*
X180260982Y-90799017D01*
X180250000Y-90810000D01*
X180250000Y-93190000D01*
X180254612Y-93194612D01*
X180305943Y-93209685D01*
X180351698Y-93262489D01*
X180360522Y-93289813D01*
X180361419Y-93294324D01*
X180361421Y-93294332D01*
X180414222Y-93421807D01*
X180490887Y-93536545D01*
X183398453Y-96444111D01*
X183398457Y-96444114D01*
X183482097Y-96500000D01*
X183482098Y-96500001D01*
X183513180Y-96520770D01*
X183513195Y-96520778D01*
X183626406Y-96567671D01*
X183640672Y-96573580D01*
X183640676Y-96573580D01*
X183640677Y-96573581D01*
X183776004Y-96600500D01*
X183776007Y-96600500D01*
X186856002Y-96600500D01*
X186947046Y-96582389D01*
X186991334Y-96573580D01*
X187115196Y-96522275D01*
X187118813Y-96520777D01*
X187118814Y-96520776D01*
X187118817Y-96520775D01*
X187233549Y-96444114D01*
X189044113Y-94633549D01*
X189046608Y-94629816D01*
X189120775Y-94518817D01*
X189173580Y-94391334D01*
X189186350Y-94327135D01*
X189200500Y-94256001D01*
X189200500Y-85246792D01*
X189194266Y-85215455D01*
X189191805Y-85203083D01*
X189173580Y-85111458D01*
X189165778Y-85092623D01*
X189120777Y-84983978D01*
X189044112Y-84869240D01*
X180465759Y-76290887D01*
X180426628Y-76264741D01*
X180371045Y-76227601D01*
X180326240Y-76173991D01*
X180317533Y-76104666D01*
X180347687Y-76041638D01*
X180407130Y-76004918D01*
X180439936Y-76000500D01*
X189375500Y-76000500D01*
X189442539Y-76020185D01*
X189488294Y-76072989D01*
X189499500Y-76124500D01*
X189499500Y-99875500D01*
X189479815Y-99942539D01*
X189427011Y-99988294D01*
X189375500Y-99999500D01*
X114124500Y-99999500D01*
X114057461Y-99979815D01*
X114011706Y-99927011D01*
X114000500Y-99875500D01*
X114000500Y-76124500D01*
X114020185Y-76057461D01*
X114072989Y-76011706D01*
X114124500Y-76000500D01*
X175292272Y-76000500D01*
X175359311Y-76020185D01*
G37*
%TD.AperFunction*%
%TA.AperFunction,Conductor*%
G36*
X120201472Y-85070185D02*
G01*
X120247227Y-85122989D01*
X120257171Y-85192147D01*
X120251474Y-85215455D01*
X120214633Y-85320737D01*
X120214630Y-85320750D01*
X120194435Y-85499996D01*
X120194435Y-85500003D01*
X120214630Y-85679249D01*
X120214631Y-85679254D01*
X120274211Y-85849523D01*
X120352791Y-85974581D01*
X120370184Y-86002262D01*
X120497738Y-86129816D01*
X120539265Y-86155909D01*
X120640225Y-86219347D01*
X120650478Y-86225789D01*
X120725771Y-86252135D01*
X120820745Y-86285368D01*
X120820750Y-86285369D01*
X120999996Y-86305565D01*
X121000000Y-86305565D01*
X121000004Y-86305565D01*
X121179249Y-86285369D01*
X121179252Y-86285368D01*
X121179255Y-86285368D01*
X121349522Y-86225789D01*
X121502262Y-86129816D01*
X121502262Y-86129815D01*
X121508158Y-86126111D01*
X121509505Y-86128255D01*
X121563345Y-86106260D01*
X121632043Y-86119000D01*
X121682948Y-86166859D01*
X121700000Y-86229613D01*
X121700000Y-86275099D01*
X121680315Y-86342138D01*
X121644896Y-86378198D01*
X121639298Y-86381938D01*
X121633711Y-86385672D01*
X121633710Y-86385673D01*
X121603459Y-86405885D01*
X121300708Y-86708633D01*
X121253983Y-86737992D01*
X121150476Y-86774211D01*
X121150475Y-86774212D01*
X120997737Y-86870184D01*
X120870184Y-86997737D01*
X120774211Y-87150476D01*
X120714631Y-87320745D01*
X120714630Y-87320750D01*
X120694435Y-87499996D01*
X120694435Y-87500003D01*
X120714630Y-87679249D01*
X120714631Y-87679254D01*
X120774211Y-87849523D01*
X120865737Y-87995185D01*
X120870184Y-88002262D01*
X120997738Y-88129816D01*
X121078724Y-88180703D01*
X121118802Y-88205886D01*
X121150478Y-88225789D01*
X121318490Y-88284579D01*
X121320745Y-88285368D01*
X121320750Y-88285369D01*
X121499996Y-88305565D01*
X121500000Y-88305565D01*
X121500004Y-88305565D01*
X121679249Y-88285369D01*
X121679252Y-88285368D01*
X121679255Y-88285368D01*
X121849522Y-88225789D01*
X122002262Y-88129816D01*
X122129816Y-88002262D01*
X122225789Y-87849522D01*
X122231379Y-87833547D01*
X122272099Y-87776770D01*
X122337051Y-87751021D01*
X122348421Y-87750499D01*
X122775500Y-87750499D01*
X122842539Y-87770184D01*
X122888294Y-87822988D01*
X122899500Y-87874499D01*
X122899500Y-88058480D01*
X122879815Y-88125519D01*
X122863181Y-88146161D01*
X121455888Y-89553453D01*
X121455887Y-89553454D01*
X121379223Y-89668192D01*
X121326421Y-89795668D01*
X121326418Y-89795680D01*
X121316036Y-89847874D01*
X121316036Y-89847875D01*
X121299500Y-89931004D01*
X121299500Y-93966769D01*
X121279815Y-94033808D01*
X121274767Y-94041080D01*
X121206204Y-94132668D01*
X121206202Y-94132671D01*
X121155908Y-94267517D01*
X121149501Y-94327116D01*
X121149500Y-94327135D01*
X121149500Y-95672870D01*
X121149501Y-95672876D01*
X121156421Y-95737247D01*
X121144014Y-95806006D01*
X121096403Y-95857143D01*
X121033131Y-95874500D01*
X120652130Y-95874500D01*
X120652123Y-95874501D01*
X120592516Y-95880908D01*
X120457671Y-95931202D01*
X120457664Y-95931206D01*
X120342455Y-96017452D01*
X120342452Y-96017455D01*
X120256206Y-96132664D01*
X120256202Y-96132671D01*
X120205908Y-96267517D01*
X120199501Y-96327116D01*
X120199500Y-96327135D01*
X120199500Y-96409481D01*
X120179815Y-96476520D01*
X120127011Y-96522275D01*
X120057853Y-96532219D01*
X119994297Y-96503194D01*
X119987819Y-96497162D01*
X118236819Y-94746162D01*
X118203334Y-94684839D01*
X118200500Y-94658481D01*
X118200500Y-93959941D01*
X118220185Y-93892902D01*
X118272989Y-93847147D01*
X118281158Y-93843762D01*
X118333161Y-93824367D01*
X118584315Y-93687226D01*
X118813395Y-93515739D01*
X119015739Y-93313395D01*
X119187226Y-93084315D01*
X119324367Y-92833161D01*
X119424369Y-92565046D01*
X119485196Y-92285428D01*
X119505610Y-92000000D01*
X119485196Y-91714572D01*
X119424369Y-91434954D01*
X119324367Y-91166839D01*
X119291794Y-91107187D01*
X119187229Y-90915690D01*
X119187224Y-90915682D01*
X119015745Y-90686612D01*
X119015729Y-90686594D01*
X118813405Y-90484270D01*
X118813387Y-90484254D01*
X118584317Y-90312775D01*
X118584309Y-90312770D01*
X118333166Y-90175635D01*
X118333167Y-90175635D01*
X118175333Y-90116766D01*
X118065046Y-90075631D01*
X118065043Y-90075630D01*
X118065037Y-90075628D01*
X117785433Y-90014804D01*
X117500001Y-89994390D01*
X117499999Y-89994390D01*
X117214566Y-90014804D01*
X116934962Y-90075628D01*
X116666833Y-90175635D01*
X116415690Y-90312770D01*
X116415682Y-90312775D01*
X116186612Y-90484254D01*
X116186594Y-90484270D01*
X115984270Y-90686594D01*
X115984254Y-90686612D01*
X115923767Y-90767415D01*
X115867834Y-90809287D01*
X115798142Y-90814271D01*
X115736819Y-90780786D01*
X115703334Y-90719463D01*
X115700500Y-90693105D01*
X115700500Y-88752903D01*
X115720185Y-88685864D01*
X115772989Y-88640109D01*
X115842147Y-88630165D01*
X115847263Y-88631011D01*
X115898024Y-88640500D01*
X115898025Y-88640500D01*
X116101974Y-88640500D01*
X116101976Y-88640500D01*
X116302456Y-88603024D01*
X116492637Y-88529348D01*
X116666041Y-88421981D01*
X116794122Y-88305219D01*
X116816762Y-88284581D01*
X116826608Y-88271543D01*
X116939673Y-88121821D01*
X117030582Y-87939250D01*
X117086397Y-87743083D01*
X117105215Y-87540000D01*
X117100870Y-87493115D01*
X117114284Y-87424549D01*
X117136657Y-87393998D01*
X119443838Y-85086819D01*
X119505161Y-85053334D01*
X119531519Y-85050500D01*
X120134433Y-85050500D01*
X120201472Y-85070185D01*
G37*
%TD.AperFunction*%
%TA.AperFunction,Conductor*%
G36*
X139228169Y-87995185D02*
G01*
X139273924Y-88047989D01*
X139283868Y-88117147D01*
X139275792Y-88143653D01*
X139276511Y-88143905D01*
X139214631Y-88320745D01*
X139214630Y-88320750D01*
X139194435Y-88499996D01*
X139194435Y-88500003D01*
X139214630Y-88679249D01*
X139214631Y-88679254D01*
X139274211Y-88849523D01*
X139369191Y-89000682D01*
X139370184Y-89002262D01*
X139497738Y-89129816D01*
X139498270Y-89130150D01*
X139650474Y-89225787D01*
X139650478Y-89225789D01*
X139820745Y-89285368D01*
X139820750Y-89285369D01*
X139999996Y-89305565D01*
X140000000Y-89305565D01*
X140000004Y-89305565D01*
X140179249Y-89285369D01*
X140179252Y-89285368D01*
X140179255Y-89285368D01*
X140349522Y-89225789D01*
X140350488Y-89225181D01*
X140359523Y-89219506D01*
X140425494Y-89200500D01*
X140966769Y-89200500D01*
X141033808Y-89220185D01*
X141041080Y-89225233D01*
X141132668Y-89293795D01*
X141132671Y-89293797D01*
X141240687Y-89334084D01*
X141296620Y-89375955D01*
X141321038Y-89441419D01*
X141306187Y-89509692D01*
X141256782Y-89559098D01*
X141240688Y-89566448D01*
X141132911Y-89606646D01*
X141132906Y-89606649D01*
X141017812Y-89692809D01*
X141017809Y-89692812D01*
X140931649Y-89807906D01*
X140931645Y-89807913D01*
X140881403Y-89942620D01*
X140881401Y-89942627D01*
X140875000Y-90002155D01*
X140875000Y-90150000D01*
X142966103Y-90150000D01*
X143033142Y-90169685D01*
X143040403Y-90174726D01*
X143132665Y-90243793D01*
X143132668Y-90243795D01*
X143132671Y-90243797D01*
X143267517Y-90294091D01*
X143267516Y-90294091D01*
X143274444Y-90294835D01*
X143327127Y-90300500D01*
X144672872Y-90300499D01*
X144732483Y-90294091D01*
X144867331Y-90243796D01*
X144982546Y-90157546D01*
X145068796Y-90042331D01*
X145119091Y-89907483D01*
X145125500Y-89847873D01*
X145125500Y-89574500D01*
X145145185Y-89507461D01*
X145197989Y-89461706D01*
X145249500Y-89450500D01*
X147452649Y-89450500D01*
X147519688Y-89470185D01*
X147556458Y-89506679D01*
X147626016Y-89613147D01*
X147626019Y-89613151D01*
X147626021Y-89613153D01*
X147783216Y-89783913D01*
X147783219Y-89783915D01*
X147783222Y-89783918D01*
X147966365Y-89926464D01*
X147966371Y-89926468D01*
X147966374Y-89926470D01*
X148170497Y-90036936D01*
X148228735Y-90056929D01*
X148390015Y-90112297D01*
X148390017Y-90112297D01*
X148390019Y-90112298D01*
X148618951Y-90150500D01*
X148618952Y-90150500D01*
X148851048Y-90150500D01*
X148851049Y-90150500D01*
X149079981Y-90112298D01*
X149299503Y-90036936D01*
X149503626Y-89926470D01*
X149686784Y-89783913D01*
X149695130Y-89774846D01*
X149755010Y-89738854D01*
X149824849Y-89740949D01*
X149882468Y-89780469D01*
X149902544Y-89815491D01*
X149931203Y-89892330D01*
X149931206Y-89892335D01*
X150017452Y-90007544D01*
X150017455Y-90007547D01*
X150132664Y-90093793D01*
X150132671Y-90093797D01*
X150267517Y-90144091D01*
X150267516Y-90144091D01*
X150274444Y-90144835D01*
X150327127Y-90150500D01*
X152222872Y-90150499D01*
X152282483Y-90144091D01*
X152417331Y-90093796D01*
X152532546Y-90007546D01*
X152618796Y-89892331D01*
X152669091Y-89757483D01*
X152675500Y-89697873D01*
X152675500Y-89574500D01*
X152695185Y-89507461D01*
X152747989Y-89461706D01*
X152799500Y-89450500D01*
X156648481Y-89450500D01*
X156715520Y-89470185D01*
X156736162Y-89486819D01*
X160690069Y-93440726D01*
X160723554Y-93502049D01*
X160718570Y-93571741D01*
X160676698Y-93627674D01*
X160613196Y-93651935D01*
X160464596Y-93664936D01*
X160464586Y-93664938D01*
X160236344Y-93726094D01*
X160236335Y-93726098D01*
X160022171Y-93825964D01*
X160022169Y-93825965D01*
X159828597Y-93961505D01*
X159661505Y-94128597D01*
X159531575Y-94314158D01*
X159476998Y-94357783D01*
X159407500Y-94364977D01*
X159345145Y-94333454D01*
X159328425Y-94314158D01*
X159198494Y-94128597D01*
X159031402Y-93961506D01*
X159031395Y-93961501D01*
X158837834Y-93825967D01*
X158837830Y-93825965D01*
X158733442Y-93777288D01*
X158623663Y-93726097D01*
X158623659Y-93726096D01*
X158623655Y-93726094D01*
X158395413Y-93664938D01*
X158395403Y-93664936D01*
X158160001Y-93644341D01*
X158159999Y-93644341D01*
X157924596Y-93664936D01*
X157924586Y-93664938D01*
X157696344Y-93726094D01*
X157696335Y-93726098D01*
X157482171Y-93825964D01*
X157482169Y-93825965D01*
X157288597Y-93961505D01*
X157121505Y-94128597D01*
X156991575Y-94314158D01*
X156936998Y-94357783D01*
X156867500Y-94364977D01*
X156805145Y-94333454D01*
X156788425Y-94314158D01*
X156658494Y-94128597D01*
X156491402Y-93961506D01*
X156491395Y-93961501D01*
X156297834Y-93825967D01*
X156297830Y-93825965D01*
X156193442Y-93777288D01*
X156083663Y-93726097D01*
X156083659Y-93726096D01*
X156083655Y-93726094D01*
X155855413Y-93664938D01*
X155855403Y-93664936D01*
X155620001Y-93644341D01*
X155619999Y-93644341D01*
X155384596Y-93664936D01*
X155384586Y-93664938D01*
X155156344Y-93726094D01*
X155156335Y-93726098D01*
X154942171Y-93825964D01*
X154942169Y-93825965D01*
X154748597Y-93961505D01*
X154581505Y-94128597D01*
X154451575Y-94314158D01*
X154396998Y-94357783D01*
X154327500Y-94364977D01*
X154265145Y-94333454D01*
X154248425Y-94314158D01*
X154118494Y-94128597D01*
X153951402Y-93961506D01*
X153951395Y-93961501D01*
X153757834Y-93825967D01*
X153757830Y-93825965D01*
X153653442Y-93777288D01*
X153543663Y-93726097D01*
X153543659Y-93726096D01*
X153543655Y-93726094D01*
X153315413Y-93664938D01*
X153315403Y-93664936D01*
X153080001Y-93644341D01*
X153079999Y-93644341D01*
X152844596Y-93664936D01*
X152844586Y-93664938D01*
X152616344Y-93726094D01*
X152616335Y-93726098D01*
X152402171Y-93825964D01*
X152402169Y-93825965D01*
X152208597Y-93961505D01*
X152041505Y-94128597D01*
X151911575Y-94314158D01*
X151856998Y-94357783D01*
X151787500Y-94364977D01*
X151725145Y-94333454D01*
X151708425Y-94314158D01*
X151578494Y-94128597D01*
X151411402Y-93961506D01*
X151411395Y-93961501D01*
X151217834Y-93825967D01*
X151217830Y-93825965D01*
X151113442Y-93777288D01*
X151003663Y-93726097D01*
X151003659Y-93726096D01*
X151003655Y-93726094D01*
X150775413Y-93664938D01*
X150775403Y-93664936D01*
X150540001Y-93644341D01*
X150539999Y-93644341D01*
X150304596Y-93664936D01*
X150304586Y-93664938D01*
X150076344Y-93726094D01*
X150076335Y-93726098D01*
X149862171Y-93825964D01*
X149862169Y-93825965D01*
X149668597Y-93961505D01*
X149501505Y-94128597D01*
X149371575Y-94314158D01*
X149316998Y-94357783D01*
X149247500Y-94364977D01*
X149185145Y-94333454D01*
X149168425Y-94314158D01*
X149038494Y-94128597D01*
X148871402Y-93961506D01*
X148871395Y-93961501D01*
X148677834Y-93825967D01*
X148677830Y-93825965D01*
X148573442Y-93777288D01*
X148463663Y-93726097D01*
X148463659Y-93726096D01*
X148463655Y-93726094D01*
X148235413Y-93664938D01*
X148235403Y-93664936D01*
X148000001Y-93644341D01*
X147999999Y-93644341D01*
X147764596Y-93664936D01*
X147764586Y-93664938D01*
X147536344Y-93726094D01*
X147536335Y-93726098D01*
X147322171Y-93825964D01*
X147322169Y-93825965D01*
X147128597Y-93961505D01*
X146961505Y-94128597D01*
X146831575Y-94314158D01*
X146776998Y-94357783D01*
X146707500Y-94364977D01*
X146645145Y-94333454D01*
X146628425Y-94314158D01*
X146498494Y-94128597D01*
X146331402Y-93961506D01*
X146331395Y-93961501D01*
X146137834Y-93825967D01*
X146137830Y-93825965D01*
X146033442Y-93777288D01*
X145923663Y-93726097D01*
X145923659Y-93726096D01*
X145923655Y-93726094D01*
X145695413Y-93664938D01*
X145695403Y-93664936D01*
X145460001Y-93644341D01*
X145459999Y-93644341D01*
X145224596Y-93664936D01*
X145224586Y-93664938D01*
X144996344Y-93726094D01*
X144996335Y-93726098D01*
X144782171Y-93825964D01*
X144782169Y-93825965D01*
X144588597Y-93961505D01*
X144421505Y-94128597D01*
X144291575Y-94314158D01*
X144236998Y-94357783D01*
X144167500Y-94364977D01*
X144105145Y-94333454D01*
X144088425Y-94314158D01*
X143958494Y-94128597D01*
X143791402Y-93961506D01*
X143791395Y-93961501D01*
X143597834Y-93825967D01*
X143597830Y-93825965D01*
X143493442Y-93777288D01*
X143383663Y-93726097D01*
X143383659Y-93726096D01*
X143383655Y-93726094D01*
X143155413Y-93664938D01*
X143155403Y-93664936D01*
X142920001Y-93644341D01*
X142919999Y-93644341D01*
X142684596Y-93664936D01*
X142684586Y-93664938D01*
X142456344Y-93726094D01*
X142456335Y-93726098D01*
X142242171Y-93825964D01*
X142242169Y-93825965D01*
X142048597Y-93961505D01*
X141881505Y-94128597D01*
X141751575Y-94314158D01*
X141696998Y-94357783D01*
X141627500Y-94364977D01*
X141565145Y-94333454D01*
X141548425Y-94314158D01*
X141418494Y-94128597D01*
X141251402Y-93961506D01*
X141251395Y-93961501D01*
X141057834Y-93825967D01*
X141057830Y-93825965D01*
X140953442Y-93777288D01*
X140843663Y-93726097D01*
X140843659Y-93726096D01*
X140843655Y-93726094D01*
X140615413Y-93664938D01*
X140615403Y-93664936D01*
X140380001Y-93644341D01*
X140379999Y-93644341D01*
X140144596Y-93664936D01*
X140144586Y-93664938D01*
X139916344Y-93726094D01*
X139916335Y-93726098D01*
X139702171Y-93825964D01*
X139702169Y-93825965D01*
X139508597Y-93961505D01*
X139341505Y-94128597D01*
X139211575Y-94314158D01*
X139156998Y-94357783D01*
X139087500Y-94364977D01*
X139025145Y-94333454D01*
X139008425Y-94314158D01*
X138878494Y-94128597D01*
X138711402Y-93961506D01*
X138711395Y-93961501D01*
X138517834Y-93825967D01*
X138517830Y-93825965D01*
X138413442Y-93777288D01*
X138303663Y-93726097D01*
X138303659Y-93726096D01*
X138303655Y-93726094D01*
X138075413Y-93664938D01*
X138075403Y-93664936D01*
X137840001Y-93644341D01*
X137839999Y-93644341D01*
X137604596Y-93664936D01*
X137604586Y-93664938D01*
X137376344Y-93726094D01*
X137376335Y-93726098D01*
X137162171Y-93825964D01*
X137162169Y-93825965D01*
X136968597Y-93961505D01*
X136801505Y-94128597D01*
X136671575Y-94314158D01*
X136616998Y-94357783D01*
X136547500Y-94364977D01*
X136485145Y-94333454D01*
X136468425Y-94314158D01*
X136338494Y-94128597D01*
X136171404Y-93961508D01*
X136171402Y-93961506D01*
X136171401Y-93961505D01*
X136171396Y-93961501D01*
X136171393Y-93961499D01*
X136053376Y-93878861D01*
X136009751Y-93824284D01*
X136000500Y-93777287D01*
X136000500Y-90650000D01*
X140875000Y-90650000D01*
X140875000Y-90797844D01*
X140881401Y-90857372D01*
X140881403Y-90857379D01*
X140931645Y-90992086D01*
X140931649Y-90992093D01*
X141017809Y-91107187D01*
X141017812Y-91107190D01*
X141132906Y-91193350D01*
X141132913Y-91193354D01*
X141267620Y-91243596D01*
X141267627Y-91243598D01*
X141327155Y-91249999D01*
X141327172Y-91250000D01*
X141750000Y-91250000D01*
X141750000Y-90650000D01*
X142250000Y-90650000D01*
X142250000Y-91250000D01*
X142672828Y-91250000D01*
X142672844Y-91249999D01*
X142732372Y-91243598D01*
X142732379Y-91243596D01*
X142867086Y-91193354D01*
X142867093Y-91193350D01*
X142982187Y-91107190D01*
X142982190Y-91107187D01*
X143068350Y-90992093D01*
X143068354Y-90992086D01*
X143118596Y-90857379D01*
X143118598Y-90857372D01*
X143124999Y-90797844D01*
X143125000Y-90797827D01*
X143125000Y-90650000D01*
X142250000Y-90650000D01*
X141750000Y-90650000D01*
X140875000Y-90650000D01*
X136000500Y-90650000D01*
X136000500Y-88099500D01*
X136020185Y-88032461D01*
X136072989Y-87986706D01*
X136124500Y-87975500D01*
X139161130Y-87975500D01*
X139228169Y-87995185D01*
G37*
%TD.AperFunction*%
%TA.AperFunction,Conductor*%
G36*
X124059841Y-92035314D02*
G01*
X124074727Y-92044880D01*
X124192911Y-92133353D01*
X124192913Y-92133354D01*
X124327620Y-92183596D01*
X124327627Y-92183598D01*
X124387155Y-92189999D01*
X124387172Y-92190000D01*
X124574981Y-92190000D01*
X124642020Y-92209685D01*
X124687775Y-92262489D01*
X124697719Y-92331647D01*
X124668694Y-92395203D01*
X124662662Y-92401681D01*
X123155888Y-93908453D01*
X123155887Y-93908454D01*
X123079224Y-94023190D01*
X123028155Y-94146483D01*
X122984314Y-94200886D01*
X122918020Y-94222951D01*
X122850321Y-94205672D01*
X122802710Y-94154535D01*
X122797412Y-94142363D01*
X122793797Y-94132671D01*
X122793795Y-94132668D01*
X122790747Y-94128597D01*
X122748922Y-94072725D01*
X122725233Y-94041080D01*
X122700816Y-93975615D01*
X122700500Y-93966769D01*
X122700500Y-92314499D01*
X122720185Y-92247460D01*
X122772989Y-92201705D01*
X122824500Y-92190499D01*
X123612871Y-92190499D01*
X123612872Y-92190499D01*
X123672483Y-92184091D01*
X123807331Y-92133796D01*
X123922546Y-92047546D01*
X123922548Y-92047542D01*
X123926104Y-92044881D01*
X123991568Y-92020463D01*
X124059841Y-92035314D01*
G37*
%TD.AperFunction*%
%TA.AperFunction,Conductor*%
G36*
X185345520Y-84570185D02*
G01*
X185366162Y-84586819D01*
X185863338Y-85083995D01*
X185896823Y-85145318D01*
X185899128Y-85183114D01*
X185894785Y-85229995D01*
X185894785Y-85230000D01*
X185913602Y-85433082D01*
X185969417Y-85629247D01*
X185969422Y-85629260D01*
X186060327Y-85811821D01*
X186183237Y-85974581D01*
X186333958Y-86111980D01*
X186333960Y-86111982D01*
X186380046Y-86140517D01*
X186507363Y-86219348D01*
X186697544Y-86293024D01*
X186898024Y-86330500D01*
X186898026Y-86330500D01*
X187101974Y-86330500D01*
X187101976Y-86330500D01*
X187302456Y-86293024D01*
X187492637Y-86219348D01*
X187610223Y-86146541D01*
X187677583Y-86127986D01*
X187744282Y-86148794D01*
X187789144Y-86202360D01*
X187799500Y-86251969D01*
X187799500Y-86748030D01*
X187779815Y-86815069D01*
X187727011Y-86860824D01*
X187657853Y-86870768D01*
X187610223Y-86853457D01*
X187492642Y-86780655D01*
X187492635Y-86780651D01*
X187358388Y-86728644D01*
X187302456Y-86706976D01*
X187101976Y-86669500D01*
X186898024Y-86669500D01*
X186697544Y-86706976D01*
X186697541Y-86706976D01*
X186697541Y-86706977D01*
X186507364Y-86780651D01*
X186507359Y-86780654D01*
X186445081Y-86819214D01*
X186377720Y-86837768D01*
X186311021Y-86816959D01*
X186292124Y-86801467D01*
X185396546Y-85905888D01*
X185396545Y-85905887D01*
X185281807Y-85829222D01*
X185154332Y-85776421D01*
X185154322Y-85776418D01*
X185018996Y-85749500D01*
X185018994Y-85749500D01*
X185018993Y-85749500D01*
X183141439Y-85749500D01*
X183074400Y-85729815D01*
X183067128Y-85724767D01*
X183042331Y-85706204D01*
X183042328Y-85706202D01*
X182907482Y-85655908D01*
X182907483Y-85655908D01*
X182847883Y-85649501D01*
X182847881Y-85649500D01*
X182847873Y-85649500D01*
X182847865Y-85649500D01*
X182174000Y-85649500D01*
X182106961Y-85629815D01*
X182061206Y-85577011D01*
X182050000Y-85525500D01*
X182050000Y-85474499D01*
X182069685Y-85407460D01*
X182122489Y-85361705D01*
X182174000Y-85350499D01*
X182847871Y-85350499D01*
X182847872Y-85350499D01*
X182907483Y-85344091D01*
X183042331Y-85293796D01*
X183065266Y-85276626D01*
X183067796Y-85274733D01*
X183133261Y-85250316D01*
X183142107Y-85250000D01*
X183300000Y-85250000D01*
X183300000Y-85152172D01*
X183299999Y-85152155D01*
X183293598Y-85092627D01*
X183293597Y-85092623D01*
X183284804Y-85069047D01*
X183279820Y-84999355D01*
X183284802Y-84982387D01*
X183294091Y-84957483D01*
X183300500Y-84897873D01*
X183300500Y-84674500D01*
X183320185Y-84607461D01*
X183372989Y-84561706D01*
X183424500Y-84550500D01*
X185278481Y-84550500D01*
X185345520Y-84570185D01*
G37*
%TD.AperFunction*%
%TD*%
M02*
