%TF.GenerationSoftware,KiCad,Pcbnew,8.0.1*%
%TF.CreationDate,2024-03-24T20:30:25+02:00*%
%TF.ProjectId,Sensing_Subsystem,53656e73-696e-4675-9f53-756273797374,rev?*%
%TF.SameCoordinates,Original*%
%TF.FileFunction,Soldermask,Top*%
%TF.FilePolarity,Negative*%
%FSLAX46Y46*%
G04 Gerber Fmt 4.6, Leading zero omitted, Abs format (unit mm)*
G04 Created by KiCad (PCBNEW 8.0.1) date 2024-03-24 20:30:25*
%MOMM*%
%LPD*%
G01*
G04 APERTURE LIST*
%ADD10C,1.200000*%
%ADD11R,1.130000X1.380000*%
%ADD12R,1.800000X1.800000*%
%ADD13C,1.800000*%
%ADD14R,0.700000X1.250000*%
%ADD15C,3.000000*%
%ADD16R,1.380000X1.130000*%
%ADD17R,1.000000X0.600000*%
%ADD18R,1.250000X0.700000*%
%ADD19R,0.600000X1.000000*%
%ADD20R,1.700000X1.700000*%
%ADD21O,1.700000X1.700000*%
G04 APERTURE END LIST*
D10*
%TO.C,D5*%
X157670000Y-78700000D03*
X155130000Y-78700000D03*
%TD*%
D11*
%TO.C,R4*%
X180000000Y-92000000D03*
X182000000Y-92000000D03*
%TD*%
%TO.C,R2*%
X143500000Y-83500000D03*
X141500000Y-83500000D03*
%TD*%
D12*
%TO.C,D1*%
X126750000Y-78725000D03*
D13*
X126750000Y-81265000D03*
%TD*%
D14*
%TO.C,Q3*%
X172050000Y-93500000D03*
X173950000Y-93500000D03*
X173000000Y-91500000D03*
%TD*%
D11*
%TO.C,R3*%
X174000000Y-97500000D03*
X172000000Y-97500000D03*
%TD*%
%TO.C,R1*%
X128000000Y-96500000D03*
X126000000Y-96500000D03*
%TD*%
D15*
%TO.C,TP2*%
X166500000Y-85000000D03*
%TD*%
D16*
%TO.C,R5*%
X162000000Y-86000000D03*
X162000000Y-84000000D03*
%TD*%
D11*
%TO.C,R6*%
X125000000Y-91000000D03*
X123000000Y-91000000D03*
%TD*%
D17*
%TO.C,U3*%
X122700000Y-85050000D03*
X122700000Y-86000000D03*
X122700000Y-86950000D03*
X125300000Y-86950000D03*
X125300000Y-85050000D03*
%TD*%
D12*
%TO.C,D2*%
X151275000Y-88750000D03*
D13*
X148735000Y-88750000D03*
%TD*%
D18*
%TO.C,Q2*%
X142000000Y-88500000D03*
X142000000Y-90400000D03*
X144000000Y-89450000D03*
%TD*%
D10*
%TO.C,D6*%
X116000000Y-85000000D03*
X116000000Y-87540000D03*
%TD*%
D14*
%TO.C,Q1*%
X121050000Y-97000000D03*
X122950000Y-97000000D03*
X122000000Y-95000000D03*
%TD*%
D19*
%TO.C,U2*%
X155550000Y-86800000D03*
X156500000Y-86800000D03*
X157450000Y-86800000D03*
X157450000Y-84200000D03*
X155550000Y-84200000D03*
%TD*%
D10*
%TO.C,D4*%
X187000000Y-87770000D03*
X187000000Y-85230000D03*
%TD*%
D15*
%TO.C,TP3*%
X117500000Y-92000000D03*
%TD*%
D17*
%TO.C,U1*%
X182300000Y-86450000D03*
X182300000Y-85500000D03*
X182300000Y-84550000D03*
X179700000Y-84550000D03*
X179700000Y-86450000D03*
%TD*%
D12*
%TO.C,D3*%
X176500000Y-81275000D03*
D13*
X176500000Y-78735000D03*
%TD*%
D15*
%TO.C,TP1*%
X186000000Y-94000000D03*
%TD*%
D20*
%TO.C,J1*%
X165780000Y-97540000D03*
D21*
X165780000Y-95000000D03*
X163240000Y-97540000D03*
X163240000Y-95000000D03*
X160700000Y-97540000D03*
X160700000Y-95000000D03*
X158160000Y-97540000D03*
X158160000Y-95000000D03*
X155620000Y-97540000D03*
X155620000Y-95000000D03*
X153080000Y-97540000D03*
X153080000Y-95000000D03*
X150540000Y-97540000D03*
X150540000Y-95000000D03*
X148000000Y-97540000D03*
X148000000Y-95000000D03*
X145460000Y-97540000D03*
X145460000Y-95000000D03*
X142920000Y-97540000D03*
X142920000Y-95000000D03*
X140380000Y-97540000D03*
X140380000Y-95000000D03*
X137840000Y-97540000D03*
X137840000Y-95000000D03*
X135300000Y-97540000D03*
X135300000Y-95000000D03*
X132760000Y-97540000D03*
X132760000Y-95000000D03*
%TD*%
M02*
