M48
; DRILL file {KiCad 8.0.1} date 2024-03-24T20:30:25+0200
; FORMAT={-:-/ absolute / inch / decimal}
; #@! TF.CreationDate,2024-03-24T20:30:25+02:00
; #@! TF.GenerationSoftware,Kicad,Pcbnew,8.0.1
; #@! TF.FileFunction,Plated,1,2,PTH
FMAT,2
INCH
; #@! TA.AperFunction,Plated,PTH,ViaDrill
T1C0.0118
; #@! TA.AperFunction,Plated,PTH,ComponentDrill
T2C0.0276
; #@! TA.AperFunction,Plated,PTH,ComponentDrill
T3C0.0354
; #@! TA.AperFunction,Plated,PTH,ComponentDrill
T4C0.0394
; #@! TA.AperFunction,Plated,PTH,ComponentDrill
T5C0.0591
%
G90
G05
T1
X4.685Y-3.5039
X4.7638Y-3.3661
X4.7835Y-3.4449
X4.8031Y-3.8189
X4.9016Y-3.8189
X4.9213Y-3.5305
X4.9213Y-3.5827
X4.9409Y-3.3071
X4.9606Y-3.4449
X5.0394Y-3.7992
X5.4724Y-3.622
X5.5118Y-3.3858
X5.5118Y-3.4843
X5.6496Y-3.2874
X6.063Y-3.2874
X6.122Y-3.4646
X6.1988Y-3.315
X6.1988Y-3.4173
X6.2598Y-3.2677
X6.7323Y-3.7008
X6.7717Y-3.8386
X6.8484Y-3.6811
X7.0748Y-3.3287
X7.1654Y-3.3287
X7.2441Y-3.3465
X7.4016Y-3.2677
T2
X4.5669Y-3.3465
X4.5669Y-3.4465
X6.1075Y-3.0984
X6.2075Y-3.0984
X7.3622Y-3.3555
X7.3622Y-3.4555
T3
X4.9902Y-3.0994
X4.9902Y-3.1994
X5.8557Y-3.4941
X5.9557Y-3.4941
X6.9488Y-3.0998
X6.9488Y-3.1998
T4
X5.2268Y-3.7402
X5.2268Y-3.8402
X5.3268Y-3.7402
X5.3268Y-3.8402
X5.4268Y-3.7402
X5.4268Y-3.8402
X5.5268Y-3.7402
X5.5268Y-3.8402
X5.6268Y-3.7402
X5.6268Y-3.8402
X5.7268Y-3.7402
X5.7268Y-3.8402
X5.8268Y-3.7402
X5.8268Y-3.8402
X5.9268Y-3.7402
X5.9268Y-3.8402
X6.0268Y-3.7402
X6.0268Y-3.8402
X6.1268Y-3.7402
X6.1268Y-3.8402
X6.2268Y-3.7402
X6.2268Y-3.8402
X6.3268Y-3.7402
X6.3268Y-3.8402
X6.4268Y-3.7402
X6.4268Y-3.8402
X6.5268Y-3.7402
X6.5268Y-3.8402
T5
X4.626Y-3.622
X6.5551Y-3.3465
X7.3228Y-3.7008
M30
